STARTFONT 2.1
FONT -Adobe-Courier-Bold-O-Normal--25-180-100-100-M-150-ISO10646-1
SIZE 18 100 100
FONTBOUNDINGBOX 28 33 -6 -8
COMMENT $XFree86$
COMMENT ISO10646-1 extension by Markus Kuhn <mkuhn@acm.org>, 2001-03-20
COMMENT 
COMMENT +
COMMENT  Copyright 1984-1989, 1994 Adobe Systems Incorporated.
COMMENT  Copyright 1988, 1994 Digital Equipment Corporation.
COMMENT
COMMENT  Adobe is a trademark of Adobe Systems Incorporated which may be
COMMENT  registered in certain jurisdictions.
COMMENT  Permission to use these trademarks is hereby granted only in
COMMENT  association with the images described in this file.
COMMENT
COMMENT  Permission to use, copy, modify, distribute and sell this software
COMMENT  and its documentation for any purpose and without fee is hereby
COMMENT  granted, provided that the above copyright notices appear in all
COMMENT  copies and that both those copyright notices and this permission
COMMENT  notice appear in supporting documentation, and that the names of
COMMENT  Adobe Systems and Digital Equipment Corporation not be used in
COMMENT  advertising or publicity pertaining to distribution of the software
COMMENT  without specific, written prior permission.  Adobe Systems and
COMMENT  Digital Equipment Corporation make no representations about the
COMMENT  suitability of this software for any purpose.  It is provided "as
COMMENT  is" without express or implied warranty.
COMMENT -
STARTPROPERTIES 26
FOUNDRY "Adobe"
FAMILY_NAME "Courier"
WEIGHT_NAME "Bold"
SLANT "O"
SETWIDTH_NAME "Normal"
ADD_STYLE_NAME ""
PIXEL_SIZE 25
POINT_SIZE 180
RESOLUTION_X 100
RESOLUTION_Y 100
SPACING "M"
AVERAGE_WIDTH 150
CHARSET_REGISTRY "ISO10646"
CHARSET_ENCODING "1"
CAP_HEIGHT 15
X_HEIGHT 11
FONT_ASCENT 18
FONT_DESCENT 5
FACE_NAME "Courier Bold Oblique"
COPYRIGHT "Copyright (c) 1984, 1987 Adobe Systems Incorporated. All Rights Reserved. Copyright (c) 1988, 1991 Digital Equipment Corporation. All Rights Reserved."
NOTICE "No mark"

STARTCHAR char0
ENCODING 0
SWIDTH 600 0
DWIDTH 15 0
BBX 17 15 0 0
BITMAP
AAAA80
000000
800080
000000
800080
000000
800080
000000
800080
000000
800080
000000
800080
000000
AAAA80
ENDCHAR
STARTCHAR space
ENCODING 32
SWIDTH 600 0
DWIDTH 15 0
BBX 1 1 0 0
BITMAP
00
ENDCHAR
STARTCHAR exclam
ENCODING 33
SWIDTH 600 0
DWIDTH 15 0
BBX 6 16 6 0
BITMAP
0C
1C
1C
3C
38
38
30
70
60
60
60
60
00
00
C0
C0
ENDCHAR
STARTCHAR quotedbl
ENCODING 34
SWIDTH 600 0
DWIDTH 15 0
BBX 8 7 5 8
BITMAP
77
77
66
66
CC
CC
88
ENDCHAR
STARTCHAR numbersign
ENCODING 35
SWIDTH 600 0
DWIDTH 15 0
BBX 13 19 2 -2
BITMAP
0198
0198
0330
0330
0660
0660
3FF8
3FF8
0CC0
1980
1980
FFE0
FFE0
3300
3300
6600
6600
CC00
CC00
ENDCHAR
STARTCHAR dollar
ENCODING 36
SWIDTH 600 0
DWIDTH 15 0
BBX 12 20 2 -3
BITMAP
0180
0180
0FB0
1FF0
3870
3030
3800
1E00
0F80
03C0
00E0
0060
6060
E0E0
FFC0
DF80
0C00
0C00
1800
1800
ENDCHAR
STARTCHAR percent
ENCODING 37
SWIDTH 600 0
DWIDTH 15 0
BBX 14 15 2 0
BITMAP
0780
0CC0
18C0
18C0
1980
0F1C
00F0
0780
3C00
E3C0
0660
0C60
0C60
0CC0
0780
ENDCHAR
STARTCHAR ampersand
ENCODING 38
SWIDTH 600 0
DWIDTH 15 0
BBX 11 14 2 0
BITMAP
03C0
07E0
0E60
1C00
1800
1800
1C00
3E60
6FE0
C7C0
C380
C3C0
FFE0
7EE0
ENDCHAR
STARTCHAR quotesingle
ENCODING 39
SWIDTH 600 0
DWIDTH 15 0
BBX 4 7 7 8
BITMAP
70
70
70
70
E0
E0
E0
ENDCHAR
STARTCHAR parenleft
ENCODING 40
SWIDTH 600 0
DWIDTH 15 0
BBX 9 20 6 -4
BITMAP
0380
0600
0C00
1800
1800
3000
3000
6000
6000
6000
C000
C000
C000
C000
C000
C000
C000
6000
6000
3000
ENDCHAR
STARTCHAR parenright
ENCODING 41
SWIDTH 600 0
DWIDTH 15 0
BBX 8 20 2 -4
BITMAP
0C
06
06
03
03
03
03
03
03
03
06
06
06
0C
0C
18
18
30
60
C0
ENDCHAR
STARTCHAR asterisk
ENCODING 42
SWIDTH 600 0
DWIDTH 15 0
BBX 11 10 4 6
BITMAP
0300
0300
0600
7FE0
7FE0
0E00
1E00
3B00
7380
E180
ENDCHAR
STARTCHAR plus
ENCODING 43
SWIDTH 600 0
DWIDTH 15 0
BBX 13 14 2 0
BITMAP
0180
0180
0180
0300
0300
0300
FFF8
FFF8
0600
0600
0C00
0C00
0C00
0C00
ENDCHAR
STARTCHAR comma
ENCODING 44
SWIDTH 600 0
DWIDTH 15 0
BBX 5 6 4 -3
BITMAP
38
38
70
60
C0
80
ENDCHAR
STARTCHAR hyphen
ENCODING 45
SWIDTH 600 0
DWIDTH 15 0
BBX 12 2 3 6
BITMAP
7FF0
FFE0
ENDCHAR
STARTCHAR period
ENCODING 46
SWIDTH 600 0
DWIDTH 15 0
BBX 3 3 5 0
BITMAP
E0
E0
E0
ENDCHAR
STARTCHAR slash
ENCODING 47
SWIDTH 600 0
DWIDTH 15 0
BBX 19 19 -1 -2
BITMAP
000060
0000C0
000180
000300
000600
000C00
001800
003000
006000
004000
00C000
018000
030000
060000
0C0000
180000
300000
600000
C00000
ENDCHAR
STARTCHAR zero
ENCODING 48
SWIDTH 600 0
DWIDTH 15 0
BBX 12 16 3 0
BITMAP
07C0
0FE0
1830
3030
3030
6030
6030
6030
C060
C060
C060
C0C0
C0C0
C180
7F00
3E00
ENDCHAR
STARTCHAR one
ENCODING 49
SWIDTH 600 0
DWIDTH 15 0
BBX 10 16 2 0
BITMAP
0180
1F80
1F80
0180
0300
0300
0300
0600
0600
0600
0600
0C00
0C00
0C00
FFC0
FFC0
ENDCHAR
STARTCHAR two
ENCODING 50
SWIDTH 600 0
DWIDTH 15 0
BBX 14 16 1 0
BITMAP
01F8
07FC
0E0C
0C0C
0C0C
001C
0038
0070
01E0
03C0
0700
1E00
3800
7000
FFE0
FFE0
ENDCHAR
STARTCHAR three
ENCODING 51
SWIDTH 600 0
DWIDTH 15 0
BBX 14 16 1 0
BITMAP
01F0
07F8
0E1C
0C0C
000C
001C
0078
03F0
03E0
0070
0030
0030
C070
E0E0
7FE0
3F80
ENDCHAR
STARTCHAR four
ENCODING 52
SWIDTH 600 0
DWIDTH 15 0
BBX 11 16 2 0
BITMAP
00E0
01E0
0360
0660
0CC0
0CC0
18C0
30C0
3180
6180
FFE0
FFE0
0300
0300
1FC0
1FC0
ENDCHAR
STARTCHAR five
ENCODING 53
SWIDTH 600 0
DWIDTH 15 0
BBX 13 16 2 0
BITMAP
0FF8
0FF8
0C00
0C00
1800
1BC0
1FE0
1C70
0030
0030
0030
0030
C070
E0E0
7FC0
3F80
ENDCHAR
STARTCHAR six
ENCODING 54
SWIDTH 600 0
DWIDTH 15 0
BBX 13 16 3 0
BITMAP
00F8
03F8
0780
0E00
1C00
3800
3780
7FC0
60E0
E060
C060
C060
E0E0
71C0
7F80
1F00
ENDCHAR
STARTCHAR seven
ENCODING 55
SWIDTH 600 0
DWIDTH 15 0
BBX 10 16 5 0
BITMAP
7FC0
FFC0
C180
0180
0300
0300
0600
0600
0C00
0C00
1800
1800
3000
3000
6000
6000
ENDCHAR
STARTCHAR eight
ENCODING 56
SWIDTH 600 0
DWIDTH 15 0
BBX 13 16 2 0
BITMAP
03E0
0FF0
1C38
1818
3018
3030
1860
1FC0
3FC0
60E0
C060
C060
C060
E0C0
7F80
3F00
ENDCHAR
STARTCHAR nine
ENCODING 57
SWIDTH 600 0
DWIDTH 15 0
BBX 13 16 2 0
BITMAP
01E0
07F0
0E30
1C18
3818
3018
3018
3038
3870
1FF0
0F60
00E0
01C0
0380
FF00
FC00
ENDCHAR
STARTCHAR colon
ENCODING 58
SWIDTH 600 0
DWIDTH 15 0
BBX 5 11 5 0
BITMAP
38
38
38
00
00
00
00
00
E0
E0
E0
ENDCHAR
STARTCHAR semicolon
ENCODING 59
SWIDTH 600 0
DWIDTH 15 0
BBX 6 14 4 -3
BITMAP
1C
1C
1C
00
00
00
00
00
38
38
70
60
C0
80
ENDCHAR
STARTCHAR less
ENCODING 60
SWIDTH 600 0
DWIDTH 15 0
BBX 15 11 2 2
BITMAP
001E
0078
01E0
0780
1E00
7800
F000
3C00
0F00
03C0
00F0
ENDCHAR
STARTCHAR equal
ENCODING 61
SWIDTH 600 0
DWIDTH 15 0
BBX 13 6 2 4
BITMAP
7FF8
7FF8
0000
0000
FFF0
FFF0
ENDCHAR
STARTCHAR greater
ENCODING 62
SWIDTH 600 0
DWIDTH 15 0
BBX 15 11 1 2
BITMAP
1E00
0780
01E0
0078
001E
003C
00F0
03C0
0F00
3C00
F000
ENDCHAR
STARTCHAR question
ENCODING 63
SWIDTH 600 0
DWIDTH 15 0
BBX 10 15 4 0
BITMAP
3F00
7F80
61C0
C0C0
C0C0
01C0
0380
0F00
1C00
3800
3000
0000
0000
6000
6000
ENDCHAR
STARTCHAR at
ENCODING 64
SWIDTH 600 0
DWIDTH 15 0
BBX 12 18 2 -2
BITMAP
03C0
0FE0
0C30
1830
1830
31F0
33E0
6660
6460
6CC0
CCC0
CFE0
C7E0
C000
C000
6180
7F00
1E00
ENDCHAR
STARTCHAR A
ENCODING 65
SWIDTH 600 0
DWIDTH 15 0
BBX 14 15 0 0
BITMAP
07E0
07E0
00E0
01E0
01B0
0330
0630
0630
0C30
1FF8
1FF8
3018
3018
FCFC
FCFC
ENDCHAR
STARTCHAR B
ENCODING 66
SWIDTH 600 0
DWIDTH 15 0
BBX 15 15 0 0
BITMAP
1FF8
1FFC
0606
0606
0C06
0C0C
0FF8
0FF8
181C
180C
180C
3018
3038
FFF0
FFE0
ENDCHAR
STARTCHAR C
ENCODING 67
SWIDTH 600 0
DWIDTH 15 0
BBX 15 15 1 0
BITMAP
03F6
0FFE
1E0E
380C
700C
6000
E000
C000
C000
C000
C000
E030
7070
7FE0
1F80
ENDCHAR
STARTCHAR D
ENCODING 68
SWIDTH 600 0
DWIDTH 15 0
BBX 16 15 0 0
BITMAP
1FFC
1FFE
0607
0603
0C03
0C03
0C03
1803
1806
1806
300C
300C
3038
FFF0
FFE0
ENDCHAR
STARTCHAR E
ENCODING 69
SWIDTH 600 0
DWIDTH 15 0
BBX 15 15 0 0
BITMAP
1FFE
1FFE
0606
060C
0C6C
0C60
0FE0
0FC0
18C0
18C0
180C
300C
3018
FFF8
FFF8
ENDCHAR
STARTCHAR F
ENCODING 70
SWIDTH 600 0
DWIDTH 15 0
BBX 16 15 0 0
BITMAP
1FFF
1FFF
0603
0606
0C66
0C60
0FE0
0FC0
18C0
18C0
1800
3000
3000
FF00
FF00
ENDCHAR
STARTCHAR G
ENCODING 71
SWIDTH 600 0
DWIDTH 15 0
BBX 15 15 1 0
BITMAP
03F6
0FFE
1E0E
380C
700C
6000
E000
C000
C1F8
C1F8
C018
E030
7070
7FE0
1FC0
ENDCHAR
STARTCHAR H
ENCODING 72
SWIDTH 600 0
DWIDTH 15 0
BBX 17 15 0 0
BITMAP
1F9F80
1F9F80
060600
060600
0C0C00
0C0C00
0FFC00
0FFC00
181800
181800
181800
303000
303000
FCFC00
FCFC00
ENDCHAR
STARTCHAR I
ENCODING 73
SWIDTH 600 0
DWIDTH 15 0
BBX 13 15 2 0
BITMAP
1FF8
1FF8
0180
0180
0300
0300
0300
0600
0600
0600
0C00
0C00
0C00
FFC0
FFC0
ENDCHAR
STARTCHAR J
ENCODING 74
SWIDTH 600 0
DWIDTH 15 0
BBX 16 15 1 0
BITMAP
03FF
03FF
0018
0018
0018
0030
0030
0030
0060
6060
6060
C0C0
E1C0
7F80
3F00
ENDCHAR
STARTCHAR K
ENCODING 75
SWIDTH 600 0
DWIDTH 15 0
BBX 16 15 0 0
BITMAP
1F9F
1F9F
0618
0630
0C60
0CC0
0F80
1F80
19C0
18C0
30E0
3060
3070
FC3C
FC3C
ENDCHAR
STARTCHAR L
ENCODING 76
SWIDTH 600 0
DWIDTH 15 0
BBX 13 15 1 0
BITMAP
1FE0
1FE0
0300
0300
0600
0600
0600
0C00
0C00
0C00
1818
1818
1830
FFF0
FFF0
ENDCHAR
STARTCHAR M
ENCODING 77
SWIDTH 600 0
DWIDTH 15 0
BBX 17 15 0 0
BITMAP
1E0780
1E0F80
0E0F00
0E1F00
1E3600
1B3600
1B6600
336C00
33CC00
318C00
619800
601800
601800
F87C00
F87C00
ENDCHAR
STARTCHAR N
ENCODING 78
SWIDTH 600 0
DWIDTH 15 0
BBX 16 15 0 0
BITMAP
1E1F
1E1F
0E06
0E06
1B0C
1B0C
1B0C
198C
3198
3198
30D8
60D8
60F0
F870
F870
ENDCHAR
STARTCHAR O
ENCODING 79
SWIDTH 600 0
DWIDTH 15 0
BBX 14 15 1 0
BITMAP
03E0
0FF8
1C38
381C
700C
600C
E00C
C00C
C01C
C018
C038
E070
71E0
7FC0
1F00
ENDCHAR
STARTCHAR P
ENCODING 80
SWIDTH 600 0
DWIDTH 15 0
BBX 16 15 0 0
BITMAP
1FF8
1FFE
0607
0603
0C03
0C03
0C06
180E
1FFC
1FF0
1800
3000
3000
FF00
FF00
ENDCHAR
STARTCHAR Q
ENCODING 81
SWIDTH 600 0
DWIDTH 15 0
BBX 14 18 1 -3
BITMAP
03E0
0FF8
1C38
381C
700C
600C
E00C
C00C
C01C
C018
C038
E070
71E0
7FC0
1F00
7860
FFE0
E780
ENDCHAR
STARTCHAR R
ENCODING 82
SWIDTH 600 0
DWIDTH 15 0
BBX 15 15 0 0
BITMAP
1FF0
1FFC
060E
0606
0C06
0C0E
0C1C
1FF8
1FC0
18E0
1860
3070
3030
FC3C
FC3C
ENDCHAR
STARTCHAR S
ENCODING 83
SWIDTH 600 0
DWIDTH 15 0
BBX 15 15 1 0
BITMAP
03F6
0FFE
0E0E
1C0C
180C
1E00
0F80
03E0
00F0
0038
6018
6018
7038
FFF0
CFE0
ENDCHAR
STARTCHAR T
ENCODING 84
SWIDTH 600 0
DWIDTH 15 0
BBX 13 15 3 0
BITMAP
7FF8
7FF8
6318
C330
C630
C630
0600
0C00
0C00
0C00
1800
1800
1800
FF00
FF00
ENDCHAR
STARTCHAR U
ENCODING 85
SWIDTH 600 0
DWIDTH 15 0
BBX 15 15 2 0
BITMAP
7C7E
7C7E
3018
3018
6018
6030
6030
6030
C060
C060
C060
C0C0
E1C0
7F80
3F00
ENDCHAR
STARTCHAR V
ENCODING 86
SWIDTH 600 0
DWIDTH 15 0
BBX 14 15 3 0
BITMAP
F87C
F87C
6018
6030
6030
6060
6060
30C0
3180
3180
3300
3600
1E00
1C00
1800
ENDCHAR
STARTCHAR W
ENCODING 87
SWIDTH 600 0
DWIDTH 15 0
BBX 15 15 2 0
BITMAP
7C3E
7C3E
300C
318C
3398
6398
6798
6798
6DB0
6DB0
D9B0
D9A0
F1E0
F1C0
E1C0
ENDCHAR
STARTCHAR X
ENCODING 88
SWIDTH 600 0
DWIDTH 15 0
BBX 17 15 0 0
BITMAP
1F9F80
1F9F80
0E0E00
061800
033000
03E000
01E000
03C000
03C000
066000
0C7000
183000
383800
FCFC00
FCFC00
ENDCHAR
STARTCHAR Y
ENCODING 89
SWIDTH 600 0
DWIDTH 15 0
BBX 14 15 3 0
BITMAP
FCFC
FCFC
7070
3060
38C0
1980
1B00
0E00
0E00
0C00
0C00
1800
1800
FF00
FF00
ENDCHAR
STARTCHAR Z
ENCODING 90
SWIDTH 600 0
DWIDTH 15 0
BBX 14 15 2 0
BITMAP
1FFC
1FFC
1838
3070
30E0
01C0
0380
0700
0E00
1C00
3830
7030
E060
FFE0
FFE0
ENDCHAR
STARTCHAR bracketleft
ENCODING 91
SWIDTH 600 0
DWIDTH 15 0
BBX 10 20 5 -4
BITMAP
07C0
07C0
0C00
0C00
0C00
1800
1800
1800
1800
3000
3000
3000
6000
6000
6000
6000
C000
C000
F800
F800
ENDCHAR
STARTCHAR backslash
ENCODING 92
SWIDTH 600 0
DWIDTH 15 0
BBX 6 19 6 -2
BITMAP
C0
C0
C0
C0
60
60
60
60
30
30
30
30
18
18
18
18
0C
0C
0C
ENDCHAR
STARTCHAR bracketright
ENCODING 93
SWIDTH 600 0
DWIDTH 15 0
BBX 9 20 2 -4
BITMAP
0F80
0F80
0180
0180
0300
0300
0300
0300
0600
0600
0600
0600
0C00
0C00
0C00
0C00
1800
1800
F800
F800
ENDCHAR
STARTCHAR asciicircum
ENCODING 94
SWIDTH 600 0
DWIDTH 15 0
BBX 9 8 4 8
BITMAP
0300
0300
0700
0F00
1900
3180
6180
C180
ENDCHAR
STARTCHAR underscore
ENCODING 95
SWIDTH 600 0
DWIDTH 15 0
BBX 15 2 0 -4
BITMAP
FFFE
FFFE
ENDCHAR
STARTCHAR grave
ENCODING 96
SWIDTH 600 0
DWIDTH 15 0
BBX 5 4 7 11
BITMAP
C0
60
30
18
ENDCHAR
STARTCHAR a
ENCODING 97
SWIDTH 600 0
DWIDTH 15 0
BBX 12 11 1 0
BITMAP
0FC0
1FE0
1870
0030
0FF0
3FE0
7060
C0C0
C1C0
FFF0
7EF0
ENDCHAR
STARTCHAR b
ENCODING 98
SWIDTH 600 0
DWIDTH 15 0
BBX 14 16 0 0
BITMAP
1E00
1E00
0600
0600
0600
0DF0
0FF8
0E1C
0C0C
180C
180C
180C
3818
3C38
FFF0
F7C0
ENDCHAR
STARTCHAR c
ENCODING 99
SWIDTH 600 0
DWIDTH 15 0
BBX 12 11 2 0
BITMAP
0FB0
3FF0
7060
6060
C060
C000
C000
C000
E060
7FE0
3F80
ENDCHAR
STARTCHAR d
ENCODING 100
SWIDTH 600 0
DWIDTH 15 0
BBX 13 16 2 0
BITMAP
0078
0078
0018
0018
0030
0F30
3FB0
70F0
6060
C060
C060
C0C0
C0C0
E1C0
7FF0
3EF0
ENDCHAR
STARTCHAR e
ENCODING 101
SWIDTH 600 0
DWIDTH 15 0
BBX 11 11 2 0
BITMAP
0F80
3FC0
70E0
6060
C060
FFE0
FFE0
C000
E0C0
7FC0
3F00
ENDCHAR
STARTCHAR f
ENCODING 102
SWIDTH 600 0
DWIDTH 15 0
BBX 14 16 2 0
BITMAP
007C
01FC
0380
0300
0300
3FF0
3FF0
0600
0600
0C00
0C00
0C00
1800
1800
FFC0
FFC0
ENDCHAR
STARTCHAR g
ENCODING 103
SWIDTH 600 0
DWIDTH 15 0
BBX 14 16 2 -5
BITMAP
0FBC
3FFC
70F0
6060
C060
C060
C060
C0C0
E1C0
7FC0
3EC0
0180
0180
0380
FF00
FE00
ENDCHAR
STARTCHAR h
ENCODING 104
SWIDTH 600 0
DWIDTH 15 0
BBX 14 16 0 0
BITMAP
1E00
1E00
0600
0600
0600
0DF0
0FF8
0E1C
0C0C
180C
1818
1818
3030
3030
FCFC
FCFC
ENDCHAR
STARTCHAR i
ENCODING 105
SWIDTH 600 0
DWIDTH 15 0
BBX 10 16 2 0
BITMAP
01C0
03C0
0380
0000
0000
1F00
1F00
0300
0300
0600
0600
0600
0C00
0C00
FFC0
FFC0
ENDCHAR
STARTCHAR j
ENCODING 106
SWIDTH 600 0
DWIDTH 15 0
BBX 12 21 1 -5
BITMAP
0070
00F0
00E0
0000
0000
1FE0
1FE0
0060
0060
00C0
00C0
00C0
0180
0180
0180
0300
0300
0300
0600
FE00
FC00
ENDCHAR
STARTCHAR k
ENCODING 107
SWIDTH 600 0
DWIDTH 15 0
BBX 13 16 1 0
BITMAP
1E00
1E00
0600
0600
0C00
0C78
0C78
18E0
19C0
1F80
1F00
3380
31C0
30E0
F078
F078
ENDCHAR
STARTCHAR l
ENCODING 108
SWIDTH 600 0
DWIDTH 15 0
BBX 10 16 2 0
BITMAP
0F80
0F80
0180
0180
0300
0300
0300
0600
0600
0600
0600
0C00
0C00
0C00
FFC0
FFC0
ENDCHAR
STARTCHAR m
ENCODING 109
SWIDTH 600 0
DWIDTH 15 0
BBX 15 11 0 0
BITMAP
77BC
7FFE
1CE6
18C6
318C
318C
318C
6318
6318
F3DC
F3DC
ENDCHAR
STARTCHAR n
ENCODING 110
SWIDTH 600 0
DWIDTH 15 0
BBX 14 11 0 0
BITMAP
3CF0
3DF8
0F1C
0E0C
180C
1818
1818
3030
3030
FCFC
FCFC
ENDCHAR
STARTCHAR o
ENCODING 111
SWIDTH 600 0
DWIDTH 15 0
BBX 12 11 2 0
BITMAP
0FC0
3FE0
7070
6030
C030
C030
C030
C060
E0E0
7FC0
3F00
ENDCHAR
STARTCHAR p
ENCODING 112
SWIDTH 600 0
DWIDTH 15 0
BBX 15 16 -1 -5
BITMAP
1EF8
1FFC
070E
0606
0C06
0C06
0C06
1C0C
1E1C
1BF8
19E0
3000
3000
3000
FE00
FE00
ENDCHAR
STARTCHAR q
ENCODING 113
SWIDTH 600 0
DWIDTH 15 0
BBX 14 16 2 -5
BITMAP
0FBC
3FFC
70F0
6070
C060
C060
C060
C0C0
E1C0
7FC0
3EC0
0180
0180
0180
0FE0
0FE0
ENDCHAR
STARTCHAR r
ENCODING 114
SWIDTH 600 0
DWIDTH 15 0
BBX 14 11 1 0
BITMAP
1EF8
1FFC
070C
0600
0C00
0C00
0C00
1800
1800
FFC0
FFC0
ENDCHAR
STARTCHAR s
ENCODING 115
SWIDTH 600 0
DWIDTH 15 0
BBX 12 11 2 0
BITMAP
0FB0
1FF0
3860
3860
1E00
0F80
03C0
60E0
60E0
FFC0
DF80
ENDCHAR
STARTCHAR t
ENCODING 116
SWIDTH 600 0
DWIDTH 15 0
BBX 10 15 3 0
BITMAP
0C00
0C00
1800
1800
FFC0
FFC0
3000
6000
6000
6000
C000
C000
E180
7F80
3E00
ENDCHAR
STARTCHAR u
ENCODING 117
SWIDTH 600 0
DWIDTH 15 0
BBX 12 11 2 0
BITMAP
F0F0
F0F0
3030
6030
6060
6060
C060
C0C0
E1C0
7FF0
3EF0
ENDCHAR
STARTCHAR v
ENCODING 118
SWIDTH 600 0
DWIDTH 15 0
BBX 14 11 1 0
BITMAP
FCFC
FCFC
3030
3060
1860
18C0
1980
1980
0F00
0E00
0C00
ENDCHAR
STARTCHAR w
ENCODING 119
SWIDTH 600 0
DWIDTH 15 0
BBX 14 11 2 0
BITMAP
F87C
F87C
6318
6318
6730
6730
6F60
6B60
79C0
71C0
6180
ENDCHAR
STARTCHAR x
ENCODING 120
SWIDTH 600 0
DWIDTH 15 0
BBX 14 11 1 0
BITMAP
3E7C
3E7C
1830
0C60
06C0
0780
0F00
1980
30C0
F9F0
F9F0
ENDCHAR
STARTCHAR y
ENCODING 121
SWIDTH 600 0
DWIDTH 15 0
BBX 15 16 0 -5
BITMAP
1F3E
1F3E
0C0C
0C18
0C38
0630
0660
06C0
03C0
0380
0300
0600
0C00
1800
FE00
FE00
ENDCHAR
STARTCHAR z
ENCODING 122
SWIDTH 600 0
DWIDTH 15 0
BBX 11 11 2 0
BITMAP
3FE0
3FE0
30C0
3180
0700
0E00
1800
30C0
60C0
FFC0
FFC0
ENDCHAR
STARTCHAR braceleft
ENCODING 123
SWIDTH 600 0
DWIDTH 15 0
BBX 9 20 5 -4
BITMAP
0380
0600
0C00
1800
1800
1800
1800
3000
E000
6000
3000
3000
6000
6000
6000
C000
C000
C000
6000
3800
ENDCHAR
STARTCHAR bar
ENCODING 124
SWIDTH 600 0
DWIDTH 15 0
BBX 7 17 5 -2
BITMAP
06
06
0C
0C
0C
18
18
18
30
30
30
60
60
60
C0
C0
C0
ENDCHAR
STARTCHAR braceright
ENCODING 125
SWIDTH 600 0
DWIDTH 15 0
BBX 10 20 2 -4
BITMAP
0600
0300
0180
0180
0180
0300
0300
0300
0180
01C0
0300
0600
0C00
0C00
0C00
0C00
1800
1800
3000
E000
ENDCHAR
STARTCHAR asciitilde
ENCODING 126
SWIDTH 600 0
DWIDTH 15 0
BBX 14 4 2 5
BITMAP
1E0C
3F18
67F0
C3E0
ENDCHAR
STARTCHAR space
ENCODING 160
SWIDTH 600 0
DWIDTH 15 0
BBX 1 1 0 0
BITMAP
00
ENDCHAR
STARTCHAR exclamdown
ENCODING 161
SWIDTH 600 0
DWIDTH 15 0
BBX 6 16 3 -5
BITMAP
0C
0C
00
00
18
18
18
38
38
78
70
70
F0
F0
E0
60
ENDCHAR
STARTCHAR cent
ENCODING 162
SWIDTH 600 0
DWIDTH 15 0
BBX 11 16 3 0
BITMAP
0600
0600
0600
1F60
3FE0
71C0
60C0
C000
C000
C000
E180
7F80
3E00
1800
1800
1800
ENDCHAR
STARTCHAR sterling
ENCODING 163
SWIDTH 600 0
DWIDTH 15 0
BBX 13 15 1 0
BITMAP
01F0
03F8
0718
0600
0C00
0C00
0C00
7FC0
7FC0
0C00
1C00
3800
7030
FFF0
FFE0
ENDCHAR
STARTCHAR currency
ENCODING 164
SWIDTH 600 0
DWIDTH 15 0
BBX 13 11 2 2
BITMAP
1818
1FF8
1FF0
3870
3030
6030
6070
70E0
7FC0
FFC0
C0C0
ENDCHAR
STARTCHAR yen
ENCODING 165
SWIDTH 600 0
DWIDTH 15 0
BBX 13 15 3 0
BITMAP
7CF8
7CF8
3870
38E0
19C0
1B80
0F00
0E00
7F80
0C00
7F80
1800
1800
FF00
FF00
ENDCHAR
STARTCHAR brokenbar
ENCODING 166
SWIDTH 600 0
DWIDTH 15 0
BBX 7 18 5 -2
BITMAP
06
06
06
0C
0C
0C
18
18
00
00
30
30
60
60
60
C0
C0
C0
ENDCHAR
STARTCHAR section
ENCODING 167
SWIDTH 600 0
DWIDTH 15 0
BBX 15 18 1 -2
BITMAP
01FE
03FE
070C
060C
0F00
1F80
31C0
30E0
3870
1C38
0E18
0738
03F0
01E0
60C0
61C0
FF80
FF00
ENDCHAR
STARTCHAR dieresis
ENCODING 168
SWIDTH 600 0
DWIDTH 15 0
BBX 7 3 6 12
BITMAP
C6
C6
C6
ENDCHAR
STARTCHAR copyright
ENCODING 169
SWIDTH 600 0
DWIDTH 15 0
BBX 15 14 1 1
BITMAP
03E0
0FF8
3C1C
33CC
6FE6
6C66
D806
D806
D8CC
CFCC
6718
7078
3FE0
0F80
ENDCHAR
STARTCHAR ordfeminine
ENCODING 170
SWIDTH 600 0
DWIDTH 15 0
BBX 9 11 4 4
BITMAP
0F00
1980
0180
1F80
3300
6300
6780
3D80
0000
FF00
FF00
ENDCHAR
STARTCHAR guillemotleft
ENCODING 171
SWIDTH 600 0
DWIDTH 15 0
BBX 16 9 1 1
BITMAP
0183
070E
1C38
70E0
E380
6180
30C0
1860
0C30
ENDCHAR
STARTCHAR logicalnot
ENCODING 172
SWIDTH 600 0
DWIDTH 15 0
BBX 12 6 2 4
BITMAP
FFF0
FFF0
0060
0060
00C0
00C0
ENDCHAR
STARTCHAR hyphen
ENCODING 173
SWIDTH 600 0
DWIDTH 15 0
BBX 12 2 3 6
BITMAP
7FF0
FFE0
ENDCHAR
STARTCHAR registered
ENCODING 174
SWIDTH 600 0
DWIDTH 15 0
BBX 15 14 1 1
BITMAP
03E0
0FF8
3C1C
37CC
67E6
6666
C6C6
CF86
CFCC
CCCC
6CD8
7078
3FE0
0F80
ENDCHAR
STARTCHAR macron
ENCODING 175
SWIDTH 600 0
DWIDTH 15 0
BBX 7 2 7 12
BITMAP
FE
FE
ENDCHAR
STARTCHAR degree
ENCODING 176
SWIDTH 600 0
DWIDTH 15 0
BBX 8 7 5 9
BITMAP
1E
63
C1
81
83
C6
78
ENDCHAR
STARTCHAR plusminus
ENCODING 177
SWIDTH 600 0
DWIDTH 15 0
BBX 15 14 0 0
BITMAP
0060
0060
00C0
00C0
3FFE
3FFE
0180
0180
0300
0300
0000
0000
FFF8
FFF8
ENDCHAR
STARTCHAR twosuperior
ENCODING 178
SWIDTH 600 0
DWIDTH 15 0
BBX 8 9 5 7
BITMAP
1E
73
63
06
0C
18
30
62
FE
ENDCHAR
STARTCHAR threesuperior
ENCODING 179
SWIDTH 600 0
DWIDTH 15 0
BBX 8 9 4 7
BITMAP
1E
73
63
06
1C
06
C6
CC
78
ENDCHAR
STARTCHAR acute
ENCODING 180
SWIDTH 600 0
DWIDTH 15 0
BBX 6 4 8 11
BITMAP
1C
38
70
E0
ENDCHAR
STARTCHAR mu
ENCODING 181
SWIDTH 600 0
DWIDTH 15 0
BBX 14 16 0 -5
BITMAP
3C3C
3C3C
0C0C
180C
1818
1818
3018
3030
3870
7FFC
7FBC
6000
E000
C000
C000
C000
ENDCHAR
STARTCHAR paragraph
ENCODING 182
SWIDTH 600 0
DWIDTH 15 0
BBX 15 18 2 -2
BITMAP
07FE
1FFE
39B0
71B0
71B0
7360
7360
3B60
0F60
06C0
06C0
06C0
06C0
0D80
0D80
0D80
FFC0
FFC0
ENDCHAR
STARTCHAR periodcentered
ENCODING 183
SWIDTH 600 0
DWIDTH 15 0
BBX 4 4 6 5
BITMAP
70
F0
F0
E0
ENDCHAR
STARTCHAR cedilla
ENCODING 184
SWIDTH 600 0
DWIDTH 15 0
BBX 5 6 3 -5
BITMAP
18
30
78
18
F8
70
ENDCHAR
STARTCHAR onesuperior
ENCODING 185
SWIDTH 600 0
DWIDTH 15 0
BBX 8 9 4 7
BITMAP
06
3E
0C
0C
0C
18
18
18
FF
ENDCHAR
STARTCHAR ordmasculine
ENCODING 186
SWIDTH 600 0
DWIDTH 15 0
BBX 10 11 4 4
BITMAP
0F00
3F80
30C0
60C0
60C0
6180
3F80
1E00
0000
FF00
FF00
ENDCHAR
STARTCHAR guillemotright
ENCODING 187
SWIDTH 600 0
DWIDTH 15 0
BBX 16 9 0 1
BITMAP
0C30
0618
030C
0186
00C3
070E
1C38
70E0
C180
ENDCHAR
STARTCHAR onequarter
ENCODING 188
SWIDTH 600 0
DWIDTH 15 0
BBX 15 16 0 0
BITMAP
0600
3E00
0C00
0C06
0C0C
1818
1830
1866
FFCE
0196
0324
064C
0C8C
18FE
0018
003C
ENDCHAR
STARTCHAR onehalf
ENCODING 189
SWIDTH 600 0
DWIDTH 15 0
BBX 16 16 0 0
BITMAP
0600
3E00
0C00
0C06
0C0C
1818
1830
187E
FFF3
01A3
0306
060C
0C18
1830
0062
00FE
ENDCHAR
STARTCHAR threequarters
ENCODING 190
SWIDTH 600 0
DWIDTH 15 0
BBX 14 16 1 0
BITMAP
1E00
7300
6300
060C
1C18
0630
C660
CCCC
799C
032C
0648
0C98
1918
31FC
0030
0078
ENDCHAR
STARTCHAR questiondown
ENCODING 191
SWIDTH 600 0
DWIDTH 15 0
BBX 10 15 1 -4
BITMAP
0180
0180
0000
0000
0300
0300
0700
0E00
3C00
7000
E0C0
C0C0
E1C0
7F80
3F00
ENDCHAR
STARTCHAR Agrave
ENCODING 192
SWIDTH 600 0
DWIDTH 15 0
BBX 14 20 0 0
BITMAP
0E00
0700
0380
01C0
0000
07E0
07E0
00E0
01E0
01B0
0330
0630
0630
0C30
1FF8
1FF8
3018
3018
FCFC
FCFC
ENDCHAR
STARTCHAR Aacute
ENCODING 193
SWIDTH 600 0
DWIDTH 15 0
BBX 14 20 0 0
BITMAP
001C
0038
0070
00E0
0000
07E0
07E0
00E0
01E0
01B0
0330
0630
0630
0C30
1FF8
1FF8
3018
3018
FCFC
FCFC
ENDCHAR
STARTCHAR Acircumflex
ENCODING 194
SWIDTH 600 0
DWIDTH 15 0
BBX 14 20 0 0
BITMAP
00E0
01F0
03B8
071C
0000
07E0
07E0
00E0
01E0
01B0
0330
0630
0630
0C30
1FF8
1FF8
3018
3018
FCFC
FCFC
ENDCHAR
STARTCHAR Atilde
ENCODING 195
SWIDTH 600 0
DWIDTH 15 0
BBX 14 19 0 0
BITMAP
01CC
03F8
0670
0000
07E0
07E0
00E0
01E0
01B0
0330
0630
0630
0C30
1FF8
1FF8
3018
3018
FCFC
FCFC
ENDCHAR
STARTCHAR Adieresis
ENCODING 196
SWIDTH 600 0
DWIDTH 15 0
BBX 14 19 0 0
BITMAP
0318
0318
0318
0000
07E0
07E0
00E0
01E0
01B0
0330
0630
0630
0C30
1FF8
1FF8
3018
3018
FCFC
FCFC
ENDCHAR
STARTCHAR Aring
ENCODING 197
SWIDTH 600 0
DWIDTH 15 0
BBX 14 19 0 0
BITMAP
00F0
0198
0198
00F0
07E0
07E0
00E0
01E0
01B0
0330
0630
0630
0C30
1FF8
1FF8
3018
3018
FCFC
FCFC
ENDCHAR
STARTCHAR AE
ENCODING 198
SWIDTH 600 0
DWIDTH 15 0
BBX 19 15 -1 0
BITMAP
03FFE0
03FFE0
00D8C0
0198C0
01B000
033000
063300
067F00
0C7E00
1FE600
1FC000
30C300
30C300
FBFE00
FBFE00
ENDCHAR
STARTCHAR Ccedilla
ENCODING 199
SWIDTH 600 0
DWIDTH 15 0
BBX 15 20 1 -5
BITMAP
03F6
0FFE
1E0E
380C
700C
6000
E000
C000
C000
C000
C000
E030
7070
7FE0
1F80
0600
0F00
0300
1F00
0E00
ENDCHAR
STARTCHAR Egrave
ENCODING 200
SWIDTH 600 0
DWIDTH 15 0
BBX 15 20 0 0
BITMAP
0700
0380
01C0
00E0
0000
1FFE
1FFE
0606
060C
0C0C
0C60
0C60
0FE0
1FC0
18C0
18CC
300C
3018
FFF8
FFF8
ENDCHAR
STARTCHAR Eacute
ENCODING 201
SWIDTH 600 0
DWIDTH 15 0
BBX 15 20 0 0
BITMAP
001C
0038
0070
00E0
0000
1FFE
1FFE
0606
060C
0C0C
0C60
0C60
0FE0
1FC0
18C0
18CC
300C
3018
FFF8
FFF8
ENDCHAR
STARTCHAR Ecircumflex
ENCODING 202
SWIDTH 600 0
DWIDTH 15 0
BBX 15 20 0 0
BITMAP
0070
00F8
01DC
038E
0000
1FFE
1FFE
0606
060C
0C0C
0C60
0C60
0FE0
1FC0
18C0
18CC
300C
3018
FFF8
FFF8
ENDCHAR
STARTCHAR Edieresis
ENCODING 203
SWIDTH 600 0
DWIDTH 15 0
BBX 15 19 0 0
BITMAP
0318
0318
0318
0000
1FFE
1FFE
0606
060C
0C0C
0C60
0C60
0FE0
1FC0
18C0
18CC
300C
3018
FFF8
FFF8
ENDCHAR
STARTCHAR Igrave
ENCODING 204
SWIDTH 600 0
DWIDTH 15 0
BBX 13 20 2 0
BITMAP
0E00
0700
0380
01C0
0000
1FF8
1FF8
0180
0180
0300
0300
0300
0600
0600
0600
0C00
0C00
0C00
FFC0
FFC0
ENDCHAR
STARTCHAR Iacute
ENCODING 205
SWIDTH 600 0
DWIDTH 15 0
BBX 13 20 2 0
BITMAP
0038
0070
00E0
01C0
0000
1FF8
1FF8
0180
0180
0300
0300
0300
0600
0600
0600
0C00
0C00
0C00
FFC0
FFC0
ENDCHAR
STARTCHAR Icircumflex
ENCODING 206
SWIDTH 600 0
DWIDTH 15 0
BBX 13 20 2 0
BITMAP
01C0
03E0
0770
0E38
0000
1FF8
1FF8
0180
0180
0300
0300
0300
0600
0600
0600
0C00
0C00
0C00
FFC0
FFC0
ENDCHAR
STARTCHAR Idieresis
ENCODING 207
SWIDTH 600 0
DWIDTH 15 0
BBX 13 19 2 0
BITMAP
0630
0630
0630
0000
1FF8
1FF8
0180
0180
0300
0300
0300
0600
0600
0600
0C00
0C00
0C00
FFC0
FFC0
ENDCHAR
STARTCHAR Eth
ENCODING 208
SWIDTH 600 0
DWIDTH 15 0
BBX 16 15 0 0
BITMAP
1FFC
1FFE
0607
0603
0C03
0C03
3F03
3F03
1806
1806
300C
300C
3038
FFF0
FFE0
ENDCHAR
STARTCHAR Ntilde
ENCODING 209
SWIDTH 600 0
DWIDTH 15 0
BBX 16 19 0 0
BITMAP
00E6
01FC
0338
0000
1E1F
1E1F
0E06
0E06
1B0C
1B0C
1B0C
198C
3198
3198
30D8
60D8
60F0
F870
F870
ENDCHAR
STARTCHAR Ograve
ENCODING 210
SWIDTH 600 0
DWIDTH 15 0
BBX 14 20 1 0
BITMAP
0E00
0700
0380
01C0
0000
03E0
0FF8
1C38
381C
700C
600C
E00C
C00C
C01C
C018
C038
E070
71E0
7FC0
1F00
ENDCHAR
STARTCHAR Oacute
ENCODING 211
SWIDTH 600 0
DWIDTH 15 0
BBX 14 20 1 0
BITMAP
001C
0038
0070
00E0
0000
03E0
0FF8
1C38
381C
700C
600C
E00C
C00C
C01C
C018
C038
E070
71E0
7FC0
1F00
ENDCHAR
STARTCHAR Ocircumflex
ENCODING 212
SWIDTH 600 0
DWIDTH 15 0
BBX 14 20 1 0
BITMAP
01C0
03E0
0770
0E38
0000
03E0
0FF8
1C38
381C
700C
600C
E00C
C00C
C01C
C018
C038
E070
71E0
7FC0
1F00
ENDCHAR
STARTCHAR Otilde
ENCODING 213
SWIDTH 600 0
DWIDTH 15 0
BBX 14 19 1 0
BITMAP
01CC
03F8
0670
0000
03E0
0FF8
1C38
381C
700C
600C
E00C
C00C
C01C
C018
C038
E070
71E0
7FC0
1F00
ENDCHAR
STARTCHAR Odieresis
ENCODING 214
SWIDTH 600 0
DWIDTH 15 0
BBX 14 19 1 0
BITMAP
0630
0630
0630
0000
03E0
0FF8
1C38
381C
700C
600C
E00C
C00C
C01C
C018
C038
E070
71E0
7FC0
1F00
ENDCHAR
STARTCHAR multiply
ENCODING 215
SWIDTH 600 0
DWIDTH 15 0
BBX 13 12 1 1
BITMAP
3018
3838
1C70
0EE0
07C0
0780
0F00
1F80
39C0
70E0
E070
C030
ENDCHAR
STARTCHAR Oslash
ENCODING 216
SWIDTH 600 0
DWIDTH 15 0
BBX 16 17 1 -1
BITMAP
0003
01F6
07FC
0E1C
1C36
3866
30C6
7186
6186
630E
660C
6C1C
7838
38F0
3FE0
6F80
C000
ENDCHAR
STARTCHAR Ugrave
ENCODING 217
SWIDTH 600 0
DWIDTH 15 0
BBX 14 20 3 0
BITMAP
1C00
0E00
0700
0380
0000
7C7C
7C7C
3018
3018
6030
6030
6030
6030
C060
C060
C060
C0C0
E1C0
7F80
3F00
ENDCHAR
STARTCHAR Uacute
ENCODING 218
SWIDTH 600 0
DWIDTH 15 0
BBX 14 20 3 0
BITMAP
0070
00E0
01C0
0380
0000
7C7C
7C7C
3018
3018
6030
6030
6030
6030
C060
C060
C060
C0C0
E1C0
7F80
3F00
ENDCHAR
STARTCHAR Ucircumflex
ENCODING 219
SWIDTH 600 0
DWIDTH 15 0
BBX 14 20 3 0
BITMAP
01C0
03E0
0770
0E38
0000
7C7C
7C7C
3018
3018
6030
6030
6030
6030
C060
C060
C060
C0C0
E1C0
7F80
3F00
ENDCHAR
STARTCHAR Udieresis
ENCODING 220
SWIDTH 600 0
DWIDTH 15 0
BBX 14 19 3 0
BITMAP
0C60
0C60
0C60
0000
7C7C
7C7C
3018
3018
6030
6030
6030
6030
C060
C060
C060
C0C0
E1C0
7F80
3F00
ENDCHAR
STARTCHAR Yacute
ENCODING 221
SWIDTH 600 0
DWIDTH 15 0
BBX 14 20 3 0
BITMAP
0070
00E0
01C0
0380
0000
FCFC
FCFC
7038
3070
38E0
19C0
1B80
0F00
0E00
0C00
0C00
1800
1800
FF00
FF00
ENDCHAR
STARTCHAR Thorn
ENCODING 222
SWIDTH 600 0
DWIDTH 15 0
BBX 16 15 0 0
BITMAP
1F80
1F80
0600
07F8
0FFE
0C07
0C03
1803
1806
1FFE
3FF8
3000
3000
FC00
FC00
ENDCHAR
STARTCHAR germandbls
ENCODING 223
SWIDTH 600 0
DWIDTH 15 0
BBX 13 16 0 0
BITMAP
00F0
03F8
0718
0618
0618
0C30
0DE0
0DF0
0C38
1818
1818
1818
3018
3330
FBF0
F9E0
ENDCHAR
STARTCHAR agrave
ENCODING 224
SWIDTH 600 0
DWIDTH 15 0
BBX 12 16 1 0
BITMAP
1C00
0E00
0700
0380
0000
0FC0
1FE0
1870
0030
0FF0
3FE0
7060
C0C0
C1C0
FFF0
7EF0
ENDCHAR
STARTCHAR aacute
ENCODING 225
SWIDTH 600 0
DWIDTH 15 0
BBX 12 16 1 0
BITMAP
0070
00E0
01C0
0380
0000
0FC0
1FE0
1870
0030
0FF0
3FE0
7060
C0C0
C1C0
FFF0
7EF0
ENDCHAR
STARTCHAR acircumflex
ENCODING 226
SWIDTH 600 0
DWIDTH 15 0
BBX 12 16 1 0
BITMAP
01C0
03E0
0770
0E30
0000
0FC0
1FE0
1870
0030
0FF0
3FE0
7060
C0C0
C1C0
FFF0
7EF0
ENDCHAR
STARTCHAR atilde
ENCODING 227
SWIDTH 600 0
DWIDTH 15 0
BBX 13 15 1 0
BITMAP
0398
07F0
0CE0
0000
0FC0
1FE0
1870
0030
0FF0
3FE0
7060
C0C0
C1C0
FFF0
7EF0
ENDCHAR
STARTCHAR adieresis
ENCODING 228
SWIDTH 600 0
DWIDTH 15 0
BBX 12 15 1 0
BITMAP
0C60
0C60
0C60
0000
0FC0
1FE0
1870
0030
0FF0
3FE0
7060
C0C0
C1C0
FFF0
7EF0
ENDCHAR
STARTCHAR aring
ENCODING 229
SWIDTH 600 0
DWIDTH 15 0
BBX 12 16 1 0
BITMAP
01E0
0330
0330
01E0
0000
0FC0
1FE0
1870
0030
0FF0
3FE0
7060
C0C0
C1C0
FFF0
7EF0
ENDCHAR
STARTCHAR ae
ENCODING 230
SWIDTH 600 0
DWIDTH 15 0
BBX 15 11 0 0
BITMAP
1F78
3FFC
31CE
0186
1F86
7FFE
63FE
C300
C78C
FFFC
7CF0
ENDCHAR
STARTCHAR ccedilla
ENCODING 231
SWIDTH 600 0
DWIDTH 15 0
BBX 12 16 2 -5
BITMAP
0FB0
3FF0
3060
6060
6060
C000
C000
C000
E060
7FE0
3F80
0600
0F00
0300
1F00
0E00
ENDCHAR
STARTCHAR egrave
ENCODING 232
SWIDTH 600 0
DWIDTH 15 0
BBX 12 16 2 0
BITMAP
3800
1C00
0E00
0700
0000
0FC0
3FE0
7070
6030
C030
FFF0
FFF0
C000
E060
7FE0
3F80
ENDCHAR
STARTCHAR eacute
ENCODING 233
SWIDTH 600 0
DWIDTH 15 0
BBX 12 16 2 0
BITMAP
00E0
01C0
0380
0700
0000
0FC0
3FE0
7070
6030
C030
FFF0
FFF0
C000
E060
7FE0
3F80
ENDCHAR
STARTCHAR ecircumflex
ENCODING 234
SWIDTH 600 0
DWIDTH 15 0
BBX 12 16 2 0
BITMAP
0380
07C0
0EE0
1C60
0000
0FC0
3FE0
7070
6030
C030
FFF0
FFF0
C000
E060
7FE0
3F80
ENDCHAR
STARTCHAR edieresis
ENCODING 235
SWIDTH 600 0
DWIDTH 15 0
BBX 12 15 2 0
BITMAP
18C0
18C0
18C0
0000
0FC0
3FE0
7070
6030
C030
FFF0
FFF0
C000
E060
7FE0
3F80
ENDCHAR
STARTCHAR igrave
ENCODING 236
SWIDTH 600 0
DWIDTH 15 0
BBX 10 16 2 0
BITMAP
3800
1C00
0E00
0700
0000
1F00
1F00
0300
0300
0600
0600
0600
0C00
0C00
FFC0
FFC0
ENDCHAR
STARTCHAR iacute
ENCODING 237
SWIDTH 600 0
DWIDTH 15 0
BBX 11 16 2 0
BITMAP
00E0
01C0
0380
0700
0000
1F00
1F00
0300
0300
0600
0600
0600
0C00
0C00
FFC0
FFC0
ENDCHAR
STARTCHAR icircumflex
ENCODING 238
SWIDTH 600 0
DWIDTH 15 0
BBX 11 16 2 0
BITMAP
0380
07C0
0EE0
1C60
0000
1F00
1F00
0300
0300
0600
0600
0600
0C00
0C00
FFC0
FFC0
ENDCHAR
STARTCHAR idieresis
ENCODING 239
SWIDTH 600 0
DWIDTH 15 0
BBX 10 15 2 0
BITMAP
0CC0
0CC0
0CC0
0000
1F00
1F00
0300
0300
0600
0600
0600
0C00
0C00
FFC0
FFC0
ENDCHAR
STARTCHAR eth
ENCODING 240
SWIDTH 600 0
DWIDTH 15 0
BBX 12 17 2 0
BITMAP
3C70
3FF0
0780
3FC0
38E0
0060
0FF0
3FF0
7070
6030
C030
C030
C030
C060
E0E0
7FC0
3F00
ENDCHAR
STARTCHAR ntilde
ENCODING 241
SWIDTH 600 0
DWIDTH 15 0
BBX 14 15 0 0
BITMAP
01CC
03F8
0670
0000
3CF0
3DF8
0F1C
0E0C
180C
1818
1818
3030
3030
FCFC
FCFC
ENDCHAR
STARTCHAR ograve
ENCODING 242
SWIDTH 600 0
DWIDTH 15 0
BBX 12 16 2 0
BITMAP
3800
1C00
0E00
0700
0000
0FC0
3FE0
7070
6030
C030
C030
C030
C060
E0E0
7FC0
3F00
ENDCHAR
STARTCHAR oacute
ENCODING 243
SWIDTH 600 0
DWIDTH 15 0
BBX 12 16 2 0
BITMAP
00E0
01C0
0380
0700
0000
0FC0
3FE0
7070
6030
C030
C030
C030
C060
E0E0
7FC0
3F00
ENDCHAR
STARTCHAR ocircumflex
ENCODING 244
SWIDTH 600 0
DWIDTH 15 0
BBX 12 16 2 0
BITMAP
0380
07C0
0EE0
1C60
0000
0FC0
3FE0
7070
6030
C030
C030
C030
C060
E0E0
7FC0
3F00
ENDCHAR
STARTCHAR otilde
ENCODING 245
SWIDTH 600 0
DWIDTH 15 0
BBX 12 15 2 0
BITMAP
0730
0FE0
19C0
0000
0FC0
3FE0
7070
6030
C030
C030
C030
C060
E0E0
7FC0
3F00
ENDCHAR
STARTCHAR odieresis
ENCODING 246
SWIDTH 600 0
DWIDTH 15 0
BBX 12 15 2 0
BITMAP
0C60
0C60
0C60
0000
0FC0
3FE0
7070
6030
C030
C030
C030
C060
E0E0
7FC0
3F00
ENDCHAR
STARTCHAR divide
ENCODING 247
SWIDTH 600 0
DWIDTH 15 0
BBX 12 12 2 1
BITMAP
0380
0380
0380
0000
0000
FFF0
FFF0
0000
0000
1C00
1C00
1C00
ENDCHAR
STARTCHAR oslash
ENCODING 248
SWIDTH 600 0
DWIDTH 15 0
BBX 15 14 0 -2
BITMAP
0006
03FC
0FF8
1C3C
186C
30CC
318C
330C
3618
3C38
1FF0
3FC0
6000
C000
ENDCHAR
STARTCHAR ugrave
ENCODING 249
SWIDTH 600 0
DWIDTH 15 0
BBX 12 16 2 0
BITMAP
3800
1C00
0E00
0700
0000
F0F0
F0F0
3030
6030
6060
6060
C060
C0C0
E1C0
7FF0
3EF0
ENDCHAR
STARTCHAR uacute
ENCODING 250
SWIDTH 600 0
DWIDTH 15 0
BBX 12 16 2 0
BITMAP
01C0
0380
0700
0E00
0000
F0F0
F0F0
3030
6030
6060
6060
C060
C0C0
E1C0
7FF0
3EF0
ENDCHAR
STARTCHAR ucircumflex
ENCODING 251
SWIDTH 600 0
DWIDTH 15 0
BBX 12 16 2 0
BITMAP
0380
07C0
0EE0
1C60
0000
F0F0
F0F0
3030
6030
6060
6060
C060
C0C0
E1C0
7FF0
3EF0
ENDCHAR
STARTCHAR udieresis
ENCODING 252
SWIDTH 600 0
DWIDTH 15 0
BBX 12 15 2 0
BITMAP
0C60
0C60
0C60
0000
F0F0
F0F0
3030
6030
6060
6060
C060
C0C0
E1C0
7FF0
3EF0
ENDCHAR
STARTCHAR yacute
ENCODING 253
SWIDTH 600 0
DWIDTH 15 0
BBX 15 21 0 -5
BITMAP
001C
0038
0070
00E0
0000
1F3E
1F3E
0C0C
0C18
0C38
0630
0660
06C0
03C0
0380
0300
0600
0C00
1800
FE00
FE00
ENDCHAR
STARTCHAR thorn
ENCODING 254
SWIDTH 600 0
DWIDTH 15 0
BBX 15 21 -1 -5
BITMAP
0F00
0F00
0300
0300
0300
06F8
07FC
070E
0606
0C06
0C06
0C06
1C0C
1E1C
1BF8
19E0
3000
3000
3000
FE00
FE00
ENDCHAR
STARTCHAR ydieresis
ENCODING 255
SWIDTH 600 0
DWIDTH 15 0
BBX 15 20 0 -5
BITMAP
0318
0318
0318
0000
1F3E
1F3E
0C0C
0C18
0C38
0630
0660
06C0
03C0
0380
0300
0600
0C00
1800
FE00
FE00
ENDCHAR
STARTCHAR Amacron
ENCODING 256
SWIDTH 600 0
DWIDTH 15 0
BBX 14 18 0 0
BITMAP
0FE0
0FE0
0000
07E0
07E0
00E0
01E0
01B0
0330
0630
0630
0C30
1FF8
1FF8
3018
3018
FCFC
FCFC
ENDCHAR
STARTCHAR amacron
ENCODING 257
SWIDTH 600 0
DWIDTH 15 0
BBX 12 14 1 0
BITMAP
1FC0
1FC0
0000
0FC0
1FE0
1870
0030
0FF0
3FE0
7060
C0C0
C1C0
FFF0
7EF0
ENDCHAR
STARTCHAR Abreve
ENCODING 258
SWIDTH 600 0
DWIDTH 15 0
BBX 14 19 0 0
BITMAP
0C30
0660
03C0
0000
07E0
07E0
00E0
01E0
01B0
0330
0630
0630
0C30
1FF8
1FF8
3018
3018
FCFC
FCFC
ENDCHAR
STARTCHAR abreve
ENCODING 259
SWIDTH 600 0
DWIDTH 15 0
BBX 12 15 1 0
BITMAP
1860
0CC0
0780
0000
0FC0
1FE0
1870
0030
0FF0
3FE0
7060
C0C0
C1C0
FFF0
7EF0
ENDCHAR
STARTCHAR Aogonek
ENCODING 260
SWIDTH 600 0
DWIDTH 15 0
BBX 14 19 0 -4
BITMAP
07E0
07E0
00E0
01E0
01B0
0330
0630
0630
0C30
1FF8
1FF8
3018
3018
FCFC
FCFC
0300
0600
06C0
0380
ENDCHAR
STARTCHAR aogonek
ENCODING 261
SWIDTH 600 0
DWIDTH 15 0
BBX 12 15 1 -4
BITMAP
0FC0
1FE0
1870
0030
0FF0
3FE0
7060
C0C0
C1C0
FFF0
7EF0
0600
0C00
0D80
0700
ENDCHAR
STARTCHAR Cacute
ENCODING 262
SWIDTH 600 0
DWIDTH 15 0
BBX 15 20 1 0
BITMAP
0070
00E0
01C0
0380
0000
03F6
0FFE
1E0E
380C
700C
6000
E000
C000
C000
C000
C000
E030
7070
7FE0
1F80
ENDCHAR
STARTCHAR cacute
ENCODING 263
SWIDTH 600 0
DWIDTH 15 0
BBX 12 16 2 0
BITMAP
01C0
0380
0700
0E00
0000
0FB0
3FF0
7060
6060
C060
C000
C000
C000
E060
7FE0
3F80
ENDCHAR
STARTCHAR Ccircumflex
ENCODING 264
SWIDTH 600 0
DWIDTH 15 0
BBX 15 19 1 0
BITMAP
01C0
0360
0630
0000
03F6
0FFE
1E0E
380C
700C
6000
E000
C000
C000
C000
C000
E030
7070
7FE0
1F80
ENDCHAR
STARTCHAR ccircumflex
ENCODING 265
SWIDTH 600 0
DWIDTH 15 0
BBX 12 15 2 0
BITMAP
0700
0D80
18C0
0000
0FB0
3FF0
7060
6060
C060
C000
C000
C000
E060
7FE0
3F80
ENDCHAR
STARTCHAR Cdotaccent
ENCODING 266
SWIDTH 600 0
DWIDTH 15 0
BBX 15 18 1 0
BITMAP
00C0
00C0
0000
03F6
0FFE
1E0E
380C
700C
6000
E000
C000
C000
C000
C000
E030
7070
7FE0
1F80
ENDCHAR
STARTCHAR cdotaccent
ENCODING 267
SWIDTH 600 0
DWIDTH 15 0
BBX 12 14 2 0
BITMAP
0300
0300
0000
0FB0
3FF0
7060
6060
C060
C000
C000
C000
E060
7FE0
3F80
ENDCHAR
STARTCHAR Ccaron
ENCODING 268
SWIDTH 600 0
DWIDTH 15 0
BBX 15 19 1 0
BITMAP
0630
0360
01C0
0000
03F6
0FFE
1E0E
380C
700C
6000
E000
C000
C000
C000
C000
E030
7070
7FE0
1F80
ENDCHAR
STARTCHAR ccaron
ENCODING 269
SWIDTH 600 0
DWIDTH 15 0
BBX 12 15 2 0
BITMAP
18C0
0D80
0700
0000
0FB0
3FF0
7060
6060
C060
C000
C000
C000
E060
7FE0
3F80
ENDCHAR
STARTCHAR Dcaron
ENCODING 270
SWIDTH 600 0
DWIDTH 15 0
BBX 16 19 0 0
BITMAP
0630
0360
01C0
0000
1FFC
1FFE
0607
0603
0C03
0C03
0C03
1803
1806
1806
300C
300C
3038
FFF0
FFE0
ENDCHAR
STARTCHAR dcaron
ENCODING 271
SWIDTH 600 0
DWIDTH 15 0
BBX 13 20 2 0
BITMAP
0318
01B0
00E0
0000
0078
0078
0018
0018
0030
0F30
3FB0
70F0
6060
C060
C060
C0C0
C0C0
E1C0
7FF0
3EF0
ENDCHAR
STARTCHAR Dcroat
ENCODING 272
SWIDTH 600 0
DWIDTH 15 0
BBX 16 15 0 0
BITMAP
1FFC
1FFE
0607
0603
0C03
0C03
3F03
3F03
1806
1806
300C
300C
3038
FFF0
FFE0
ENDCHAR
STARTCHAR dcroat
ENCODING 273
SWIDTH 600 0
DWIDTH 15 0
BBX 16 16 2 0
BITMAP
0078
0078
0018
1FFF
1FFF
0F30
3FB0
70F0
6060
C060
C060
C0C0
C0C0
E1C0
7FF0
3EF0
ENDCHAR
STARTCHAR Emacron
ENCODING 274
SWIDTH 600 0
DWIDTH 15 0
BBX 15 18 0 0
BITMAP
07F0
07F0
0000
1FFE
1FFE
0606
060C
0C6C
0C60
0FE0
0FC0
18C0
18C0
180C
300C
3018
FFF8
FFF8
ENDCHAR
STARTCHAR emacron
ENCODING 275
SWIDTH 600 0
DWIDTH 15 0
BBX 11 14 2 0
BITMAP
3F80
3F80
0000
0F80
3FC0
70E0
6060
C060
FFE0
FFE0
C000
E0C0
7FC0
3F00
ENDCHAR
STARTCHAR Ebreve
ENCODING 276
SWIDTH 600 0
DWIDTH 15 0
BBX 15 19 0 0
BITMAP
0618
0330
01E0
0000
1FFE
1FFE
0606
060C
0C6C
0C60
0FE0
0FC0
18C0
18C0
180C
300C
3018
FFF8
FFF8
ENDCHAR
STARTCHAR ebreve
ENCODING 277
SWIDTH 600 0
DWIDTH 15 0
BBX 11 15 2 0
BITMAP
30C0
1980
0F00
0000
0F80
3FC0
70E0
6060
C060
FFE0
FFE0
C000
E0C0
7FC0
3F00
ENDCHAR
STARTCHAR Edotaccent
ENCODING 278
SWIDTH 600 0
DWIDTH 15 0
BBX 15 18 0 0
BITMAP
00C0
00C0
0000
1FFE
1FFE
0606
060C
0C6C
0C60
0FE0
0FC0
18C0
18C0
180C
300C
3018
FFF8
FFF8
ENDCHAR
STARTCHAR edotaccent
ENCODING 279
SWIDTH 600 0
DWIDTH 15 0
BBX 11 14 2 0
BITMAP
0600
0600
0000
0F80
3FC0
70E0
6060
C060
FFE0
FFE0
C000
E0C0
7FC0
3F00
ENDCHAR
STARTCHAR Eogonek
ENCODING 280
SWIDTH 600 0
DWIDTH 15 0
BBX 15 19 0 -4
BITMAP
1FFE
1FFE
0606
060C
0C6C
0C60
0FE0
0FC0
18C0
18C0
180C
300C
3018
FFF8
FFF8
0300
0600
06C0
0380
ENDCHAR
STARTCHAR eogonek
ENCODING 281
SWIDTH 600 0
DWIDTH 15 0
BBX 11 15 2 -4
BITMAP
0F80
3FC0
70E0
6060
C060
FFE0
FFE0
C000
E0C0
7FC0
3F00
0C00
1800
1B00
0E00
ENDCHAR
STARTCHAR Ecaron
ENCODING 282
SWIDTH 600 0
DWIDTH 15 0
BBX 15 19 0 0
BITMAP
0630
0360
01C0
0000
1FFE
1FFE
0606
060C
0C6C
0C60
0FE0
0FC0
18C0
18C0
180C
300C
3018
FFF8
FFF8
ENDCHAR
STARTCHAR ecaron
ENCODING 283
SWIDTH 600 0
DWIDTH 15 0
BBX 11 15 2 0
BITMAP
3180
1B00
0E00
0000
0F80
3FC0
70E0
6060
C060
FFE0
FFE0
C000
E0C0
7FC0
3F00
ENDCHAR
STARTCHAR Gcircumflex
ENCODING 284
SWIDTH 600 0
DWIDTH 15 0
BBX 15 19 1 0
BITMAP
01C0
0360
0630
0000
03F6
0FFE
1E0E
380C
700C
6000
E000
C000
C1F8
C1F8
C018
E030
7070
7FE0
1FC0
ENDCHAR
STARTCHAR gcircumflex
ENCODING 285
SWIDTH 600 0
DWIDTH 15 0
BBX 14 20 2 -5
BITMAP
0380
06C0
0C60
0000
0FBC
3FFC
70F0
6060
C060
C060
C060
C0C0
E1C0
7FC0
3EC0
0180
0180
0380
FF00
FE00
ENDCHAR
STARTCHAR Gbreve
ENCODING 286
SWIDTH 600 0
DWIDTH 15 0
BBX 15 19 1 0
BITMAP
0618
0330
01E0
0000
03F6
0FFE
1E0E
380C
700C
6000
E000
C000
C1F8
C1F8
C018
E030
7070
7FE0
1FC0
ENDCHAR
STARTCHAR gbreve
ENCODING 287
SWIDTH 600 0
DWIDTH 15 0
BBX 14 20 2 -5
BITMAP
1860
0CC0
0780
0000
0FBC
3FFC
70F0
6060
C060
C060
C060
C0C0
E1C0
7FC0
3EC0
0180
0180
0380
FF00
FE00
ENDCHAR
STARTCHAR Gdotaccent
ENCODING 288
SWIDTH 600 0
DWIDTH 15 0
BBX 15 18 1 0
BITMAP
00C0
00C0
0000
03F6
0FFE
1E0E
380C
700C
6000
E000
C000
C1F8
C1F8
C018
E030
7070
7FE0
1FC0
ENDCHAR
STARTCHAR gdotaccent
ENCODING 289
SWIDTH 600 0
DWIDTH 15 0
BBX 14 19 2 -5
BITMAP
0300
0300
0000
0FBC
3FFC
70F0
6060
C060
C060
C060
C0C0
E1C0
7FC0
3EC0
0180
0180
0380
FF00
FE00
ENDCHAR
STARTCHAR Gcommaaccent
ENCODING 290
SWIDTH 600 0
DWIDTH 15 0
BBX 15 22 1 -7
BITMAP
03F6
0FFE
1E0E
380C
700C
6000
E000
C000
C1F8
C1F8
C018
E030
7070
7FE0
1FC0
0000
0700
0700
0E00
0C00
1800
1000
ENDCHAR
STARTCHAR gcommaaccent
ENCODING 291
SWIDTH 600 0
DWIDTH 15 0
BBX 14 23 2 -5
BITMAP
0700
0700
0300
0180
0180
0080
0000
0FBC
3FFC
70F0
6060
C060
C060
C060
C0C0
E1C0
7FC0
3EC0
0180
0180
0380
FF00
FE00
ENDCHAR
STARTCHAR Hcircumflex
ENCODING 292
SWIDTH 600 0
DWIDTH 15 0
BBX 17 19 0 0
BITMAP
00E000
01B000
031800
000000
1F9F80
1F9F80
060600
060600
0C0C00
0C0C00
0FFC00
0FFC00
181800
181800
181800
303000
303000
FCFC00
FCFC00
ENDCHAR
STARTCHAR hcircumflex
ENCODING 293
SWIDTH 600 0
DWIDTH 15 0
BBX 14 20 0 0
BITMAP
0E00
1B00
3180
0000
1E00
1E00
0600
0600
0600
0DF0
0FF8
0E1C
0C0C
180C
1818
1818
3030
3030
FCFC
FCFC
ENDCHAR
STARTCHAR Hbar
ENCODING 294
SWIDTH 600 0
DWIDTH 15 0
BBX 17 15 0 0
BITMAP
1F9F80
1F9F80
060600
FFFF80
FFFF80
0C0C00
0FFC00
0FFC00
181800
181800
181800
303000
303000
FCFC00
FCFC00
ENDCHAR
STARTCHAR hbar
ENCODING 295
SWIDTH 600 0
DWIDTH 15 0
BBX 16 16 -2 0
BITMAP
0780
0780
0180
FFF8
FFF8
037C
03FE
0387
0303
0603
0606
0606
0C0C
0C0C
3F3F
3F3F
ENDCHAR
STARTCHAR Itilde
ENCODING 296
SWIDTH 600 0
DWIDTH 15 0
BBX 13 19 2 0
BITMAP
0398
07F0
0CE0
0000
1FF8
1FF8
0180
0180
0300
0300
0300
0600
0600
0600
0C00
0C00
0C00
FFC0
FFC0
ENDCHAR
STARTCHAR itilde
ENCODING 297
SWIDTH 600 0
DWIDTH 15 0
BBX 11 15 2 0
BITMAP
0E60
1FC0
3380
0000
1F00
1F00
0300
0300
0600
0600
0600
0C00
0C00
FFC0
FFC0
ENDCHAR
STARTCHAR Imacron
ENCODING 298
SWIDTH 600 0
DWIDTH 15 0
BBX 13 18 2 0
BITMAP
0FE0
0FE0
0000
1FF8
1FF8
0180
0180
0300
0300
0300
0600
0600
0600
0C00
0C00
0C00
FFC0
FFC0
ENDCHAR
STARTCHAR imacron
ENCODING 299
SWIDTH 600 0
DWIDTH 15 0
BBX 10 14 2 0
BITMAP
3F80
3F80
0000
1F00
1F00
0300
0300
0600
0600
0600
0C00
0C00
FFC0
FFC0
ENDCHAR
STARTCHAR Ibreve
ENCODING 300
SWIDTH 600 0
DWIDTH 15 0
BBX 13 19 2 0
BITMAP
0C30
0660
03C0
0000
1FF8
1FF8
0180
0180
0300
0300
0300
0600
0600
0600
0C00
0C00
0C00
FFC0
FFC0
ENDCHAR
STARTCHAR ibreve
ENCODING 301
SWIDTH 600 0
DWIDTH 15 0
BBX 10 15 2 0
BITMAP
30C0
1980
0F00
0000
1F00
1F00
0300
0300
0600
0600
0600
0C00
0C00
FFC0
FFC0
ENDCHAR
STARTCHAR Iogonek
ENCODING 302
SWIDTH 600 0
DWIDTH 15 0
BBX 13 19 2 -4
BITMAP
1FF8
1FF8
0180
0180
0300
0300
0300
0600
0600
0600
0C00
0C00
0C00
FFC0
FFC0
0600
0C00
0D80
0700
ENDCHAR
STARTCHAR iogonek
ENCODING 303
SWIDTH 600 0
DWIDTH 15 0
BBX 10 20 2 -4
BITMAP
01C0
03C0
0380
0000
0000
1F00
1F00
0300
0300
0600
0600
0600
0C00
0C00
FFC0
FFC0
0C00
1800
1B00
0E00
ENDCHAR
STARTCHAR Idotaccent
ENCODING 304
SWIDTH 600 0
DWIDTH 15 0
BBX 13 18 2 0
BITMAP
0180
0180
0000
1FF8
1FF8
0180
0180
0300
0300
0300
0600
0600
0600
0C00
0C00
0C00
FFC0
FFC0
ENDCHAR
STARTCHAR dotlessi
ENCODING 305
SWIDTH 600 0
DWIDTH 15 0
BBX 10 11 2 0
BITMAP
1F00
1F00
0300
0300
0600
0600
0600
0C00
0C00
FFC0
FFC0
ENDCHAR
STARTCHAR IJ
ENCODING 306
SWIDTH 600 0
DWIDTH 15 0
BBX 20 15 2 0
BITMAP
1FFFF0
1FFFF0
018180
018180
030180
030300
030300
060300
060600
060600
0E0600
0C0C00
0E1C00
FFF800
FFF000
ENDCHAR
STARTCHAR ij
ENCODING 307
SWIDTH 600 0
DWIDTH 15 0
BBX 14 21 2 -5
BITMAP
01DC
03FC
03B8
0000
0000
1FF8
1FF8
0318
0318
0630
0630
0630
0C60
0C60
FFE0
FFC0
00C0
00C0
0180
3F80
3F00
ENDCHAR
STARTCHAR Jcircumflex
ENCODING 308
SWIDTH 600 0
DWIDTH 15 0
BBX 16 19 1 0
BITMAP
0070
00D8
018C
0000
03FF
03FF
0018
0018
0018
0030
0030
0030
0060
6060
6060
C0C0
E1C0
7F80
3F00
ENDCHAR
STARTCHAR jcircumflex
ENCODING 309
SWIDTH 600 0
DWIDTH 15 0
BBX 12 20 1 -5
BITMAP
0380
06C0
0C60
0000
1FE0
1FE0
0060
0060
00C0
00C0
00C0
0180
0180
0180
0300
0300
0300
0600
FE00
FC00
ENDCHAR
STARTCHAR Kcommaaccent
ENCODING 310
SWIDTH 600 0
DWIDTH 15 0
BBX 16 22 0 -7
BITMAP
1F9F
1F9F
0618
0630
0C60
0CC0
0F80
1F80
19C0
18C0
30E0
3060
3070
FC3C
FC3C
0000
0380
0380
0700
0600
0C00
0800
ENDCHAR
STARTCHAR kcommaaccent
ENCODING 311
SWIDTH 600 0
DWIDTH 15 0
BBX 13 23 1 -7
BITMAP
1E00
1E00
0600
0600
0C00
0C78
0C78
18E0
19C0
1F80
1F00
3380
31C0
30E0
F078
F078
0000
0700
0700
0E00
0C00
1800
1000
ENDCHAR
STARTCHAR kgreenlandic
ENCODING 312
SWIDTH 600 0
DWIDTH 15 0
BBX 13 11 1 0
BITMAP
0C78
0C78
18E0
19C0
1F80
1F00
3380
31C0
30E0
F078
F078
ENDCHAR
STARTCHAR Lacute
ENCODING 313
SWIDTH 600 0
DWIDTH 15 0
BBX 13 20 1 0
BITMAP
00E0
01C0
0380
0700
0000
1FE0
1FE0
0300
0300
0600
0600
0600
0C00
0C00
0C00
1818
1818
1830
FFF0
FFF0
ENDCHAR
STARTCHAR lacute
ENCODING 314
SWIDTH 600 0
DWIDTH 15 0
BBX 10 21 2 0
BITMAP
01C0
0380
0700
0E00
0000
0F80
0F80
0180
0180
0300
0300
0300
0600
0600
0600
0600
0C00
0C00
0C00
FFC0
FFC0
ENDCHAR
STARTCHAR Lcommaaccent
ENCODING 315
SWIDTH 600 0
DWIDTH 15 0
BBX 13 22 1 -7
BITMAP
1FE0
1FE0
0300
0300
0600
0600
0600
0C00
0C00
0C00
1818
1818
1830
FFF0
FFF0
0000
0700
0700
0E00
0C00
1800
1000
ENDCHAR
STARTCHAR lcommaaccent
ENCODING 316
SWIDTH 600 0
DWIDTH 15 0
BBX 10 23 2 -7
BITMAP
0F80
0F80
0180
0180
0300
0300
0300
0600
0600
0600
0600
0C00
0C00
0C00
FFC0
FFC0
0000
0E00
0E00
1C00
1800
3000
2000
ENDCHAR
STARTCHAR Lcaron
ENCODING 317
SWIDTH 600 0
DWIDTH 15 0
BBX 13 19 1 0
BITMAP
18C0
0D80
0700
0000
1FE0
1FE0
0300
0300
0600
0600
0600
0C00
0C00
0C00
1818
1818
1830
FFF0
FFF0
ENDCHAR
STARTCHAR lcaron
ENCODING 318
SWIDTH 600 0
DWIDTH 15 0
BBX 10 20 2 0
BITMAP
18C0
0D80
0700
0000
0F80
0F80
0180
0180
0300
0300
0300
0600
0600
0600
0600
0C00
0C00
0C00
FFC0
FFC0
ENDCHAR
STARTCHAR Ldot
ENCODING 319
SWIDTH 600 0
DWIDTH 15 0
BBX 13 15 1 0
BITMAP
1FE0
1FE0
0300
0300
0600
0600
07C0
0FC0
0FC0
0F80
1818
1818
1830
FFF0
FFF0
ENDCHAR
STARTCHAR ldot
ENCODING 320
SWIDTH 600 0
DWIDTH 15 0
BBX 12 16 2 0
BITMAP
0F80
0F80
0180
0180
0300
0300
0300
0670
06F0
06F0
06E0
0C00
0C00
0C00
FFC0
FFC0
ENDCHAR
STARTCHAR Lslash
ENCODING 321
SWIDTH 600 0
DWIDTH 15 0
BBX 13 15 1 0
BITMAP
1FE0
1FE0
0300
0300
0660
06C0
0780
0F00
1E00
3C00
7818
1818
1830
FFF0
FFF0
ENDCHAR
STARTCHAR lslash
ENCODING 322
SWIDTH 600 0
DWIDTH 15 0
BBX 12 16 2 0
BITMAP
0F80
0F80
0180
0180
0330
0360
03C0
0780
0F00
1E00
3600
0C00
0C00
0C00
FFC0
FFC0
ENDCHAR
STARTCHAR Nacute
ENCODING 323
SWIDTH 600 0
DWIDTH 15 0
BBX 16 20 0 0
BITMAP
0038
0070
00E0
01C0
0000
1E1F
1E1F
0E06
0E06
1B0C
1B0C
1B0C
198C
3198
3198
30D8
60D8
60F0
F870
F870
ENDCHAR
STARTCHAR nacute
ENCODING 324
SWIDTH 600 0
DWIDTH 15 0
BBX 14 16 0 0
BITMAP
00E0
01C0
0380
0700
0000
3CF0
3DF8
0F1C
0E0C
180C
1818
1818
3030
3030
FCFC
FCFC
ENDCHAR
STARTCHAR Ncommaaccent
ENCODING 325
SWIDTH 600 0
DWIDTH 15 0
BBX 16 22 0 -7
BITMAP
1E1F
1E1F
0E06
0E06
1B0C
1B0C
1B0C
198C
3198
3198
30D8
60D8
60F0
F870
F870
0000
0380
0380
0700
0600
0C00
0800
ENDCHAR
STARTCHAR ncommaaccent
ENCODING 326
SWIDTH 600 0
DWIDTH 15 0
BBX 14 18 0 -7
BITMAP
3CF0
3DF8
0F1C
0E0C
180C
1818
1818
3030
3030
FCFC
FCFC
0000
0380
0380
0700
0600
0C00
0800
ENDCHAR
STARTCHAR Ncaron
ENCODING 327
SWIDTH 600 0
DWIDTH 15 0
BBX 16 19 0 0
BITMAP
0630
0360
01C0
0000
1E1F
1E1F
0E06
0E06
1B0C
1B0C
1B0C
198C
3198
3198
30D8
60D8
60F0
F870
F870
ENDCHAR
STARTCHAR ncaron
ENCODING 328
SWIDTH 600 0
DWIDTH 15 0
BBX 14 15 0 0
BITMAP
0C60
06C0
0380
0000
3CF0
3DF8
0F1C
0E0C
180C
1818
1818
3030
3030
FCFC
FCFC
ENDCHAR
STARTCHAR napostrophe
ENCODING 329
SWIDTH 600 0
DWIDTH 15 0
BBX 17 15 -3 0
BITMAP
380000
380000
700000
600000
C79E00
87BF00
01E380
01C180
030180
030300
030300
060600
060600
1F9F80
1F9F80
ENDCHAR
STARTCHAR Eng
ENCODING 330
SWIDTH 600 0
DWIDTH 15 0
BBX 16 20 0 -5
BITMAP
1E1F
1E1F
0E06
0E06
1B0C
1B0C
1B0C
198C
3198
3198
30D8
60F8
60F0
F870
F870
0060
0060
00C0
1FC0
1F80
ENDCHAR
STARTCHAR eng
ENCODING 331
SWIDTH 600 0
DWIDTH 15 0
BBX 14 16 0 -5
BITMAP
3CF0
3DF8
0F1C
0E0C
180C
1818
1818
3030
3030
FC30
FC60
0060
0060
00C0
1FC0
1F80
ENDCHAR
STARTCHAR Omacron
ENCODING 332
SWIDTH 600 0
DWIDTH 15 0
BBX 14 18 1 0
BITMAP
0FE0
0FE0
0000
03E0
0FF8
1C38
381C
700C
600C
E00C
C00C
C01C
C018
C038
E070
71E0
7FC0
1F00
ENDCHAR
STARTCHAR omacron
ENCODING 333
SWIDTH 600 0
DWIDTH 15 0
BBX 12 14 2 0
BITMAP
1FC0
1FC0
0000
0FC0
3FE0
7070
6030
C030
C030
C030
C060
E0E0
7FC0
3F00
ENDCHAR
STARTCHAR Obreve
ENCODING 334
SWIDTH 600 0
DWIDTH 15 0
BBX 14 19 1 0
BITMAP
0C30
0660
03C0
0000
03E0
0FF8
1C38
381C
700C
600C
E00C
C00C
C01C
C018
C038
E070
71E0
7FC0
1F00
ENDCHAR
STARTCHAR obreve
ENCODING 335
SWIDTH 600 0
DWIDTH 15 0
BBX 12 15 2 0
BITMAP
30C0
1980
0F00
0000
0FC0
3FE0
7070
6030
C030
C030
C030
C060
E0E0
7FC0
3F00
ENDCHAR
STARTCHAR Ohungarumlaut
ENCODING 336
SWIDTH 600 0
DWIDTH 15 0
BBX 14 20 1 0
BITMAP
0198
0330
0660
0CC0
0000
03E0
0FF8
1C38
381C
700C
600C
E00C
C00C
C01C
C018
C038
E070
71E0
7FC0
1F00
ENDCHAR
STARTCHAR ohungarumlaut
ENCODING 337
SWIDTH 600 0
DWIDTH 15 0
BBX 12 16 2 0
BITMAP
0330
0660
0CC0
1980
0000
0FC0
3FE0
7070
6030
C030
C030
C030
C060
E0E0
7FC0
3F00
ENDCHAR
STARTCHAR OE
ENCODING 338
SWIDTH 600 0
DWIDTH 15 0
BBX 18 15 0 0
BITMAP
03FFC0
0FFFC0
1C3180
303180
306000
606000
606600
C0FE00
C0FC00
C0CC00
C18000
C18600
618600
7FFC00
1FFC00
ENDCHAR
STARTCHAR oe
ENCODING 339
SWIDTH 600 0
DWIDTH 15 0
BBX 15 11 0 0
BITMAP
0F38
3FFC
31CE
6186
6186
C3FE
C3FE
C300
E78C
7FFC
3CF0
ENDCHAR
STARTCHAR Racute
ENCODING 340
SWIDTH 600 0
DWIDTH 15 0
BBX 15 20 0 0
BITMAP
0070
00E0
01C0
0380
0000
1FF0
1FFC
060E
0606
0C06
0C0E
0C1C
1FF8
1FC0
18E0
1860
3070
3030
FC3C
FC3C
ENDCHAR
STARTCHAR racute
ENCODING 341
SWIDTH 600 0
DWIDTH 15 0
BBX 14 16 1 0
BITMAP
0070
00E0
01C0
0380
0000
1EF8
1FFC
070C
0600
0C00
0C00
0C00
1800
1800
FFC0
FFC0
ENDCHAR
STARTCHAR Rcommaaccent
ENCODING 342
SWIDTH 600 0
DWIDTH 15 0
BBX 15 22 0 -7
BITMAP
1FF0
1FFC
060E
0606
0C06
0C0E
0C1C
1FF8
1FC0
18E0
1860
3070
3030
FC3C
FC3C
0000
0380
0380
0700
0600
0C00
0800
ENDCHAR
STARTCHAR rcommaaccent
ENCODING 343
SWIDTH 600 0
DWIDTH 15 0
BBX 14 18 1 -7
BITMAP
1EF8
1FFC
070C
0600
0C00
0C00
0C00
1800
1800
FFC0
FFC0
0000
0E00
0E00
1C00
1800
3000
2000
ENDCHAR
STARTCHAR Rcaron
ENCODING 344
SWIDTH 600 0
DWIDTH 15 0
BBX 15 19 0 0
BITMAP
0630
0360
01C0
0000
1FF0
1FFC
060E
0606
0C06
0C0E
0C1C
1FF8
1FC0
18E0
1860
3070
3030
FC3C
FC3C
ENDCHAR
STARTCHAR rcaron
ENCODING 345
SWIDTH 600 0
DWIDTH 15 0
BBX 14 15 1 0
BITMAP
0C60
06C0
0380
0000
1EF8
1FFC
070C
0600
0C00
0C00
0C00
1800
1800
FFC0
FFC0
ENDCHAR
STARTCHAR Sacute
ENCODING 346
SWIDTH 600 0
DWIDTH 15 0
BBX 15 20 1 0
BITMAP
0070
00E0
01C0
0380
0000
03F6
0FFE
0E0E
1C0C
180C
1E00
0F80
03E0
00F0
0038
6018
6018
7038
FFF0
CFE0
ENDCHAR
STARTCHAR sacute
ENCODING 347
SWIDTH 600 0
DWIDTH 15 0
BBX 12 16 2 0
BITMAP
00E0
01C0
0380
0700
0000
0FB0
1FF0
3860
3860
1E00
0F80
03C0
60E0
60E0
FFC0
DF80
ENDCHAR
STARTCHAR Scircumflex
ENCODING 348
SWIDTH 600 0
DWIDTH 15 0
BBX 15 19 1 0
BITMAP
01C0
0360
0630
0000
03F6
0FFE
0E0E
1C0C
180C
1E00
0F80
03E0
00F0
0038
6018
6018
7038
FFF0
CFE0
ENDCHAR
STARTCHAR scircumflex
ENCODING 349
SWIDTH 600 0
DWIDTH 15 0
BBX 12 15 2 0
BITMAP
0700
0D80
18C0
0000
0FB0
1FF0
3860
3860
1E00
0F80
03C0
60E0
60E0
FFC0
DF80
ENDCHAR
STARTCHAR Scedilla
ENCODING 350
SWIDTH 600 0
DWIDTH 15 0
BBX 15 20 1 -5
BITMAP
03F6
0FFE
0E0E
1C0C
180C
1E00
0F80
03E0
00F0
0038
6018
6018
7038
FFF0
CFE0
0300
0780
0180
0F80
0700
ENDCHAR
STARTCHAR scedilla
ENCODING 351
SWIDTH 600 0
DWIDTH 15 0
BBX 12 16 2 -5
BITMAP
0FB0
1FF0
3860
3860
1E00
0F80
03C0
60E0
60E0
FFC0
DF80
0C00
1E00
0600
3E00
1C00
ENDCHAR
STARTCHAR Scaron
ENCODING 352
SWIDTH 600 0
DWIDTH 15 0
BBX 15 19 1 0
BITMAP
0318
01B0
00E0
0000
03F6
0FFE
0E0E
1C0C
180C
1E00
0F80
03E0
00F0
0038
6018
6018
7038
FFF0
CFE0
ENDCHAR
STARTCHAR scaron
ENCODING 353
SWIDTH 600 0
DWIDTH 15 0
BBX 12 15 2 0
BITMAP
0C60
06C0
0380
0000
0FB0
1FF0
3860
3860
1E00
0F80
03C0
60E0
60E0
FFC0
DF80
ENDCHAR
STARTCHAR Tcommaaccent
ENCODING 354
SWIDTH 600 0
DWIDTH 15 0
BBX 13 20 3 -5
BITMAP
7FF8
7FF8
6318
C330
C630
C630
0600
0C00
0C00
0C00
1800
1800
1800
FF00
FF00
0C00
1E00
0600
3E00
1C00
ENDCHAR
STARTCHAR tcommaaccent
ENCODING 355
SWIDTH 600 0
DWIDTH 15 0
BBX 10 20 3 -5
BITMAP
0C00
0C00
1800
1800
FFC0
FFC0
3000
6000
6000
6000
C000
C000
E180
7F80
3E00
1800
3C00
0C00
7C00
3800
ENDCHAR
STARTCHAR Tcaron
ENCODING 356
SWIDTH 600 0
DWIDTH 15 0
BBX 13 19 3 0
BITMAP
18C0
0D80
0700
0000
7FF8
7FF8
6318
C330
C630
C630
0600
0C00
0C00
0C00
1800
1800
1800
FF00
FF00
ENDCHAR
STARTCHAR tcaron
ENCODING 357
SWIDTH 600 0
DWIDTH 15 0
BBX 10 19 3 0
BITMAP
6300
3600
1C00
0000
0C00
0C00
1800
1800
FFC0
FFC0
3000
6000
6000
6000
C000
C000
E180
7F80
3E00
ENDCHAR
STARTCHAR Tbar
ENCODING 358
SWIDTH 600 0
DWIDTH 15 0
BBX 13 15 3 0
BITMAP
7FF8
7FF8
6318
C330
C630
C630
FFF8
FFF8
0C00
0C00
1800
1800
1800
FF00
FF00
ENDCHAR
STARTCHAR tbar
ENCODING 359
SWIDTH 600 0
DWIDTH 15 0
BBX 13 15 2 0
BITMAP
0600
0600
0C00
0C00
7FE0
7FE0
1800
3000
3000
FFF8
FFF8
6000
70C0
3FC0
1F00
ENDCHAR
STARTCHAR Utilde
ENCODING 360
SWIDTH 600 0
DWIDTH 15 0
BBX 15 19 2 0
BITMAP
0398
07F0
0CE0
0000
7C7E
7C7E
3018
3018
6018
6030
6030
6030
C060
C060
C060
C0C0
E1C0
7F80
3F00
ENDCHAR
STARTCHAR utilde
ENCODING 361
SWIDTH 600 0
DWIDTH 15 0
BBX 12 15 2 0
BITMAP
0E60
1FC0
3380
0000
F0F0
F0F0
3030
6030
6060
6060
C060
C0C0
E1C0
7FF0
3EF0
ENDCHAR
STARTCHAR Umacron
ENCODING 362
SWIDTH 600 0
DWIDTH 15 0
BBX 15 18 2 0
BITMAP
0FE0
0FE0
0000
7C7E
7C7E
3018
3018
6018
6030
6030
6030
C060
C060
C060
C0C0
E1C0
7F80
3F00
ENDCHAR
STARTCHAR umacron
ENCODING 363
SWIDTH 600 0
DWIDTH 15 0
BBX 12 14 2 0
BITMAP
1FC0
1FC0
0000
F0F0
F0F0
3030
6030
6060
6060
C060
C0C0
E1C0
7FF0
3EF0
ENDCHAR
STARTCHAR Ubreve
ENCODING 364
SWIDTH 600 0
DWIDTH 15 0
BBX 15 19 2 0
BITMAP
0C30
0660
03C0
0000
7C7E
7C7E
3018
3018
6018
6030
6030
6030
C060
C060
C060
C0C0
E1C0
7F80
3F00
ENDCHAR
STARTCHAR ubreve
ENCODING 365
SWIDTH 600 0
DWIDTH 15 0
BBX 12 15 2 0
BITMAP
30C0
1980
0F00
0000
F0F0
F0F0
3030
6030
6060
6060
C060
C0C0
E1C0
7FF0
3EF0
ENDCHAR
STARTCHAR Uring
ENCODING 366
SWIDTH 600 0
DWIDTH 15 0
BBX 15 20 2 0
BITMAP
0380
06C0
06C0
0380
0000
7C7E
7C7E
3018
3018
6018
6030
6030
6030
C060
C060
C060
C0C0
E1C0
7F80
3F00
ENDCHAR
STARTCHAR uring
ENCODING 367
SWIDTH 600 0
DWIDTH 15 0
BBX 12 16 2 0
BITMAP
0700
0D80
0D80
0700
0000
F0F0
F0F0
3030
6030
6060
6060
C060
C0C0
E1C0
7FF0
3EF0
ENDCHAR
STARTCHAR Uhungarumlaut
ENCODING 368
SWIDTH 600 0
DWIDTH 15 0
BBX 15 20 2 0
BITMAP
0198
0330
0660
0CC0
0000
7C7E
7C7E
3018
3018
6018
6030
6030
6030
C060
C060
C060
C0C0
E1C0
7F80
3F00
ENDCHAR
STARTCHAR uhungarumlaut
ENCODING 369
SWIDTH 600 0
DWIDTH 15 0
BBX 12 16 2 0
BITMAP
0660
0CC0
1980
3300
0000
F0F0
F0F0
3030
6030
6060
6060
C060
C0C0
E1C0
7FF0
3EF0
ENDCHAR
STARTCHAR Uogonek
ENCODING 370
SWIDTH 600 0
DWIDTH 15 0
BBX 15 19 2 -4
BITMAP
7C7E
7C7E
3018
3018
6018
6030
6030
6030
C060
C060
C060
C0C0
E1C0
7F80
3F00
0600
0C00
0D80
0700
ENDCHAR
STARTCHAR uogonek
ENCODING 371
SWIDTH 600 0
DWIDTH 15 0
BBX 12 15 2 -4
BITMAP
F0F0
F0F0
3030
6030
6060
6060
C060
C0C0
E1C0
7FF0
3EF0
0600
0C00
0D80
0700
ENDCHAR
STARTCHAR Wcircumflex
ENCODING 372
SWIDTH 600 0
DWIDTH 15 0
BBX 15 19 2 0
BITMAP
0380
06C0
0C60
0000
7C3E
7C3E
300C
318C
3398
6398
6798
6798
6DB0
6DB0
D9B0
D9A0
F1E0
F1C0
E1C0
ENDCHAR
STARTCHAR wcircumflex
ENCODING 373
SWIDTH 600 0
DWIDTH 15 0
BBX 14 15 2 0
BITMAP
0380
06C0
0C60
0000
F87C
F87C
6318
6318
6730
6730
6F60
6B60
79C0
71C0
6180
ENDCHAR
STARTCHAR Ycircumflex
ENCODING 374
SWIDTH 600 0
DWIDTH 15 0
BBX 14 19 3 0
BITMAP
0700
0D80
18C0
0000
FCFC
FCFC
7070
3060
38C0
1980
1B00
0E00
0E00
0C00
0C00
1800
1800
FF00
FF00
ENDCHAR
STARTCHAR ycircumflex
ENCODING 375
SWIDTH 600 0
DWIDTH 15 0
BBX 15 20 0 -5
BITMAP
01C0
0360
0630
0000
1F3E
1F3E
0C0C
0C18
0C38
0630
0660
06C0
03C0
0380
0300
0600
0C00
1800
FE00
FE00
ENDCHAR
STARTCHAR Ydieresis
ENCODING 376
SWIDTH 600 0
DWIDTH 15 0
BBX 14 18 3 0
BITMAP
0C60
0C60
0000
FCFC
FCFC
7038
3070
38E0
19C0
1B80
0F00
0E00
0C00
0C00
1800
1800
FF00
FF00
ENDCHAR
STARTCHAR Zacute
ENCODING 377
SWIDTH 600 0
DWIDTH 15 0
BBX 14 20 2 0
BITMAP
0070
00E0
01C0
0380
0000
1FFC
1FFC
1838
3070
30E0
01C0
0380
0700
0E00
1C00
3830
7030
E060
FFE0
FFE0
ENDCHAR
STARTCHAR zacute
ENCODING 378
SWIDTH 600 0
DWIDTH 15 0
BBX 11 16 2 0
BITMAP
01C0
0380
0700
0E00
0000
3FE0
3FE0
30C0
3180
0700
0E00
1800
30C0
60C0
FFC0
FFC0
ENDCHAR
STARTCHAR Zdotaccent
ENCODING 379
SWIDTH 600 0
DWIDTH 15 0
BBX 14 18 2 0
BITMAP
0180
0180
0000
1FFC
1FFC
1838
3070
30E0
01C0
0380
0700
0E00
1C00
3830
7030
E060
FFE0
FFE0
ENDCHAR
STARTCHAR zdotaccent
ENCODING 380
SWIDTH 600 0
DWIDTH 15 0
BBX 11 14 2 0
BITMAP
0600
0600
0000
3FE0
3FE0
30C0
3180
0700
0E00
1800
30C0
60C0
FFC0
FFC0
ENDCHAR
STARTCHAR Zcaron
ENCODING 381
SWIDTH 600 0
DWIDTH 15 0
BBX 14 19 2 0
BITMAP
0630
0360
01C0
0000
1FFC
1FFC
1838
3070
30E0
01C0
0380
0700
0E00
1C00
3830
7030
E060
FFE0
FFE0
ENDCHAR
STARTCHAR zcaron
ENCODING 382
SWIDTH 600 0
DWIDTH 15 0
BBX 11 15 2 0
BITMAP
3180
1B00
0E00
0000
3FE0
3FE0
31C0
3380
0700
0E00
1C00
38C0
70C0
FFC0
FFC0
ENDCHAR
STARTCHAR uni0186
ENCODING 390
SWIDTH 600 0
DWIDTH 15 0
BBX 15 15 1 0
BITMAP
03F0
0FFC
1C1C
180E
0006
0006
0006
0006
000E
000C
601C
6038
E0F0
FFE0
DF80
ENDCHAR
STARTCHAR uni0189
ENCODING 393
SWIDTH 600 0
DWIDTH 15 0
BBX 16 15 0 0
BITMAP
1FFC
1FFE
0607
0603
0C03
0C03
3F03
3F03
1806
1806
300C
300C
3038
FFF0
FFE0
ENDCHAR
STARTCHAR uni018E
ENCODING 398
SWIDTH 600 0
DWIDTH 15 0
BBX 15 15 0 0
BITMAP
3FFE
3FFE
3018
6018
6030
0630
0630
07E0
0FE0
0C60
6C60
60C0
C0C0
FFF0
FFF0
ENDCHAR
STARTCHAR florin
ENCODING 402
SWIDTH 600 0
DWIDTH 15 0
BBX 16 19 0 -3
BITMAP
001F
003F
0030
0060
0060
00C0
07F8
07F8
00C0
00C0
0180
0180
0180
0300
0300
0600
0600
FC00
F800
ENDCHAR
STARTCHAR uni0197
ENCODING 407
SWIDTH 600 0
DWIDTH 15 0
BBX 13 15 2 0
BITMAP
1FF8
1FF8
0180
0180
0300
0300
FFF8
FFF8
0600
0600
0C00
0C00
0C00
FFC0
FFC0
ENDCHAR
STARTCHAR uni019A
ENCODING 410
SWIDTH 600 0
DWIDTH 15 0
BBX 13 16 1 0
BITMAP
07C0
07C0
00C0
00C0
0180
0180
0180
FFF8
FFF8
0300
0300
0600
0600
0600
7FE0
7FE0
ENDCHAR
STARTCHAR uni019D
ENCODING 413
SWIDTH 600 0
DWIDTH 15 0
BBX 22 20 -6 -5
BITMAP
00787C
00787C
003818
003818
006C30
006C30
006C30
006630
00C660
00C660
00C360
018160
0181C0
0181C0
0301C0
030000
030000
060000
FE0000
FC0000
ENDCHAR
STARTCHAR uni019F
ENCODING 415
SWIDTH 600 0
DWIDTH 15 0
BBX 14 15 1 0
BITMAP
03E0
0FF8
1C38
381C
700C
600C
FFFC
FFFC
C01C
C018
C038
E070
71E0
7FC0
1F00
ENDCHAR
STARTCHAR Ohorn
ENCODING 416
SWIDTH 600 0
DWIDTH 15 0
BBX 18 15 1 0
BITMAP
03E1C0
0FF9C0
1C3B80
381F00
700E00
600C00
E00C00
C00C00
C01C00
C01800
C03800
E07000
71E000
7FC000
1F0000
ENDCHAR
STARTCHAR ohorn
ENCODING 417
SWIDTH 600 0
DWIDTH 15 0
BBX 16 11 2 0
BITMAP
0FC7
3FE7
707E
603C
C038
C030
C030
C060
E0E0
7FC0
3F00
ENDCHAR
STARTCHAR Uhorn
ENCODING 431
SWIDTH 600 0
DWIDTH 15 0
BBX 19 15 2 0
BITMAP
7C7EE0
7C7EE0
3019C0
301980
601B00
603200
603000
603000
C06000
C06000
C06000
C0C000
E1C000
7F8000
3F0000
ENDCHAR
STARTCHAR uhorn
ENCODING 432
SWIDTH 600 0
DWIDTH 15 0
BBX 16 11 2 0
BITMAP
F0F7
F0F7
303E
603C
6078
6070
C060
C0C0
E1C0
7FF0
3EF0
ENDCHAR
STARTCHAR uni01B5
ENCODING 437
SWIDTH 600 0
DWIDTH 15 0
BBX 14 15 2 0
BITMAP
1FFC
1FFC
1838
3070
30E0
01C0
7FFC
7FFC
0E00
1C00
3830
7030
E060
FFE0
FFE0
ENDCHAR
STARTCHAR uni01B6
ENCODING 438
SWIDTH 600 0
DWIDTH 15 0
BBX 13 11 1 0
BITMAP
1FF0
1FF0
1860
18C0
FFF8
FFF8
0C00
1860
3060
7FE0
7FE0
ENDCHAR
STARTCHAR uni01BB
ENCODING 443
SWIDTH 600 0
DWIDTH 15 0
BBX 14 16 1 0
BITMAP
01F8
07FC
0E0C
0C0C
0C0C
001C
0038
FFFC
FFFC
03C0
0700
1E00
3800
7000
FFE0
FFE0
ENDCHAR
STARTCHAR uni01BC
ENCODING 444
SWIDTH 600 0
DWIDTH 15 0
BBX 13 16 2 0
BITMAP
0FF8
0FF8
0C00
0C00
1800
1BC0
1FE0
1C70
0030
0030
0030
0030
C070
E0E0
7FC0
3F80
ENDCHAR
STARTCHAR uni01C0
ENCODING 448
SWIDTH 600 0
DWIDTH 15 0
BBX 7 17 5 -2
BITMAP
06
06
0C
0C
0C
18
18
18
30
30
30
60
60
60
C0
C0
C0
ENDCHAR
STARTCHAR uni01C2
ENCODING 450
SWIDTH 600 0
DWIDTH 15 0
BBX 13 17 2 -1
BITMAP
00C0
00C0
0180
0180
0180
0300
7FF8
7FF8
0600
0600
FFF0
FFF0
0C00
0C00
1800
1800
1800
ENDCHAR
STARTCHAR uni01C3
ENCODING 451
SWIDTH 600 0
DWIDTH 15 0
BBX 6 16 6 0
BITMAP
0C
1C
1C
3C
38
38
30
70
60
60
60
60
00
00
C0
C0
ENDCHAR
STARTCHAR uni01CD
ENCODING 461
SWIDTH 600 0
DWIDTH 15 0
BBX 14 19 0 0
BITMAP
0C60
06C0
0380
0000
07E0
07E0
00E0
01E0
01B0
0330
0630
0630
0C30
1FF8
1FF8
3018
3018
FCFC
FCFC
ENDCHAR
STARTCHAR uni01CE
ENCODING 462
SWIDTH 600 0
DWIDTH 15 0
BBX 12 15 1 0
BITMAP
18C0
0D80
0700
0000
0FC0
1FE0
1870
0030
0FF0
3FE0
7060
C0C0
C1C0
FFF0
7EF0
ENDCHAR
STARTCHAR uni01CF
ENCODING 463
SWIDTH 600 0
DWIDTH 15 0
BBX 13 19 2 0
BITMAP
0C60
06C0
0380
0000
1FF8
1FF8
0180
0180
0300
0300
0300
0600
0600
0600
0C00
0C00
0C00
FFC0
FFC0
ENDCHAR
STARTCHAR uni01D0
ENCODING 464
SWIDTH 600 0
DWIDTH 15 0
BBX 10 15 2 0
BITMAP
3180
1B00
0E00
0000
1F00
1F00
0300
0300
0600
0600
0600
0C00
0C00
FFC0
FFC0
ENDCHAR
STARTCHAR uni01D1
ENCODING 465
SWIDTH 600 0
DWIDTH 15 0
BBX 14 19 1 0
BITMAP
0C60
06C0
0380
0000
03E0
0FF8
1C38
381C
700C
600C
E00C
C00C
C01C
C018
C038
E070
71E0
7FC0
1F00
ENDCHAR
STARTCHAR uni01D2
ENCODING 466
SWIDTH 600 0
DWIDTH 15 0
BBX 12 15 2 0
BITMAP
18C0
0D80
0700
0000
0FC0
3FE0
7070
6030
C030
C030
C030
C060
E0E0
7FC0
3F00
ENDCHAR
STARTCHAR uni01D3
ENCODING 467
SWIDTH 600 0
DWIDTH 15 0
BBX 15 19 2 0
BITMAP
0C60
06C0
0380
0000
7C7E
7C7E
3018
3018
6018
6030
6030
6030
C060
C060
C060
C0C0
E1C0
7F80
3F00
ENDCHAR
STARTCHAR uni01D4
ENCODING 468
SWIDTH 600 0
DWIDTH 15 0
BBX 12 15 2 0
BITMAP
18C0
0D80
0700
0000
F0F0
F0F0
3030
6030
6060
6060
C060
C0C0
E1C0
7FF0
3EF0
ENDCHAR
STARTCHAR uni01D5
ENCODING 469
SWIDTH 600 0
DWIDTH 15 0
BBX 14 22 3 0
BITMAP
0FE0
0FE0
0000
0C60
0C60
0C60
0000
7C7C
7C7C
3018
3018
6030
6030
6030
6030
C060
C060
C060
C0C0
E1C0
7F80
3F00
ENDCHAR
STARTCHAR uni01D6
ENCODING 470
SWIDTH 600 0
DWIDTH 15 0
BBX 12 18 2 0
BITMAP
0FE0
0FE0
0000
0C60
0C60
0C60
0000
F0F0
F0F0
3030
6030
6060
6060
C060
C0C0
E1C0
7FF0
3EF0
ENDCHAR
STARTCHAR uni01D7
ENCODING 471
SWIDTH 600 0
DWIDTH 15 0
BBX 14 24 3 0
BITMAP
00E0
01C0
0380
0700
0000
0C60
0C60
0C60
0000
7C7C
7C7C
3018
3018
6030
6030
6030
6030
C060
C060
C060
C0C0
E1C0
7F80
3F00
ENDCHAR
STARTCHAR uni01D8
ENCODING 472
SWIDTH 600 0
DWIDTH 15 0
BBX 12 20 2 0
BITMAP
00E0
01C0
0380
0700
0000
0C60
0C60
0C60
0000
F0F0
F0F0
3030
6030
6060
6060
C060
C0C0
E1C0
7FF0
3EF0
ENDCHAR
STARTCHAR uni01D9
ENCODING 473
SWIDTH 600 0
DWIDTH 15 0
BBX 14 23 3 0
BITMAP
0C60
06C0
0380
0000
0C60
0C60
0C60
0000
7C7C
7C7C
3018
3018
6030
6030
6030
6030
C060
C060
C060
C0C0
E1C0
7F80
3F00
ENDCHAR
STARTCHAR uni01DA
ENCODING 474
SWIDTH 600 0
DWIDTH 15 0
BBX 12 19 2 0
BITMAP
0C60
06C0
0380
0000
0C60
0C60
0C60
0000
F0F0
F0F0
3030
6030
6060
6060
C060
C0C0
E1C0
7FF0
3EF0
ENDCHAR
STARTCHAR uni01DB
ENCODING 475
SWIDTH 600 0
DWIDTH 15 0
BBX 14 24 3 0
BITMAP
0C00
0600
0300
0180
0000
0C60
0C60
0C60
0000
7C7C
7C7C
3018
3018
6030
6030
6030
6030
C060
C060
C060
C0C0
E1C0
7F80
3F00
ENDCHAR
STARTCHAR uni01DC
ENCODING 476
SWIDTH 600 0
DWIDTH 15 0
BBX 12 20 2 0
BITMAP
0C00
0600
0300
0180
0000
0C60
0C60
0C60
0000
F0F0
F0F0
3030
6030
6060
6060
C060
C0C0
E1C0
7FF0
3EF0
ENDCHAR
STARTCHAR uni01DD
ENCODING 477
SWIDTH 600 0
DWIDTH 15 0
BBX 11 11 2 0
BITMAP
1F80
7FC0
60E0
0060
FFE0
FFE0
C060
C0C0
E1C0
7F80
3E00
ENDCHAR
STARTCHAR uni01DE
ENCODING 478
SWIDTH 600 0
DWIDTH 15 0
BBX 14 22 0 0
BITMAP
07F0
07F0
0000
0318
0318
0318
0000
07E0
07E0
00E0
01E0
01B0
0330
0630
0630
0C30
1FF8
1FF8
3018
3018
FCFC
FCFC
ENDCHAR
STARTCHAR uni01DF
ENCODING 479
SWIDTH 600 0
DWIDTH 15 0
BBX 12 18 1 0
BITMAP
0FE0
0FE0
0000
0C60
0C60
0C60
0000
0FC0
1FE0
1870
0030
0FF0
3FE0
7060
C0C0
C1C0
FFF0
7EF0
ENDCHAR
STARTCHAR uni01E0
ENCODING 480
SWIDTH 600 0
DWIDTH 15 0
BBX 14 21 0 0
BITMAP
0FE0
0FE0
0000
0180
0180
0000
07E0
07E0
00E0
01E0
01B0
0330
0630
0630
0C30
1FF8
1FF8
3018
3018
FCFC
FCFC
ENDCHAR
STARTCHAR uni01E1
ENCODING 481
SWIDTH 600 0
DWIDTH 15 0
BBX 12 17 1 0
BITMAP
1FC0
1FC0
0000
0300
0300
0000
0FC0
1FE0
1870
0030
0FF0
3FE0
7060
C0C0
C1C0
FFF0
7EF0
ENDCHAR
STARTCHAR uni01E2
ENCODING 482
SWIDTH 600 0
DWIDTH 15 0
BBX 19 18 -1 0
BITMAP
00FE00
00FE00
000000
03FFE0
03FFE0
00D8C0
0198C0
01B000
033000
063300
067F00
0C7E00
1FE600
1FC000
30C300
30C300
FBFE00
FBFE00
ENDCHAR
STARTCHAR uni01E3
ENCODING 483
SWIDTH 600 0
DWIDTH 15 0
BBX 15 14 0 0
BITMAP
07F0
07F0
0000
1F78
3FFC
31CE
0186
1F86
7FFE
63FE
C300
C78C
FFFC
7CF0
ENDCHAR
STARTCHAR uni01E4
ENCODING 484
SWIDTH 600 0
DWIDTH 15 0
BBX 20 15 1 0
BITMAP
03F600
0FFE00
1E0E00
380C00
700C00
600000
E00000
C00000
C1F800
C1F800
C1FFF0
E1FFF0
707000
7FE000
1FC000
ENDCHAR
STARTCHAR uni01E5
ENCODING 485
SWIDTH 600 0
DWIDTH 15 0
BBX 14 16 2 -5
BITMAP
0FBC
3FFC
70F0
6060
C060
C060
C060
C0C0
E1C0
7FC0
3EC0
FFFC
FFFC
0380
FF00
FE00
ENDCHAR
STARTCHAR Gcaron
ENCODING 486
SWIDTH 600 0
DWIDTH 15 0
BBX 15 19 1 0
BITMAP
0630
0360
01C0
0000
03F6
0FFE
1E0E
380C
700C
6000
E000
C000
C1F8
C1F8
C018
E030
7070
7FE0
1FC0
ENDCHAR
STARTCHAR gcaron
ENCODING 487
SWIDTH 600 0
DWIDTH 15 0
BBX 14 20 2 -5
BITMAP
0C60
06C0
0380
0000
0FBC
3FFC
70F0
6060
C060
C060
C060
C0C0
E1C0
7FC0
3EC0
0180
0180
0380
FF00
FE00
ENDCHAR
STARTCHAR uni01E8
ENCODING 488
SWIDTH 600 0
DWIDTH 15 0
BBX 16 19 0 0
BITMAP
0630
0360
01C0
0000
1F9F
1F9F
0618
0630
0C60
0CC0
0F80
1F80
19C0
18C0
30E0
3060
3070
FC3C
FC3C
ENDCHAR
STARTCHAR uni01E9
ENCODING 489
SWIDTH 600 0
DWIDTH 15 0
BBX 13 20 1 0
BITMAP
3180
1B00
0E00
0000
1E00
1E00
0600
0600
0C00
0C78
0C78
18E0
19C0
1F80
1F00
3380
31C0
30E0
F078
F078
ENDCHAR
STARTCHAR uni01EA
ENCODING 490
SWIDTH 600 0
DWIDTH 15 0
BBX 14 19 1 -4
BITMAP
03E0
0FF8
1C38
381C
700C
600C
E00C
C00C
C01C
C018
C038
E070
71E0
7FC0
1F00
0600
0C00
0D80
0700
ENDCHAR
STARTCHAR uni01EB
ENCODING 491
SWIDTH 600 0
DWIDTH 15 0
BBX 12 15 2 -4
BITMAP
0FC0
3FE0
7070
6030
C030
C030
C030
C060
E0E0
7FC0
3F00
0600
0C00
0D80
0700
ENDCHAR
STARTCHAR uni01EC
ENCODING 492
SWIDTH 600 0
DWIDTH 15 0
BBX 14 22 1 -4
BITMAP
0FE0
0FE0
0000
03E0
0FF8
1C38
381C
700C
600C
E00C
C00C
C01C
C018
C038
E070
71E0
7FC0
1F00
0600
0C00
0D80
0700
ENDCHAR
STARTCHAR uni01ED
ENCODING 493
SWIDTH 600 0
DWIDTH 15 0
BBX 12 18 2 -4
BITMAP
1FC0
1FC0
0000
0FC0
3FE0
7070
6030
C030
C030
C030
C060
E0E0
7FC0
3F00
0600
0C00
0D80
0700
ENDCHAR
STARTCHAR uni01F0
ENCODING 496
SWIDTH 600 0
DWIDTH 15 0
BBX 12 20 1 -5
BITMAP
0C60
06C0
0380
0000
1FE0
1FE0
0060
0060
00C0
00C0
00C0
0180
0180
0180
0300
0300
0300
0600
FE00
FC00
ENDCHAR
STARTCHAR uni01F4
ENCODING 500
SWIDTH 600 0
DWIDTH 15 0
BBX 15 20 1 0
BITMAP
0070
00E0
01C0
0380
0000
03F6
0FFE
1E0E
380C
700C
6000
E000
C000
C1F8
C1F8
C018
E030
7070
7FE0
1FC0
ENDCHAR
STARTCHAR uni01F5
ENCODING 501
SWIDTH 600 0
DWIDTH 15 0
BBX 14 21 2 -5
BITMAP
00E0
01C0
0380
0700
0000
0FBC
3FFC
70F0
6060
C060
C060
C060
C0C0
E1C0
7FC0
3EC0
0180
0180
0380
FF00
FE00
ENDCHAR
STARTCHAR uni01F8
ENCODING 504
SWIDTH 600 0
DWIDTH 15 0
BBX 16 20 0 0
BITMAP
0300
0180
00C0
0060
0000
1E1F
1E1F
0E06
0E06
1B0C
1B0C
1B0C
198C
3198
3198
30D8
60D8
60F0
F870
F870
ENDCHAR
STARTCHAR uni01F9
ENCODING 505
SWIDTH 600 0
DWIDTH 15 0
BBX 14 16 0 0
BITMAP
0C00
0600
0300
0180
0000
3CF0
3DF8
0F1C
0E0C
180C
1818
1818
3030
3030
FCFC
FCFC
ENDCHAR
STARTCHAR Aringacute
ENCODING 506
SWIDTH 600 0
DWIDTH 15 0
BBX 14 24 0 0
BITMAP
0070
00E0
01C0
0380
0000
00F0
0198
0198
00F0
07E0
07E0
00E0
01E0
01B0
0330
0630
0630
0C30
1FF8
1FF8
3018
3018
FCFC
FCFC
ENDCHAR
STARTCHAR aringacute
ENCODING 507
SWIDTH 600 0
DWIDTH 15 0
BBX 12 21 1 0
BITMAP
0070
00E0
01C0
0380
0000
01E0
0330
0330
01E0
0000
0FC0
1FE0
1870
0030
0FF0
3FE0
7060
C0C0
C1C0
FFF0
7EF0
ENDCHAR
STARTCHAR AEacute
ENCODING 508
SWIDTH 600 0
DWIDTH 15 0
BBX 19 20 -1 0
BITMAP
000E00
001C00
003800
007000
000000
03FFE0
03FFE0
00D8C0
0198C0
01B000
033000
063300
067F00
0C7E00
1FE600
1FC000
30C300
30C300
FBFE00
FBFE00
ENDCHAR
STARTCHAR aeacute
ENCODING 509
SWIDTH 600 0
DWIDTH 15 0
BBX 15 16 0 0
BITMAP
0070
00E0
01C0
0380
0000
1F78
3FFC
31CE
0186
1F86
7FFE
63FE
C300
C78C
FFFC
7CF0
ENDCHAR
STARTCHAR Oslashacute
ENCODING 510
SWIDTH 600 0
DWIDTH 15 0
BBX 16 22 1 -1
BITMAP
0038
0070
00E0
01C0
0000
0003
01F6
07FC
0E1C
1C36
3866
30C6
7186
6186
630E
660C
6C1C
7838
38F0
3FE0
6F80
C000
ENDCHAR
STARTCHAR oslashacute
ENCODING 511
SWIDTH 600 0
DWIDTH 15 0
BBX 15 19 0 -2
BITMAP
0070
00E0
01C0
0380
0000
0006
03FC
0FF8
1C3C
186C
30CC
318C
330C
3618
3C38
1FF0
3FC0
6000
C000
ENDCHAR
STARTCHAR Scommaaccent
ENCODING 536
SWIDTH 600 0
DWIDTH 15 0
BBX 15 22 1 -7
BITMAP
03F6
0FFE
0E0E
1C0C
180C
1E00
0F80
03E0
00F0
0038
6018
6018
7038
FFF0
CFE0
0000
0380
0380
0700
0600
0C00
0800
ENDCHAR
STARTCHAR scommaaccent
ENCODING 537
SWIDTH 600 0
DWIDTH 15 0
BBX 12 18 2 -7
BITMAP
0FB0
1FF0
3860
3860
1E00
0F80
03C0
60E0
60E0
FFC0
DF80
0000
0E00
0E00
1C00
1800
3000
2000
ENDCHAR
STARTCHAR Tcommaaccent
ENCODING 538
SWIDTH 600 0
DWIDTH 15 0
BBX 13 22 3 -7
BITMAP
7FF8
7FF8
6318
C330
C630
C630
0600
0C00
0C00
0C00
1800
1800
1800
FF00
FF00
0000
0E00
0E00
1C00
1800
3000
2000
ENDCHAR
STARTCHAR tcommaaccent
ENCODING 539
SWIDTH 600 0
DWIDTH 15 0
BBX 10 22 3 -7
BITMAP
0C00
0C00
1800
1800
FFC0
FFC0
3000
6000
6000
6000
C000
C000
E180
7F80
3E00
0000
1C00
1C00
3800
3000
6000
4000
ENDCHAR
STARTCHAR uni021E
ENCODING 542
SWIDTH 600 0
DWIDTH 15 0
BBX 17 19 0 0
BITMAP
031800
01B000
00E000
000000
1F9F80
1F9F80
060600
060600
0C0C00
0C0C00
0FFC00
0FFC00
181800
181800
181800
303000
303000
FCFC00
FCFC00
ENDCHAR
STARTCHAR uni021F
ENCODING 543
SWIDTH 600 0
DWIDTH 15 0
BBX 14 20 0 0
BITMAP
3180
1B00
0E00
0000
1E00
1E00
0600
0600
0600
0DF0
0FF8
0E1C
0C0C
180C
1818
1818
3030
3030
FCFC
FCFC
ENDCHAR
STARTCHAR uni0226
ENCODING 550
SWIDTH 600 0
DWIDTH 15 0
BBX 14 18 0 0
BITMAP
0180
0180
0000
07E0
07E0
00E0
01E0
01B0
0330
0630
0630
0C30
1FF8
1FF8
3018
3018
FCFC
FCFC
ENDCHAR
STARTCHAR uni0227
ENCODING 551
SWIDTH 600 0
DWIDTH 15 0
BBX 12 14 1 0
BITMAP
0300
0300
0000
0FC0
1FE0
1870
0030
0FF0
3FE0
7060
C0C0
C1C0
FFF0
7EF0
ENDCHAR
STARTCHAR uni0228
ENCODING 552
SWIDTH 600 0
DWIDTH 15 0
BBX 15 20 0 -5
BITMAP
1FFE
1FFE
0606
060C
0C6C
0C60
0FE0
0FC0
18C0
18C0
180C
300C
3018
FFF8
FFF8
0300
0780
0180
0F80
0700
ENDCHAR
STARTCHAR uni0229
ENCODING 553
SWIDTH 600 0
DWIDTH 15 0
BBX 11 16 2 -5
BITMAP
0F80
3FC0
70E0
6060
C060
FFE0
FFE0
C000
E0C0
7FC0
3F00
0C00
1E00
0600
3E00
1C00
ENDCHAR
STARTCHAR uni022A
ENCODING 554
SWIDTH 600 0
DWIDTH 15 0
BBX 14 22 1 0
BITMAP
07F0
07F0
0000
0630
0630
0630
0000
03E0
0FF8
1C38
381C
700C
600C
E00C
C00C
C01C
C018
C038
E070
71E0
7FC0
1F00
ENDCHAR
STARTCHAR uni022B
ENCODING 555
SWIDTH 600 0
DWIDTH 15 0
BBX 12 18 2 0
BITMAP
0FE0
0FE0
0000
0C60
0C60
0C60
0000
0FC0
3FE0
7070
6030
C030
C030
C030
C060
E0E0
7FC0
3F00
ENDCHAR
STARTCHAR uni022C
ENCODING 556
SWIDTH 600 0
DWIDTH 15 0
BBX 14 22 1 0
BITMAP
07F0
07F0
0000
01CC
03F8
0670
0000
03E0
0FF8
1C38
381C
700C
600C
E00C
C00C
C01C
C018
C038
E070
71E0
7FC0
1F00
ENDCHAR
STARTCHAR uni022D
ENCODING 557
SWIDTH 600 0
DWIDTH 15 0
BBX 12 18 2 0
BITMAP
0FE0
0FE0
0000
0730
0FE0
19C0
0000
0FC0
3FE0
7070
6030
C030
C030
C030
C060
E0E0
7FC0
3F00
ENDCHAR
STARTCHAR uni022E
ENCODING 558
SWIDTH 600 0
DWIDTH 15 0
BBX 14 18 1 0
BITMAP
0180
0180
0000
03E0
0FF8
1C38
381C
700C
600C
E00C
C00C
C01C
C018
C038
E070
71E0
7FC0
1F00
ENDCHAR
STARTCHAR uni022F
ENCODING 559
SWIDTH 600 0
DWIDTH 15 0
BBX 12 14 2 0
BITMAP
0600
0600
0000
0FC0
3FE0
7070
6030
C030
C030
C030
C060
E0E0
7FC0
3F00
ENDCHAR
STARTCHAR uni0230
ENCODING 560
SWIDTH 600 0
DWIDTH 15 0
BBX 14 21 1 0
BITMAP
0FE0
0FE0
0000
0180
0180
0000
03E0
0FF8
1C38
381C
700C
600C
E00C
C00C
C01C
C018
C038
E070
71E0
7FC0
1F00
ENDCHAR
STARTCHAR uni0231
ENCODING 561
SWIDTH 600 0
DWIDTH 15 0
BBX 12 17 2 0
BITMAP
1FC0
1FC0
0000
0600
0600
0000
0FC0
3FE0
7070
6030
C030
C030
C030
C060
E0E0
7FC0
3F00
ENDCHAR
STARTCHAR uni0232
ENCODING 562
SWIDTH 600 0
DWIDTH 15 0
BBX 14 18 3 0
BITMAP
1FC0
1FC0
0000
FCFC
FCFC
7070
3060
38C0
1980
1B00
0E00
0E00
0C00
0C00
1800
1800
FF00
FF00
ENDCHAR
STARTCHAR uni0233
ENCODING 563
SWIDTH 600 0
DWIDTH 15 0
BBX 15 19 0 -5
BITMAP
07F0
07F0
0000
1F3E
1F3E
0C0C
0C18
0C38
0630
0660
06C0
03C0
0380
0300
0600
0C00
1800
FE00
FE00
ENDCHAR
STARTCHAR uni0250
ENCODING 592
SWIDTH 600 0
DWIDTH 15 0
BBX 12 11 1 0
BITMAP
F7E0
FFF0
3830
3030
60E0
7FC0
FF00
C000
E180
7F80
3F00
ENDCHAR
STARTCHAR uni0259
ENCODING 601
SWIDTH 600 0
DWIDTH 15 0
BBX 11 11 2 0
BITMAP
1F80
7FC0
60E0
0060
FFE0
FFE0
C060
C0C0
E1C0
7F80
3E00
ENDCHAR
STARTCHAR uni025F
ENCODING 607
SWIDTH 600 0
DWIDTH 15 0
BBX 14 16 2 -5
BITMAP
0FFC
0FFC
0060
0060
00C0
00C0
00C0
0180
0180
3FF0
3FF0
0300
0300
0700
FE00
F800
ENDCHAR
STARTCHAR uni0265
ENCODING 613
SWIDTH 600 0
DWIDTH 15 0
BBX 14 16 0 -5
BITMAP
FCFC
FCFC
3030
3030
6060
6060
C060
C0C0
E1C0
7FC0
3EC0
0180
0180
0180
01E0
01E0
ENDCHAR
STARTCHAR uni0275
ENCODING 629
SWIDTH 600 0
DWIDTH 15 0
BBX 12 11 2 0
BITMAP
0FC0
3FE0
7070
6030
FFF0
FFF0
C030
C060
E0E0
7FC0
3F00
ENDCHAR
STARTCHAR uni0279
ENCODING 633
SWIDTH 600 0
DWIDTH 15 0
BBX 14 11 1 0
BITMAP
0FFC
0FFC
0060
0060
00C0
00C0
00C0
0180
C380
FFE0
7DE0
ENDCHAR
STARTCHAR uni0287
ENCODING 647
SWIDTH 600 0
DWIDTH 15 0
BBX 10 15 3 0
BITMAP
1F00
7F80
61C0
00C0
00C0
0180
0180
0180
0300
FFC0
FFC0
0600
0600
0C00
0C00
ENDCHAR
STARTCHAR uni0289
ENCODING 649
SWIDTH 600 0
DWIDTH 15 0
BBX 12 11 2 0
BITMAP
F0F0
F0F0
3030
6030
FFF0
FFF0
C060
C0C0
E1C0
7FF0
3EF0
ENDCHAR
STARTCHAR uni028C
ENCODING 652
SWIDTH 600 0
DWIDTH 15 0
BBX 14 11 1 0
BITMAP
00C0
01C0
03C0
0660
0660
0C60
1860
1830
3030
FCFC
FCFC
ENDCHAR
STARTCHAR uni028D
ENCODING 653
SWIDTH 600 0
DWIDTH 15 0
BBX 14 11 2 0
BITMAP
0618
0E38
0E78
1B58
1BD8
3398
3398
6318
6318
F87C
F87C
ENDCHAR
STARTCHAR uni028E
ENCODING 654
SWIDTH 600 0
DWIDTH 15 0
BBX 15 16 0 0
BITMAP
00FE
00FE
0030
0060
00C0
0180
0380
0780
06C0
0CC0
18C0
3860
3060
6060
F9F0
F9F0
ENDCHAR
STARTCHAR uni029E
ENCODING 670
SWIDTH 600 0
DWIDTH 15 0
BBX 13 16 1 -5
BITMAP
F078
F078
3860
1C60
0E60
07C0
0FC0
1CC0
38C0
F180
F180
0180
0300
0300
03C0
03C0
ENDCHAR
STARTCHAR uni02BB
ENCODING 699
SWIDTH 600 0
DWIDTH 15 0
BBX 4 6 8 9
BITMAP
E0
E0
60
30
30
10
ENDCHAR
STARTCHAR afii57929
ENCODING 700
SWIDTH 600 0
DWIDTH 15 0
BBX 5 6 7 9
BITMAP
38
38
70
60
C0
80
ENDCHAR
STARTCHAR afii64937
ENCODING 701
SWIDTH 600 0
DWIDTH 15 0
BBX 5 6 7 9
BITMAP
E0
E0
70
30
18
08
ENDCHAR
STARTCHAR circumflex
ENCODING 710
SWIDTH 600 0
DWIDTH 15 0
BBX 7 3 6 12
BITMAP
38
6C
C6
ENDCHAR
STARTCHAR caron
ENCODING 711
SWIDTH 600 0
DWIDTH 15 0
BBX 7 3 6 12
BITMAP
C6
6C
38
ENDCHAR
STARTCHAR uni02C8
ENCODING 712
SWIDTH 600 0
DWIDTH 15 0
BBX 4 7 7 8
BITMAP
70
70
70
70
E0
E0
E0
ENDCHAR
STARTCHAR macron
ENCODING 713
SWIDTH 600 0
DWIDTH 15 0
BBX 7 2 7 12
BITMAP
FE
FE
ENDCHAR
STARTCHAR uni02CA
ENCODING 714
SWIDTH 600 0
DWIDTH 15 0
BBX 6 4 8 11
BITMAP
1C
38
70
E0
ENDCHAR
STARTCHAR uni02CB
ENCODING 715
SWIDTH 600 0
DWIDTH 15 0
BBX 5 4 7 11
BITMAP
C0
60
30
18
ENDCHAR
STARTCHAR uni02CD
ENCODING 717
SWIDTH 600 0
DWIDTH 15 0
BBX 7 2 7 -3
BITMAP
FE
FE
ENDCHAR
STARTCHAR uni02CE
ENCODING 718
SWIDTH 600 0
DWIDTH 15 0
BBX 5 4 7 -5
BITMAP
C0
60
30
18
ENDCHAR
STARTCHAR uni02CF
ENCODING 719
SWIDTH 600 0
DWIDTH 15 0
BBX 6 4 8 -5
BITMAP
1C
38
70
E0
ENDCHAR
STARTCHAR breve
ENCODING 728
SWIDTH 600 0
DWIDTH 15 0
BBX 8 3 6 12
BITMAP
C3
66
3C
ENDCHAR
STARTCHAR dotaccent
ENCODING 729
SWIDTH 600 0
DWIDTH 15 0
BBX 2 2 9 13
BITMAP
C0
C0
ENDCHAR
STARTCHAR ring
ENCODING 730
SWIDTH 600 0
DWIDTH 15 0
BBX 5 4 8 11
BITMAP
70
D8
D8
70
ENDCHAR
STARTCHAR ogonek
ENCODING 731
SWIDTH 600 0
DWIDTH 15 0
BBX 5 4 5 -4
BITMAP
60
C0
D8
70
ENDCHAR
STARTCHAR tilde
ENCODING 732
SWIDTH 600 0
DWIDTH 15 0
BBX 9 3 5 11
BITMAP
3980
7F00
CE00
ENDCHAR
STARTCHAR hungarumlaut
ENCODING 733
SWIDTH 600 0
DWIDTH 15 0
BBX 9 4 5 11
BITMAP
1980
3300
6600
CC00
ENDCHAR
STARTCHAR uni02EE
ENCODING 750
SWIDTH 600 0
DWIDTH 15 0
BBX 9 6 5 9
BITMAP
3B80
3B80
7700
6600
CC00
8800
ENDCHAR
STARTCHAR uni037E
ENCODING 894
SWIDTH 600 0
DWIDTH 15 0
BBX 6 14 4 -3
BITMAP
1C
1C
1C
00
00
00
00
00
38
38
70
60
C0
80
ENDCHAR
STARTCHAR tonos
ENCODING 900
SWIDTH 600 0
DWIDTH 15 0
BBX 6 4 8 11
BITMAP
1C
38
70
E0
ENDCHAR
STARTCHAR dieresistonos
ENCODING 901
SWIDTH 600 0
DWIDTH 15 0
BBX 7 8 6 12
BITMAP
0E
1C
38
70
00
C6
C6
C6
ENDCHAR
STARTCHAR anoteleia
ENCODING 903
SWIDTH 600 0
DWIDTH 15 0
BBX 4 4 6 5
BITMAP
70
F0
F0
E0
ENDCHAR
STARTCHAR mu
ENCODING 956
SWIDTH 600 0
DWIDTH 15 0
BBX 14 16 0 -5
BITMAP
3C3C
3C3C
0C0C
180C
1818
1818
3018
3030
3870
7FFC
7FBC
6000
E000
C000
C000
C000
ENDCHAR
STARTCHAR uni1E00
ENCODING 7680
SWIDTH 600 0
DWIDTH 15 0
BBX 14 20 0 -5
BITMAP
07E0
07E0
00E0
01E0
01B0
0330
0630
0630
0C30
1FF8
1FF8
3018
3018
FCFC
FCFC
0000
0380
06C0
06C0
0380
ENDCHAR
STARTCHAR uni1E01
ENCODING 7681
SWIDTH 600 0
DWIDTH 15 0
BBX 12 16 1 -5
BITMAP
0FC0
1FE0
1870
0030
0FF0
3FE0
7060
C0C0
C1C0
FFF0
7EF0
0000
0700
0D80
0D80
0700
ENDCHAR
STARTCHAR uni1E02
ENCODING 7682
SWIDTH 600 0
DWIDTH 15 0
BBX 15 18 0 0
BITMAP
0180
0180
0000
1FF8
1FFC
0606
0606
0C06
0C0C
0FF8
0FF8
181C
180C
180C
3018
3038
FFF0
FFE0
ENDCHAR
STARTCHAR uni1E03
ENCODING 7683
SWIDTH 600 0
DWIDTH 15 0
BBX 14 19 0 0
BITMAP
0600
0600
0000
1E00
1E00
0600
0600
0600
0DF0
0FF8
0E1C
0C0C
180C
180C
180C
3818
3C38
FFF0
F7C0
ENDCHAR
STARTCHAR uni1E04
ENCODING 7684
SWIDTH 600 0
DWIDTH 15 0
BBX 15 18 0 -3
BITMAP
1FF8
1FFC
0606
0606
0C06
0C0C
0FF8
0FF8
181C
180C
180C
3018
3038
FFF0
FFE0
0000
0300
0300
ENDCHAR
STARTCHAR uni1E05
ENCODING 7685
SWIDTH 600 0
DWIDTH 15 0
BBX 14 19 0 -3
BITMAP
1E00
1E00
0600
0600
0600
0DF0
0FF8
0E1C
0C0C
180C
180C
180C
3818
3C38
FFF0
F7C0
0000
0300
0300
ENDCHAR
STARTCHAR uni1E06
ENCODING 7686
SWIDTH 600 0
DWIDTH 15 0
BBX 15 18 0 -3
BITMAP
1FF8
1FFC
0606
0606
0C06
0C0C
0FF8
0FF8
181C
180C
180C
3018
3038
FFF0
FFE0
0000
1FC0
1FC0
ENDCHAR
STARTCHAR uni1E07
ENCODING 7687
SWIDTH 600 0
DWIDTH 15 0
BBX 14 19 0 -3
BITMAP
1E00
1E00
0600
0600
0600
0DF0
0FF8
0E1C
0C0C
180C
180C
180C
3818
3C38
FFF0
F7C0
0000
1FC0
1FC0
ENDCHAR
STARTCHAR uni1E08
ENCODING 7688
SWIDTH 600 0
DWIDTH 15 0
BBX 15 25 1 -5
BITMAP
0070
00E0
01C0
0380
0000
03F6
0FFE
1E0E
380C
700C
6000
E000
C000
C000
C000
C000
E030
7070
7FE0
1F80
0600
0F00
0300
1F00
0E00
ENDCHAR
STARTCHAR uni1E09
ENCODING 7689
SWIDTH 600 0
DWIDTH 15 0
BBX 12 21 2 -5
BITMAP
01C0
0380
0700
0E00
0000
0FB0
3FF0
3060
6060
6060
C000
C000
C000
E060
7FE0
3F80
0600
0F00
0300
1F00
0E00
ENDCHAR
STARTCHAR uni1E0A
ENCODING 7690
SWIDTH 600 0
DWIDTH 15 0
BBX 16 18 0 0
BITMAP
00C0
00C0
0000
1FFC
1FFE
0607
0603
0C03
0C03
0C03
1803
1806
1806
300C
300C
3038
FFF0
FFE0
ENDCHAR
STARTCHAR uni1E0B
ENCODING 7691
SWIDTH 600 0
DWIDTH 15 0
BBX 13 19 2 0
BITMAP
0060
0060
0000
0078
0078
0018
0018
0030
0F30
3FB0
70F0
6060
C060
C060
C0C0
C0C0
E1C0
7FF0
3EF0
ENDCHAR
STARTCHAR uni1E0C
ENCODING 7692
SWIDTH 600 0
DWIDTH 15 0
BBX 16 18 0 -3
BITMAP
1FFC
1FFE
0607
0603
0C03
0C03
0C03
1803
1806
1806
300C
300C
3038
FFF0
FFE0
0000
0300
0300
ENDCHAR
STARTCHAR uni1E0D
ENCODING 7693
SWIDTH 600 0
DWIDTH 15 0
BBX 13 19 2 -3
BITMAP
0078
0078
0018
0018
0030
0F30
3FB0
70F0
6060
C060
C060
C0C0
C0C0
E1C0
7FF0
3EF0
0000
0600
0600
ENDCHAR
STARTCHAR uni1E0E
ENCODING 7694
SWIDTH 600 0
DWIDTH 15 0
BBX 16 18 0 -3
BITMAP
1FFC
1FFE
0607
0603
0C03
0C03
0C03
1803
1806
1806
300C
300C
3038
FFF0
FFE0
0000
1FC0
1FC0
ENDCHAR
STARTCHAR uni1E0F
ENCODING 7695
SWIDTH 600 0
DWIDTH 15 0
BBX 13 19 2 -3
BITMAP
0078
0078
0018
0018
0030
0F30
3FB0
70F0
6060
C060
C060
C0C0
C0C0
E1C0
7FF0
3EF0
0000
1FC0
1FC0
ENDCHAR
STARTCHAR uni1E10
ENCODING 7696
SWIDTH 600 0
DWIDTH 15 0
BBX 16 20 0 -5
BITMAP
1FFC
1FFE
0607
0603
0C03
0C03
0C03
1803
1806
1806
300C
300C
3038
FFF0
FFE0
0300
0780
0180
0F80
0700
ENDCHAR
STARTCHAR uni1E11
ENCODING 7697
SWIDTH 600 0
DWIDTH 15 0
BBX 13 21 2 -5
BITMAP
0078
0078
0018
0018
0030
0F30
3FB0
70F0
6060
C060
C060
C0C0
C0C0
E1C0
7FF0
3FF0
0600
0F00
0300
1F00
0E00
ENDCHAR
STARTCHAR uni1E12
ENCODING 7698
SWIDTH 600 0
DWIDTH 15 0
BBX 16 19 0 -4
BITMAP
1FFC
1FFE
0607
0603
0C03
0C03
0C03
1803
1806
1806
300C
300C
3038
FFF0
FFE0
0000
0700
0D80
18C0
ENDCHAR
STARTCHAR uni1E13
ENCODING 7699
SWIDTH 600 0
DWIDTH 15 0
BBX 13 20 2 -4
BITMAP
0078
0078
0018
0018
0030
0F30
3FB0
70F0
6060
C060
C060
C0C0
C0C0
E1C0
7FF0
3EF0
0000
0700
0D80
18C0
ENDCHAR
STARTCHAR uni1E14
ENCODING 7700
SWIDTH 600 0
DWIDTH 15 0
BBX 15 23 0 0
BITMAP
0600
0300
0180
00C0
0000
07F0
07F0
0000
1FFE
1FFE
0606
060C
0C6C
0C60
0FE0
0FC0
18C0
18C0
180C
300C
3018
FFF8
FFF8
ENDCHAR
STARTCHAR uni1E15
ENCODING 7701
SWIDTH 600 0
DWIDTH 15 0
BBX 11 19 2 0
BITMAP
1800
0C00
0600
0300
0000
3F80
3F80
0000
0F80
3FC0
70E0
6060
C060
FFE0
FFE0
C000
E0C0
7FC0
3F00
ENDCHAR
STARTCHAR uni1E16
ENCODING 7702
SWIDTH 600 0
DWIDTH 15 0
BBX 15 23 0 0
BITMAP
0070
00E0
01C0
0380
0000
07F0
07F0
0000
1FFE
1FFE
0606
060C
0C6C
0C60
0FE0
0FC0
18C0
18C0
180C
300C
3018
FFF8
FFF8
ENDCHAR
STARTCHAR uni1E17
ENCODING 7703
SWIDTH 600 0
DWIDTH 15 0
BBX 11 19 2 0
BITMAP
0380
0700
0E00
1C00
0000
3F80
3F80
0000
0F80
3FC0
70E0
6060
C060
FFE0
FFE0
C000
E0C0
7FC0
3F00
ENDCHAR
STARTCHAR uni1E18
ENCODING 7704
SWIDTH 600 0
DWIDTH 15 0
BBX 15 19 0 -4
BITMAP
1FFE
1FFE
0606
060C
0C6C
0C60
0FE0
0FC0
18C0
18C0
180C
300C
3018
FFF8
FFF8
0000
0380
06C0
0C60
ENDCHAR
STARTCHAR uni1E19
ENCODING 7705
SWIDTH 600 0
DWIDTH 15 0
BBX 11 15 2 -4
BITMAP
0F80
3FC0
70E0
6060
C060
FFE0
FFE0
C000
E0C0
7FC0
3F00
0000
0E00
1B00
3180
ENDCHAR
STARTCHAR uni1E1A
ENCODING 7706
SWIDTH 600 0
DWIDTH 15 0
BBX 15 19 0 -4
BITMAP
1FFE
1FFE
0606
060C
0C6C
0C60
0FE0
0FC0
18C0
18C0
180C
300C
3018
FFF8
FFF8
0000
0E60
1FC0
3380
ENDCHAR
STARTCHAR uni1E1B
ENCODING 7707
SWIDTH 600 0
DWIDTH 15 0
BBX 11 15 2 -4
BITMAP
0F80
3FC0
70E0
6060
C060
FFE0
FFE0
C000
E0C0
7FC0
3F00
0000
3980
7F00
CE00
ENDCHAR
STARTCHAR uni1E1C
ENCODING 7708
SWIDTH 600 0
DWIDTH 15 0
BBX 15 24 0 -5
BITMAP
0618
0330
01E0
0000
1FFE
1FFE
0606
060C
0C6C
0C60
0FE0
0FC0
18C0
18C0
180C
300C
3018
FFF8
FFF8
0300
0780
0180
0F80
0700
ENDCHAR
STARTCHAR uni1E1D
ENCODING 7709
SWIDTH 600 0
DWIDTH 15 0
BBX 11 20 2 -5
BITMAP
30C0
1980
0F00
0000
0F80
3FC0
70E0
6060
C060
FFE0
FFE0
C000
E0C0
7FC0
3F00
0C00
1E00
0600
3E00
1C00
ENDCHAR
STARTCHAR uni1E1E
ENCODING 7710
SWIDTH 600 0
DWIDTH 15 0
BBX 16 18 0 0
BITMAP
00C0
00C0
0000
1FFF
1FFF
0603
0606
0C66
0C60
0FE0
0FC0
18C0
18C0
1800
3000
3000
FF00
FF00
ENDCHAR
STARTCHAR uni1E1F
ENCODING 7711
SWIDTH 600 0
DWIDTH 15 0
BBX 14 19 2 0
BITMAP
00C0
00C0
0000
007C
01FC
0380
0300
0300
3FF0
3FF0
0600
0600
0C00
0C00
0C00
1800
1800
FFC0
FFC0
ENDCHAR
STARTCHAR uni1E20
ENCODING 7712
SWIDTH 600 0
DWIDTH 15 0
BBX 15 18 1 0
BITMAP
07F0
07F0
0000
03F6
0FFE
1E0E
380C
700C
6000
E000
C000
C1F8
C1F8
C018
E030
7070
7FE0
1FC0
ENDCHAR
STARTCHAR uni1E21
ENCODING 7713
SWIDTH 600 0
DWIDTH 15 0
BBX 14 19 2 -5
BITMAP
0FE0
0FE0
0000
0FBC
3FFC
70F0
6060
C060
C060
C060
C0C0
E1C0
7FC0
3EC0
0180
0180
0380
FF00
FE00
ENDCHAR
STARTCHAR uni1E22
ENCODING 7714
SWIDTH 600 0
DWIDTH 15 0
BBX 17 18 0 0
BITMAP
006000
006000
000000
1F9F80
1F9F80
060600
060600
0C0C00
0C0C00
0FFC00
0FFC00
181800
181800
181800
303000
303000
FCFC00
FCFC00
ENDCHAR
STARTCHAR uni1E23
ENCODING 7715
SWIDTH 600 0
DWIDTH 15 0
BBX 14 19 0 0
BITMAP
0600
0600
0000
1E00
1E00
0600
0600
0600
0DF0
0FF8
0E1C
0C0C
180C
1818
1818
3030
3030
FCFC
FCFC
ENDCHAR
STARTCHAR uni1E24
ENCODING 7716
SWIDTH 600 0
DWIDTH 15 0
BBX 17 18 0 -3
BITMAP
1F9F80
1F9F80
060600
060600
0C0C00
0C0C00
0FFC00
0FFC00
181800
181800
181800
303000
303000
FCFC00
FCFC00
000000
018000
018000
ENDCHAR
STARTCHAR uni1E25
ENCODING 7717
SWIDTH 600 0
DWIDTH 15 0
BBX 14 19 0 -3
BITMAP
1E00
1E00
0600
0600
0600
0DF0
0FF8
0E1C
0C0C
180C
1818
1818
3030
3030
FCFC
FCFC
0000
0300
0300
ENDCHAR
STARTCHAR uni1E26
ENCODING 7718
SWIDTH 600 0
DWIDTH 15 0
BBX 17 19 0 0
BITMAP
031800
031800
031800
000000
1F9F80
1F9F80
060600
060600
0C0C00
0C0C00
0FFC00
0FFC00
181800
181800
181800
303000
303000
FCFC00
FCFC00
ENDCHAR
STARTCHAR uni1E27
ENCODING 7719
SWIDTH 600 0
DWIDTH 15 0
BBX 14 20 0 0
BITMAP
3180
3180
3180
0000
1E00
1E00
0600
0600
0600
0DF0
0FF8
0E1C
0C0C
180C
1818
1818
3030
3030
FCFC
FCFC
ENDCHAR
STARTCHAR uni1E28
ENCODING 7720
SWIDTH 600 0
DWIDTH 15 0
BBX 17 20 0 -5
BITMAP
1F9F80
1F9F80
060600
060600
0C0C00
0C0C00
0FFC00
0FFC00
181800
181800
181800
303000
303000
FCFC00
FDFC00
030000
078000
018000
0F8000
070000
ENDCHAR
STARTCHAR uni1E29
ENCODING 7721
SWIDTH 600 0
DWIDTH 15 0
BBX 14 21 0 -5
BITMAP
1E00
1E00
0600
0600
0600
0DF0
0FF8
0E1C
0C0C
180C
1818
1818
3030
3030
FCFC
FDFC
0300
0780
0180
0F80
0700
ENDCHAR
STARTCHAR uni1E2A
ENCODING 7722
SWIDTH 600 0
DWIDTH 15 0
BBX 17 19 0 -4
BITMAP
1F9F80
1F9F80
060600
060600
0C0C00
0C0C00
0FFC00
0FFC00
181800
181800
181800
303000
303000
FCFC00
FCFC00
000000
0C3000
066000
03C000
ENDCHAR
STARTCHAR uni1E2B
ENCODING 7723
SWIDTH 600 0
DWIDTH 15 0
BBX 14 20 0 -4
BITMAP
1E00
1E00
0600
0600
0600
0DF0
0FF8
0E1C
0C0C
180C
1818
1818
3030
3030
FCFC
FCFC
0000
1860
0CC0
0780
ENDCHAR
STARTCHAR uni1E2C
ENCODING 7724
SWIDTH 600 0
DWIDTH 15 0
BBX 13 19 2 -4
BITMAP
1FF8
1FF8
0180
0180
0300
0300
0300
0600
0600
0600
0C00
0C00
0C00
FFC0
FFC0
0000
3980
7F00
CE00
ENDCHAR
STARTCHAR uni1E2D
ENCODING 7725
SWIDTH 600 0
DWIDTH 15 0
BBX 10 20 2 -4
BITMAP
01C0
03C0
0380
0000
0000
1F00
1F00
0300
0300
0600
0600
0600
0C00
0C00
FFC0
FFC0
0000
3980
7F00
CE00
ENDCHAR
STARTCHAR uni1E2E
ENCODING 7726
SWIDTH 600 0
DWIDTH 15 0
BBX 13 24 2 0
BITMAP
00E0
01C0
0380
0700
0000
0630
0630
0630
0000
1FF8
1FF8
0180
0180
0300
0300
0300
0600
0600
0600
0C00
0C00
0C00
FFC0
FFC0
ENDCHAR
STARTCHAR uni1E2F
ENCODING 7727
SWIDTH 600 0
DWIDTH 15 0
BBX 10 20 2 0
BITMAP
01C0
0380
0700
0E00
0000
0CC0
0CC0
0CC0
0000
1F00
1F00
0300
0300
0600
0600
0600
0C00
0C00
FFC0
FFC0
ENDCHAR
STARTCHAR uni1E30
ENCODING 7728
SWIDTH 600 0
DWIDTH 15 0
BBX 16 20 0 0
BITMAP
0070
00E0
01C0
0380
0000
1F9F
1F9F
0618
0630
0C60
0CC0
0F80
1F80
19C0
18C0
30E0
3060
3070
FC3C
FC3C
ENDCHAR
STARTCHAR uni1E31
ENCODING 7729
SWIDTH 600 0
DWIDTH 15 0
BBX 13 21 1 0
BITMAP
0380
0700
0E00
1C00
0000
1E00
1E00
0600
0600
0C00
0C78
0C78
18E0
19C0
1F80
1F00
3380
31C0
30E0
F078
F078
ENDCHAR
STARTCHAR uni1E32
ENCODING 7730
SWIDTH 600 0
DWIDTH 15 0
BBX 16 18 0 -3
BITMAP
1F9F
1F9F
0618
0630
0C60
0CC0
0F80
1F80
19C0
18C0
30E0
3060
3070
FC3C
FC3C
0000
0300
0300
ENDCHAR
STARTCHAR uni1E33
ENCODING 7731
SWIDTH 600 0
DWIDTH 15 0
BBX 13 19 1 -3
BITMAP
1E00
1E00
0600
0600
0C00
0C78
0C78
18E0
19C0
1F80
1F00
3380
31C0
30E0
F078
F078
0000
0600
0600
ENDCHAR
STARTCHAR uni1E34
ENCODING 7732
SWIDTH 600 0
DWIDTH 15 0
BBX 16 18 0 -3
BITMAP
1F9F
1F9F
0618
0630
0C60
0CC0
0F80
1F80
19C0
18C0
30E0
3060
3070
FC3C
FC3C
0000
0FE0
0FE0
ENDCHAR
STARTCHAR uni1E35
ENCODING 7733
SWIDTH 600 0
DWIDTH 15 0
BBX 13 19 1 -3
BITMAP
1E00
1E00
0600
0600
0C00
0C78
0C78
18E0
19C0
1F80
1F00
3380
31C0
30E0
F078
F078
0000
1FC0
1FC0
ENDCHAR
STARTCHAR uni1E36
ENCODING 7734
SWIDTH 600 0
DWIDTH 15 0
BBX 13 18 1 -3
BITMAP
1FE0
1FE0
0300
0300
0600
0600
0600
0C00
0C00
0C00
1818
1818
1830
FFF0
FFF0
0000
0600
0600
ENDCHAR
STARTCHAR uni1E37
ENCODING 7735
SWIDTH 600 0
DWIDTH 15 0
BBX 10 19 2 -3
BITMAP
0F80
0F80
0180
0180
0300
0300
0300
0600
0600
0600
0600
0C00
0C00
0C00
FFC0
FFC0
0000
0C00
0C00
ENDCHAR
STARTCHAR uni1E38
ENCODING 7736
SWIDTH 600 0
DWIDTH 15 0
BBX 13 21 1 -3
BITMAP
1FC0
1FC0
0000
1FE0
1FE0
0300
0300
0600
0600
0600
0C00
0C00
0C00
1818
1818
1830
FFF0
FFF0
0000
0600
0600
ENDCHAR
STARTCHAR uni1E39
ENCODING 7737
SWIDTH 600 0
DWIDTH 15 0
BBX 10 22 2 -3
BITMAP
1FC0
1FC0
0000
0F80
0F80
0180
0180
0300
0300
0300
0600
0600
0600
0600
0C00
0C00
0C00
FFC0
FFC0
0000
0C00
0C00
ENDCHAR
STARTCHAR uni1E3A
ENCODING 7738
SWIDTH 600 0
DWIDTH 15 0
BBX 13 18 1 -3
BITMAP
1FE0
1FE0
0300
0300
0600
0600
0600
0C00
0C00
0C00
1818
1818
1830
FFF0
FFF0
0000
1FC0
1FC0
ENDCHAR
STARTCHAR uni1E3B
ENCODING 7739
SWIDTH 600 0
DWIDTH 15 0
BBX 10 19 2 -3
BITMAP
0F80
0F80
0180
0180
0300
0300
0300
0600
0600
0600
0600
0C00
0C00
0C00
FFC0
FFC0
0000
3F80
3F80
ENDCHAR
STARTCHAR uni1E3C
ENCODING 7740
SWIDTH 600 0
DWIDTH 15 0
BBX 13 19 1 -4
BITMAP
1FE0
1FE0
0300
0300
0600
0600
0600
0C00
0C00
0C00
1818
1818
1830
FFF0
FFF0
0000
0700
0D80
18C0
ENDCHAR
STARTCHAR uni1E3D
ENCODING 7741
SWIDTH 600 0
DWIDTH 15 0
BBX 10 20 2 -4
BITMAP
0F80
0F80
0180
0180
0300
0300
0300
0600
0600
0600
0600
0C00
0C00
0C00
FFC0
FFC0
0000
0E00
1B00
3180
ENDCHAR
STARTCHAR uni1E3E
ENCODING 7742
SWIDTH 600 0
DWIDTH 15 0
BBX 17 20 0 0
BITMAP
003800
007000
00E000
01C000
000000
1E0780
1E0F80
0E0F00
0E1F00
1E3600
1B3600
1B6600
336C00
33CC00
318C00
619800
601800
601800
F87C00
F87C00
ENDCHAR
STARTCHAR uni1E3F
ENCODING 7743
SWIDTH 600 0
DWIDTH 15 0
BBX 15 16 0 0
BITMAP
0070
00E0
01C0
0380
0000
77BC
7FFE
1CE6
18C6
318C
318C
318C
6318
6318
F3DC
F3DC
ENDCHAR
STARTCHAR uni1E40
ENCODING 7744
SWIDTH 600 0
DWIDTH 15 0
BBX 17 18 0 0
BITMAP
006000
006000
000000
1E0780
1E0F80
0E0F00
0E1F00
1E3600
1B3600
1B6600
336C00
33CC00
318C00
619800
601800
601800
F87C00
F87C00
ENDCHAR
STARTCHAR uni1E41
ENCODING 7745
SWIDTH 600 0
DWIDTH 15 0
BBX 15 14 0 0
BITMAP
0180
0180
0000
77BC
7FFE
1CE6
18C6
318C
318C
318C
6318
6318
F3DC
F3DC
ENDCHAR
STARTCHAR uni1E42
ENCODING 7746
SWIDTH 600 0
DWIDTH 15 0
BBX 17 18 0 -3
BITMAP
1E0780
1E0F80
0E0F00
0E1F00
1E3600
1B3600
1B6600
336C00
33CC00
318C00
619800
601800
601800
F87C00
F87C00
000000
018000
018000
ENDCHAR
STARTCHAR uni1E43
ENCODING 7747
SWIDTH 600 0
DWIDTH 15 0
BBX 15 14 0 -3
BITMAP
77BC
7FFE
1CE6
18C6
318C
318C
318C
6318
6318
F3DC
F3DC
0000
0300
0300
ENDCHAR
STARTCHAR uni1E44
ENCODING 7748
SWIDTH 600 0
DWIDTH 15 0
BBX 16 18 0 0
BITMAP
00C0
00C0
0000
1E1F
1E1F
0E06
0E06
1B0C
1B0C
1B0C
198C
3198
3198
30D8
60D8
60F0
F870
F870
ENDCHAR
STARTCHAR uni1E45
ENCODING 7749
SWIDTH 600 0
DWIDTH 15 0
BBX 14 14 0 0
BITMAP
0300
0300
0000
3CF0
3DF8
0F1C
0E0C
180C
1818
1818
3030
3030
FCFC
FCFC
ENDCHAR
STARTCHAR uni1E46
ENCODING 7750
SWIDTH 600 0
DWIDTH 15 0
BBX 16 18 0 -3
BITMAP
1E1F
1E1F
0E06
0E06
1B0C
1B0C
1B0C
198C
3198
3198
30D8
60D8
60F0
F870
F870
0000
0300
0300
ENDCHAR
STARTCHAR uni1E47
ENCODING 7751
SWIDTH 600 0
DWIDTH 15 0
BBX 14 14 0 -3
BITMAP
3CF0
3DF8
0F1C
0E0C
180C
1818
1818
3030
3030
FCFC
FCFC
0000
0300
0300
ENDCHAR
STARTCHAR uni1E48
ENCODING 7752
SWIDTH 600 0
DWIDTH 15 0
BBX 16 18 0 -3
BITMAP
1E1F
1E1F
0E06
0E06
1B0C
1B0C
1B0C
198C
3198
3198
30D8
60D8
60F0
F870
F870
0000
1FC0
1FC0
ENDCHAR
STARTCHAR uni1E49
ENCODING 7753
SWIDTH 600 0
DWIDTH 15 0
BBX 14 14 0 -3
BITMAP
3CF0
3DF8
0F1C
0E0C
180C
1818
1818
3030
3030
FCFC
FCFC
0000
0FE0
0FE0
ENDCHAR
STARTCHAR uni1E4A
ENCODING 7754
SWIDTH 600 0
DWIDTH 15 0
BBX 16 19 0 -4
BITMAP
1E1F
1E1F
0E06
0E06
1B0C
1B0C
1B0C
198C
3198
3198
30D8
60D8
60F0
F870
F870
0000
0700
0D80
18C0
ENDCHAR
STARTCHAR uni1E4B
ENCODING 7755
SWIDTH 600 0
DWIDTH 15 0
BBX 14 15 0 -4
BITMAP
3CF0
3DF8
0F1C
0E0C
180C
1818
1818
3030
3030
FCFC
FCFC
0000
0380
06C0
0C60
ENDCHAR
STARTCHAR uni1E4C
ENCODING 7756
SWIDTH 600 0
DWIDTH 15 0
BBX 14 24 1 0
BITMAP
0070
00E0
01C0
0380
0000
01CC
03F8
0670
0000
03E0
0FF8
1C38
381C
700C
600C
E00C
C00C
C01C
C018
C038
E070
71E0
7FC0
1F00
ENDCHAR
STARTCHAR uni1E4D
ENCODING 7757
SWIDTH 600 0
DWIDTH 15 0
BBX 12 20 2 0
BITMAP
00E0
01C0
0380
0700
0000
0730
0FE0
19C0
0000
0FC0
3FE0
7070
6030
C030
C030
C030
C060
E0E0
7FC0
3F00
ENDCHAR
STARTCHAR uni1E4E
ENCODING 7758
SWIDTH 600 0
DWIDTH 15 0
BBX 14 23 1 0
BITMAP
0630
0630
0630
0000
01CC
03F8
0670
0000
03E0
0FF8
1C38
381C
700C
600C
E00C
C00C
C01C
C018
C038
E070
71E0
7FC0
1F00
ENDCHAR
STARTCHAR uni1E4F
ENCODING 7759
SWIDTH 600 0
DWIDTH 15 0
BBX 12 19 2 0
BITMAP
0C60
0C60
0C60
0000
0730
0FE0
19C0
0000
0FC0
3FE0
7070
6030
C030
C030
C030
C060
E0E0
7FC0
3F00
ENDCHAR
STARTCHAR uni1E50
ENCODING 7760
SWIDTH 600 0
DWIDTH 15 0
BBX 14 23 1 0
BITMAP
0600
0300
0180
00C0
0000
0FE0
0FE0
0000
03E0
0FF8
1C38
381C
700C
600C
E00C
C00C
C01C
C018
C038
E070
71E0
7FC0
1F00
ENDCHAR
STARTCHAR uni1E51
ENCODING 7761
SWIDTH 600 0
DWIDTH 15 0
BBX 12 19 2 0
BITMAP
1800
0C00
0600
0300
0000
1FC0
1FC0
0000
0FC0
3FE0
7070
6030
C030
C030
C030
C060
E0E0
7FC0
3F00
ENDCHAR
STARTCHAR uni1E52
ENCODING 7762
SWIDTH 600 0
DWIDTH 15 0
BBX 14 23 1 0
BITMAP
00E0
01C0
0380
0700
0000
0FE0
0FE0
0000
03E0
0FF8
1C38
381C
700C
600C
E00C
C00C
C01C
C018
C038
E070
71E0
7FC0
1F00
ENDCHAR
STARTCHAR uni1E53
ENCODING 7763
SWIDTH 600 0
DWIDTH 15 0
BBX 12 19 2 0
BITMAP
01C0
0380
0700
0E00
0000
1FC0
1FC0
0000
0FC0
3FE0
7070
6030
C030
C030
C030
C060
E0E0
7FC0
3F00
ENDCHAR
STARTCHAR uni1E54
ENCODING 7764
SWIDTH 600 0
DWIDTH 15 0
BBX 16 20 0 0
BITMAP
0070
00E0
01C0
0380
0000
1FF8
1FFE
0607
0603
0C03
0C03
0C06
180E
1FFC
1FF0
1800
3000
3000
FF00
FF00
ENDCHAR
STARTCHAR uni1E55
ENCODING 7765
SWIDTH 600 0
DWIDTH 15 0
BBX 15 21 -1 -5
BITMAP
0070
00E0
01C0
0380
0000
1EF8
1FFC
070E
0606
0C06
0C06
0C06
1C0C
1E1C
1BF8
19E0
3000
3000
3000
FE00
FE00
ENDCHAR
STARTCHAR uni1E56
ENCODING 7766
SWIDTH 600 0
DWIDTH 15 0
BBX 16 18 0 0
BITMAP
00C0
00C0
0000
1FF8
1FFE
0607
0603
0C03
0C03
0C06
180E
1FFC
1FF0
1800
3000
3000
FF00
FF00
ENDCHAR
STARTCHAR uni1E57
ENCODING 7767
SWIDTH 600 0
DWIDTH 15 0
BBX 15 19 -1 -5
BITMAP
0180
0180
0000
1EF8
1FFC
070E
0606
0C06
0C06
0C06
1C0C
1E1C
1BF8
19E0
3000
3000
3000
FE00
FE00
ENDCHAR
STARTCHAR uni1E58
ENCODING 7768
SWIDTH 600 0
DWIDTH 15 0
BBX 15 18 0 0
BITMAP
0180
0180
0000
1FF0
1FFC
060E
0606
0C06
0C0E
0C1C
1FF8
1FC0
18E0
1860
3070
3030
FC3C
FC3C
ENDCHAR
STARTCHAR uni1E59
ENCODING 7769
SWIDTH 600 0
DWIDTH 15 0
BBX 14 14 1 0
BITMAP
0180
0180
0000
1EF8
1FFC
070C
0600
0C00
0C00
0C00
1800
1800
FFC0
FFC0
ENDCHAR
STARTCHAR uni1E5A
ENCODING 7770
SWIDTH 600 0
DWIDTH 15 0
BBX 15 18 0 -3
BITMAP
1FF0
1FFC
060E
0606
0C06
0C0E
0C1C
1FF8
1FC0
18E0
1860
3070
3030
FC3C
FC3C
0000
0300
0300
ENDCHAR
STARTCHAR uni1E5B
ENCODING 7771
SWIDTH 600 0
DWIDTH 15 0
BBX 14 14 1 -3
BITMAP
1EF8
1FFC
070C
0600
0C00
0C00
0C00
1800
1800
FFC0
FFC0
0000
0600
0600
ENDCHAR
STARTCHAR uni1E5C
ENCODING 7772
SWIDTH 600 0
DWIDTH 15 0
BBX 15 21 0 -3
BITMAP
07F0
07F0
0000
1FF0
1FFC
060E
0606
0C06
0C0E
0C1C
1FF8
1FC0
18E0
1860
3070
3030
FC3C
FC3C
0000
0300
0300
ENDCHAR
STARTCHAR uni1E5D
ENCODING 7773
SWIDTH 600 0
DWIDTH 15 0
BBX 14 17 1 -3
BITMAP
0FE0
0FE0
0000
1EF8
1FFC
070C
0600
0C00
0C00
0C00
1800
1800
FFC0
FFC0
0000
0600
0600
ENDCHAR
STARTCHAR uni1E5E
ENCODING 7774
SWIDTH 600 0
DWIDTH 15 0
BBX 15 18 0 -3
BITMAP
1FF0
1FFC
060E
0606
0C06
0C0E
0C1C
1FF8
1FC0
18E0
1860
3070
3030
FC3C
FC3C
0000
0FE0
0FE0
ENDCHAR
STARTCHAR uni1E5F
ENCODING 7775
SWIDTH 600 0
DWIDTH 15 0
BBX 14 14 1 -3
BITMAP
1EF8
1FFC
070C
0600
0C00
0C00
0C00
1800
1800
FFC0
FFC0
0000
3F80
3F80
ENDCHAR
STARTCHAR uni1E60
ENCODING 7776
SWIDTH 600 0
DWIDTH 15 0
BBX 15 18 1 0
BITMAP
00C0
00C0
0000
03F6
0FFE
0E0E
1C0C
180C
1E00
0F80
03E0
00F0
0038
6018
6018
7038
FFF0
CFE0
ENDCHAR
STARTCHAR uni1E61
ENCODING 7777
SWIDTH 600 0
DWIDTH 15 0
BBX 12 14 2 0
BITMAP
0300
0300
0000
0FB0
1FF0
3860
3860
1E00
0F80
03C0
60E0
60E0
FFC0
DF80
ENDCHAR
STARTCHAR uni1E62
ENCODING 7778
SWIDTH 600 0
DWIDTH 15 0
BBX 15 18 1 -3
BITMAP
03F6
0FFE
0E0E
1C0C
180C
1E00
0F80
03E0
00F0
0038
6018
6018
7038
FFF0
CFE0
0000
0300
0300
ENDCHAR
STARTCHAR uni1E63
ENCODING 7779
SWIDTH 600 0
DWIDTH 15 0
BBX 12 14 2 -3
BITMAP
0FB0
1FF0
3860
3860
1E00
0F80
03C0
60E0
60E0
FFC0
DF80
0000
0C00
0C00
ENDCHAR
STARTCHAR uni1E64
ENCODING 7780
SWIDTH 600 0
DWIDTH 15 0
BBX 15 23 1 0
BITMAP
00C0
00C0
0000
0070
00E0
01C0
0380
0000
03F6
0FFE
0E0E
1C0C
180C
1E00
0F80
03E0
00F0
0038
6018
6018
7038
FFF0
CFE0
ENDCHAR
STARTCHAR uni1E65
ENCODING 7781
SWIDTH 600 0
DWIDTH 15 0
BBX 12 19 2 0
BITMAP
0300
0300
0000
00E0
01C0
0380
0700
0000
0FB0
1FF0
3860
3860
1E00
0F80
03C0
60E0
60E0
FFC0
DF80
ENDCHAR
STARTCHAR uni1E66
ENCODING 7782
SWIDTH 600 0
DWIDTH 15 0
BBX 15 22 1 0
BITMAP
00C0
00C0
0000
0318
01B0
00E0
0000
03F6
0FFE
0E0E
1C0C
180C
1E00
0F80
03E0
00F0
0038
6018
6018
7038
FFF0
CFE0
ENDCHAR
STARTCHAR uni1E67
ENCODING 7783
SWIDTH 600 0
DWIDTH 15 0
BBX 12 18 2 0
BITMAP
0300
0300
0000
0C60
06C0
0380
0000
0FB0
1FF0
3860
3860
1E00
0F80
03C0
60E0
60E0
FFC0
DF80
ENDCHAR
STARTCHAR uni1E68
ENCODING 7784
SWIDTH 600 0
DWIDTH 15 0
BBX 15 21 1 -3
BITMAP
00C0
00C0
0000
03F6
0FFE
0E0E
1C0C
180C
1E00
0F80
03E0
00F0
0038
6018
6018
7038
FFF0
CFE0
0000
0300
0300
ENDCHAR
STARTCHAR uni1E69
ENCODING 7785
SWIDTH 600 0
DWIDTH 15 0
BBX 12 17 2 -3
BITMAP
0300
0300
0000
0FB0
1FF0
3860
3860
1E00
0F80
03C0
60E0
60E0
FFC0
DF80
0000
0C00
0C00
ENDCHAR
STARTCHAR uni1E6A
ENCODING 7786
SWIDTH 600 0
DWIDTH 15 0
BBX 13 18 3 0
BITMAP
0300
0300
0000
7FF8
7FF8
6318
C330
C630
C630
0600
0C00
0C00
0C00
1800
1800
1800
FF00
FF00
ENDCHAR
STARTCHAR uni1E6B
ENCODING 7787
SWIDTH 600 0
DWIDTH 15 0
BBX 10 18 3 0
BITMAP
0C00
0C00
0000
0C00
0C00
1800
1800
FFC0
FFC0
3000
6000
6000
6000
C000
C000
E180
7F80
3E00
ENDCHAR
STARTCHAR uni1E6C
ENCODING 7788
SWIDTH 600 0
DWIDTH 15 0
BBX 13 18 3 -3
BITMAP
7FF8
7FF8
6318
C330
C630
C630
0600
0C00
0C00
0C00
1800
1800
1800
FF00
FF00
0000
0C00
0C00
ENDCHAR
STARTCHAR uni1E6D
ENCODING 7789
SWIDTH 600 0
DWIDTH 15 0
BBX 10 18 3 -3
BITMAP
0C00
0C00
1800
1800
FFC0
FFC0
3000
6000
6000
6000
C000
C000
E180
7F80
3E00
0000
0C00
0C00
ENDCHAR
STARTCHAR uni1E6E
ENCODING 7790
SWIDTH 600 0
DWIDTH 15 0
BBX 13 18 3 -3
BITMAP
7FF8
7FF8
6318
C330
C630
C630
0600
0C00
0C00
0C00
1800
1800
1800
FF00
FF00
0000
7F00
7F00
ENDCHAR
STARTCHAR uni1E6F
ENCODING 7791
SWIDTH 600 0
DWIDTH 15 0
BBX 10 18 3 -3
BITMAP
0C00
0C00
1800
1800
FFC0
FFC0
3000
6000
6000
6000
C000
C000
E180
7F80
3E00
0000
7F00
7F00
ENDCHAR
STARTCHAR uni1E70
ENCODING 7792
SWIDTH 600 0
DWIDTH 15 0
BBX 13 19 3 -4
BITMAP
7FF8
7FF8
6318
C330
C630
C630
0600
0C00
0C00
0C00
1800
1800
1800
FF00
FF00
0000
1C00
3600
6300
ENDCHAR
STARTCHAR uni1E71
ENCODING 7793
SWIDTH 600 0
DWIDTH 15 0
BBX 10 19 3 -4
BITMAP
0C00
0C00
1800
1800
FFC0
FFC0
3000
6000
6000
6000
C000
C000
E180
7F80
3E00
0000
1C00
3600
6300
ENDCHAR
STARTCHAR uni1E72
ENCODING 7794
SWIDTH 600 0
DWIDTH 15 0
BBX 15 19 2 -4
BITMAP
7C7E
7C7E
3018
3018
6018
6030
6030
6030
C060
C060
C060
C0C0
E1C0
7F80
3F00
0000
3180
3180
3180
ENDCHAR
STARTCHAR uni1E73
ENCODING 7795
SWIDTH 600 0
DWIDTH 15 0
BBX 12 15 2 -4
BITMAP
F0F0
F0F0
3030
6030
6060
6060
C060
C0C0
E1C0
7FF0
3EF0
0000
18C0
18C0
18C0
ENDCHAR
STARTCHAR uni1E74
ENCODING 7796
SWIDTH 600 0
DWIDTH 15 0
BBX 15 19 2 -4
BITMAP
7C7E
7C7E
3018
3018
6018
6030
6030
6030
C060
C060
C060
C0C0
E1C0
7F80
3F00
0000
1CC0
3F80
6700
ENDCHAR
STARTCHAR uni1E75
ENCODING 7797
SWIDTH 600 0
DWIDTH 15 0
BBX 12 15 2 -4
BITMAP
F0F0
F0F0
3030
6030
6060
6060
C060
C0C0
E1C0
7FF0
3EF0
0000
1CC0
3F80
6700
ENDCHAR
STARTCHAR uni1E76
ENCODING 7798
SWIDTH 600 0
DWIDTH 15 0
BBX 15 19 2 -4
BITMAP
7C7E
7C7E
3018
3018
6018
6030
6030
6030
C060
C060
C060
C0C0
E1C0
7F80
3F00
0000
0E00
1B00
3180
ENDCHAR
STARTCHAR uni1E77
ENCODING 7799
SWIDTH 600 0
DWIDTH 15 0
BBX 12 15 2 -4
BITMAP
F0F0
F0F0
3030
6030
6060
6060
C060
C0C0
E1C0
7FF0
3EF0
0000
0700
0D80
18C0
ENDCHAR
STARTCHAR uni1E78
ENCODING 7800
SWIDTH 600 0
DWIDTH 15 0
BBX 15 24 2 0
BITMAP
0070
00E0
01C0
0380
0000
0398
07F0
0CE0
0000
7C7E
7C7E
3018
3018
6018
6030
6030
6030
C060
C060
C060
C0C0
E1C0
7F80
3F00
ENDCHAR
STARTCHAR uni1E79
ENCODING 7801
SWIDTH 600 0
DWIDTH 15 0
BBX 12 20 2 0
BITMAP
01C0
0380
0700
0E00
0000
0E60
1FC0
3380
0000
F0F0
F0F0
3030
6030
6060
6060
C060
C0C0
E1C0
7FF0
3EF0
ENDCHAR
STARTCHAR uni1E7A
ENCODING 7802
SWIDTH 600 0
DWIDTH 15 0
BBX 15 22 2 0
BITMAP
0C60
0C60
0C60
0000
0FE0
0FE0
0000
7C7E
7C7E
3018
3018
6018
6030
6030
6030
C060
C060
C060
C0C0
E1C0
7F80
3F00
ENDCHAR
STARTCHAR uni1E7B
ENCODING 7803
SWIDTH 600 0
DWIDTH 15 0
BBX 12 18 2 0
BITMAP
18C0
18C0
18C0
0000
1FC0
1FC0
0000
F0F0
F0F0
3030
6030
6060
6060
C060
C0C0
E1C0
7FF0
3EF0
ENDCHAR
STARTCHAR uni1E7C
ENCODING 7804
SWIDTH 600 0
DWIDTH 15 0
BBX 14 19 3 0
BITMAP
0730
0FE0
19C0
0000
F87C
F87C
6018
6030
6030
6060
6060
30C0
3180
3180
3300
3600
1E00
1C00
1800
ENDCHAR
STARTCHAR uni1E7D
ENCODING 7805
SWIDTH 600 0
DWIDTH 15 0
BBX 14 15 1 0
BITMAP
0730
0FE0
19C0
0000
FCFC
FCFC
3030
3060
1860
18C0
1980
1980
0F00
0E00
0C00
ENDCHAR
STARTCHAR uni1E7E
ENCODING 7806
SWIDTH 600 0
DWIDTH 15 0
BBX 14 18 3 -3
BITMAP
F87C
F87C
6018
6030
6030
6060
6060
30C0
3180
3180
3300
3600
1E00
1C00
1800
0000
0C00
0C00
ENDCHAR
STARTCHAR uni1E7F
ENCODING 7807
SWIDTH 600 0
DWIDTH 15 0
BBX 14 14 1 -3
BITMAP
FCFC
FCFC
3030
3060
1860
18C0
1980
1980
0F00
0E00
0C00
0000
0600
0600
ENDCHAR
STARTCHAR Wgrave
ENCODING 7808
SWIDTH 600 0
DWIDTH 15 0
BBX 15 20 2 0
BITMAP
0600
0300
0180
00C0
0000
7C3E
7C3E
300C
318C
3398
6398
6798
6798
6DB0
6DB0
D9B0
D9A0
F1E0
F1C0
E1C0
ENDCHAR
STARTCHAR wgrave
ENCODING 7809
SWIDTH 600 0
DWIDTH 15 0
BBX 14 16 2 0
BITMAP
0C00
0600
0300
0180
0000
F87C
F87C
6318
6318
6730
6730
6F60
6B60
79C0
71C0
6180
ENDCHAR
STARTCHAR Wacute
ENCODING 7810
SWIDTH 600 0
DWIDTH 15 0
BBX 15 20 2 0
BITMAP
0070
00E0
01C0
0380
0000
7C3E
7C3E
300C
318C
3398
6398
6798
6798
6DB0
6DB0
D9B0
D9A0
F1E0
F1C0
E1C0
ENDCHAR
STARTCHAR wacute
ENCODING 7811
SWIDTH 600 0
DWIDTH 15 0
BBX 14 16 2 0
BITMAP
00E0
01C0
0380
0700
0000
F87C
F87C
6318
6318
6730
6730
6F60
6B60
79C0
71C0
6180
ENDCHAR
STARTCHAR Wdieresis
ENCODING 7812
SWIDTH 600 0
DWIDTH 15 0
BBX 15 19 2 0
BITMAP
0C60
0C60
0C60
0000
7C3E
7C3E
300C
318C
3398
6398
6798
6798
6DB0
6DB0
D9B0
D9A0
F1E0
F1C0
E1C0
ENDCHAR
STARTCHAR wdieresis
ENCODING 7813
SWIDTH 600 0
DWIDTH 15 0
BBX 14 15 2 0
BITMAP
0C60
0C60
0C60
0000
F87C
F87C
6318
6318
6730
6730
6F60
6B60
79C0
71C0
6180
ENDCHAR
STARTCHAR uni1E86
ENCODING 7814
SWIDTH 600 0
DWIDTH 15 0
BBX 15 18 2 0
BITMAP
0180
0180
0000
7C3E
7C3E
300C
318C
3398
6398
6798
6798
6DB0
6DB0
D9B0
D9A0
F1E0
F1C0
E1C0
ENDCHAR
STARTCHAR uni1E87
ENCODING 7815
SWIDTH 600 0
DWIDTH 15 0
BBX 14 14 2 0
BITMAP
0300
0300
0000
F87C
F87C
6318
6318
6730
6730
6F60
6B60
79C0
71C0
6180
ENDCHAR
STARTCHAR uni1E88
ENCODING 7816
SWIDTH 600 0
DWIDTH 15 0
BBX 15 18 2 -3
BITMAP
7C3E
7C3E
300C
318C
3398
6398
6798
6798
6DB0
6DB0
D9B0
D9A0
F1E0
F1C0
E1C0
0000
0600
0600
ENDCHAR
STARTCHAR uni1E89
ENCODING 7817
SWIDTH 600 0
DWIDTH 15 0
BBX 14 14 2 -3
BITMAP
F87C
F87C
6318
6318
6730
6730
6F60
6B60
79C0
71C0
6180
0000
0600
0600
ENDCHAR
STARTCHAR uni1E8A
ENCODING 7818
SWIDTH 600 0
DWIDTH 15 0
BBX 17 18 0 0
BITMAP
00C000
00C000
000000
1F9F80
1F9F80
0E0E00
061800
033000
03E000
01E000
03C000
03C000
066000
0C7000
183000
383800
FCFC00
FCFC00
ENDCHAR
STARTCHAR uni1E8B
ENCODING 7819
SWIDTH 600 0
DWIDTH 15 0
BBX 14 14 1 0
BITMAP
0180
0180
0000
3E7C
3E7C
1830
0C60
06C0
0780
0F00
1980
30C0
F9F0
F9F0
ENDCHAR
STARTCHAR uni1E8C
ENCODING 7820
SWIDTH 600 0
DWIDTH 15 0
BBX 17 19 0 0
BITMAP
031800
031800
031800
000000
1F9F80
1F9F80
0E0E00
061800
033000
03E000
01E000
03C000
03C000
066000
0C7000
183000
383800
FCFC00
FCFC00
ENDCHAR
STARTCHAR uni1E8D
ENCODING 7821
SWIDTH 600 0
DWIDTH 15 0
BBX 14 15 1 0
BITMAP
0C60
0C60
0C60
0000
3E7C
3E7C
1830
0C60
06C0
0780
0F00
1980
30C0
F9F0
F9F0
ENDCHAR
STARTCHAR uni1E8E
ENCODING 7822
SWIDTH 600 0
DWIDTH 15 0
BBX 14 18 3 0
BITMAP
0300
0300
0000
FCFC
FCFC
7070
3060
38C0
1980
1B00
0E00
0E00
0C00
0C00
1800
1800
FF00
FF00
ENDCHAR
STARTCHAR uni1E8F
ENCODING 7823
SWIDTH 600 0
DWIDTH 15 0
BBX 15 19 0 -5
BITMAP
0180
0180
0000
1F3E
1F3E
0C0C
0C18
0C38
0630
0660
06C0
03C0
0380
0300
0600
0C00
1800
FE00
FE00
ENDCHAR
STARTCHAR uni1E90
ENCODING 7824
SWIDTH 600 0
DWIDTH 15 0
BBX 14 19 2 0
BITMAP
0380
06C0
0C60
0000
1FFC
1FFC
1838
3070
30E0
01C0
0380
0700
0E00
1C00
3830
7030
E060
FFE0
FFE0
ENDCHAR
STARTCHAR uni1E91
ENCODING 7825
SWIDTH 600 0
DWIDTH 15 0
BBX 11 15 2 0
BITMAP
0700
0D80
18C0
0000
3FE0
3FE0
30C0
3180
0700
0E00
1800
30C0
60C0
FFC0
FFC0
ENDCHAR
STARTCHAR uni1E92
ENCODING 7826
SWIDTH 600 0
DWIDTH 15 0
BBX 14 18 2 -3
BITMAP
1FFC
1FFC
1838
3070
30E0
01C0
0380
0700
0E00
1C00
3830
7030
E060
FFE0
FFE0
0000
0600
0600
ENDCHAR
STARTCHAR uni1E93
ENCODING 7827
SWIDTH 600 0
DWIDTH 15 0
BBX 11 14 2 -3
BITMAP
3FE0
3FE0
30C0
3180
0700
0E00
1800
30C0
60C0
FFC0
FFC0
0000
0C00
0C00
ENDCHAR
STARTCHAR uni1E94
ENCODING 7828
SWIDTH 600 0
DWIDTH 15 0
BBX 14 18 2 -3
BITMAP
1FFC
1FFC
1838
3070
30E0
01C0
0380
0700
0E00
1C00
3830
7030
E060
FFE0
FFE0
0000
3F80
3F80
ENDCHAR
STARTCHAR uni1E95
ENCODING 7829
SWIDTH 600 0
DWIDTH 15 0
BBX 11 14 2 -3
BITMAP
3FE0
3FE0
30C0
3180
0700
0E00
1800
30C0
60C0
FFC0
FFC0
0000
3F80
3F80
ENDCHAR
STARTCHAR uni1E96
ENCODING 7830
SWIDTH 600 0
DWIDTH 15 0
BBX 14 19 0 -3
BITMAP
1E00
1E00
0600
0600
0600
0DF0
0FF8
0E1C
0C0C
180C
1818
1818
3030
3030
FCFC
FCFC
0000
0FE0
0FE0
ENDCHAR
STARTCHAR uni1E97
ENCODING 7831
SWIDTH 600 0
DWIDTH 15 0
BBX 10 19 3 0
BITMAP
6300
6300
6300
0000
0C00
0C00
1800
1800
FFC0
FFC0
3000
6000
6000
6000
C000
C000
E180
7F80
3E00
ENDCHAR
STARTCHAR uni1E98
ENCODING 7832
SWIDTH 600 0
DWIDTH 15 0
BBX 14 16 2 0
BITMAP
0380
06C0
06C0
0380
0000
F87C
F87C
6318
6318
6730
6730
6F60
6B60
79C0
71C0
6180
ENDCHAR
STARTCHAR uni1E99
ENCODING 7833
SWIDTH 600 0
DWIDTH 15 0
BBX 15 21 0 -5
BITMAP
01C0
0360
0360
01C0
0000
1F3E
1F3E
0C0C
0C18
0C38
0630
0660
06C0
03C0
0380
0300
0600
0C00
1800
FE00
FE00
ENDCHAR
STARTCHAR uni1EA0
ENCODING 7840
SWIDTH 600 0
DWIDTH 15 0
BBX 14 18 0 -3
BITMAP
07E0
07E0
00E0
01E0
01B0
0330
0630
0630
0C30
1FF8
1FF8
3018
3018
FCFC
FCFC
0000
0300
0300
ENDCHAR
STARTCHAR uni1EA1
ENCODING 7841
SWIDTH 600 0
DWIDTH 15 0
BBX 12 14 1 -3
BITMAP
0FC0
1FE0
1870
0030
0FF0
3FE0
7060
C0C0
C1C0
FFF0
7EF0
0000
0600
0600
ENDCHAR
STARTCHAR uni1EA4
ENCODING 7844
SWIDTH 600 0
DWIDTH 15 0
BBX 14 25 0 0
BITMAP
0070
00E0
01C0
0380
0000
00E0
01F0
03B8
071C
0000
07E0
07E0
00E0
01E0
01B0
0330
0630
0630
0C30
1FF8
1FF8
3018
3018
FCFC
FCFC
ENDCHAR
STARTCHAR uni1EA5
ENCODING 7845
SWIDTH 600 0
DWIDTH 15 0
BBX 12 21 1 0
BITMAP
00E0
01C0
0380
0700
0000
01C0
03E0
0770
0E30
0000
0FC0
1FE0
1870
0030
0FF0
3FE0
7060
C0C0
C1C0
FFF0
7EF0
ENDCHAR
STARTCHAR uni1EA6
ENCODING 7846
SWIDTH 600 0
DWIDTH 15 0
BBX 14 25 0 0
BITMAP
0600
0300
0180
00C0
0000
00E0
01F0
03B8
071C
0000
07E0
07E0
00E0
01E0
01B0
0330
0630
0630
0C30
1FF8
1FF8
3018
3018
FCFC
FCFC
ENDCHAR
STARTCHAR uni1EA7
ENCODING 7847
SWIDTH 600 0
DWIDTH 15 0
BBX 12 21 1 0
BITMAP
0C00
0600
0300
0180
0000
01C0
03E0
0770
0E30
0000
0FC0
1FE0
1870
0030
0FF0
3FE0
7060
C0C0
C1C0
FFF0
7EF0
ENDCHAR
STARTCHAR uni1EAA
ENCODING 7850
SWIDTH 600 0
DWIDTH 15 0
BBX 14 24 0 0
BITMAP
0398
07F0
0CE0
0000
00E0
01F0
03B8
071C
0000
07E0
07E0
00E0
01E0
01B0
0330
0630
0630
0C30
1FF8
1FF8
3018
3018
FCFC
FCFC
ENDCHAR
STARTCHAR uni1EAB
ENCODING 7851
SWIDTH 600 0
DWIDTH 15 0
BBX 13 20 1 0
BITMAP
0398
07F0
0CE0
0000
01C0
03E0
0770
0E30
0000
0FC0
1FE0
1870
0030
0FF0
3FE0
7060
C0C0
C1C0
FFF0
7EF0
ENDCHAR
STARTCHAR uni1EAC
ENCODING 7852
SWIDTH 600 0
DWIDTH 15 0
BBX 14 22 0 -3
BITMAP
01C0
0360
0630
0000
07E0
07E0
00E0
01E0
01B0
0330
0630
0630
0C30
1FF8
1FF8
3018
3018
FCFC
FCFC
0000
0300
0300
ENDCHAR
STARTCHAR uni1EAD
ENCODING 7853
SWIDTH 600 0
DWIDTH 15 0
BBX 12 18 1 -3
BITMAP
0380
06C0
0C60
0000
0FC0
1FE0
1870
0030
0FF0
3FE0
7060
C0C0
C1C0
FFF0
7EF0
0000
0600
0600
ENDCHAR
STARTCHAR uni1EAE
ENCODING 7854
SWIDTH 600 0
DWIDTH 15 0
BBX 14 24 0 0
BITMAP
00E0
01C0
0380
0700
0000
0C30
0660
03C0
0000
07E0
07E0
00E0
01E0
01B0
0330
0630
0630
0C30
1FF8
1FF8
3018
3018
FCFC
FCFC
ENDCHAR
STARTCHAR uni1EAF
ENCODING 7855
SWIDTH 600 0
DWIDTH 15 0
BBX 12 20 1 0
BITMAP
01C0
0380
0700
0E00
0000
1860
0CC0
0780
0000
0FC0
1FE0
1870
0030
0FF0
3FE0
7060
C0C0
C1C0
FFF0
7EF0
ENDCHAR
STARTCHAR uni1EB0
ENCODING 7856
SWIDTH 600 0
DWIDTH 15 0
BBX 14 24 0 0
BITMAP
0600
0300
0180
00C0
0000
0C30
0660
03C0
0000
07E0
07E0
00E0
01E0
01B0
0330
0630
0630
0C30
1FF8
1FF8
3018
3018
FCFC
FCFC
ENDCHAR
STARTCHAR uni1EB1
ENCODING 7857
SWIDTH 600 0
DWIDTH 15 0
BBX 12 20 1 0
BITMAP
0C00
0600
0300
0180
0000
1860
0CC0
0780
0000
0FC0
1FE0
1870
0030
0FF0
3FE0
7060
C0C0
C1C0
FFF0
7EF0
ENDCHAR
STARTCHAR uni1EB4
ENCODING 7860
SWIDTH 600 0
DWIDTH 15 0
BBX 14 23 0 0
BITMAP
0398
07F0
0CE0
0000
0C30
0660
03C0
0000
07E0
07E0
00E0
01E0
01B0
0330
0630
0630
0C30
1FF8
1FF8
3018
3018
FCFC
FCFC
ENDCHAR
STARTCHAR uni1EB5
ENCODING 7861
SWIDTH 600 0
DWIDTH 15 0
BBX 12 19 1 0
BITMAP
0730
0FE0
19C0
0000
1860
0CC0
0780
0000
0FC0
1FE0
1870
0030
0FF0
3FE0
7060
C0C0
C1C0
FFF0
7EF0
ENDCHAR
STARTCHAR uni1EB6
ENCODING 7862
SWIDTH 600 0
DWIDTH 15 0
BBX 14 22 0 -3
BITMAP
0C30
0660
03C0
0000
07E0
07E0
00E0
01E0
01B0
0330
0630
0630
0C30
1FF8
1FF8
3018
3018
FCFC
FCFC
0000
0300
0300
ENDCHAR
STARTCHAR uni1EB7
ENCODING 7863
SWIDTH 600 0
DWIDTH 15 0
BBX 12 18 1 -3
BITMAP
1860
0CC0
0780
0000
0FC0
1FE0
1870
0030
0FF0
3FE0
7060
C0C0
C1C0
FFF0
7EF0
0000
0600
0600
ENDCHAR
STARTCHAR uni1EB8
ENCODING 7864
SWIDTH 600 0
DWIDTH 15 0
BBX 15 18 0 -3
BITMAP
1FFE
1FFE
0606
060C
0C6C
0C60
0FE0
0FC0
18C0
18C0
180C
300C
3018
FFF8
FFF8
0000
0300
0300
ENDCHAR
STARTCHAR uni1EB9
ENCODING 7865
SWIDTH 600 0
DWIDTH 15 0
BBX 11 14 2 -3
BITMAP
0F80
3FC0
70E0
6060
C060
FFE0
FFE0
C000
E0C0
7FC0
3F00
0000
0C00
0C00
ENDCHAR
STARTCHAR uni1EBC
ENCODING 7868
SWIDTH 600 0
DWIDTH 15 0
BBX 15 19 0 0
BITMAP
01CC
03F8
0670
0000
1FFE
1FFE
0606
060C
0C6C
0C60
0FE0
0FC0
18C0
18C0
180C
300C
3018
FFF8
FFF8
ENDCHAR
STARTCHAR uni1EBD
ENCODING 7869
SWIDTH 600 0
DWIDTH 15 0
BBX 11 15 2 0
BITMAP
0E60
1FC0
3380
0000
0F80
3FC0
70E0
6060
C060
FFE0
FFE0
C000
E0C0
7FC0
3F00
ENDCHAR
STARTCHAR uni1EBE
ENCODING 7870
SWIDTH 600 0
DWIDTH 15 0
BBX 15 25 0 0
BITMAP
0038
0070
00E0
01C0
0000
0070
00F8
01DC
038E
0000
1FFE
1FFE
0606
060C
0C0C
0C60
0C60
0FE0
1FC0
18C0
18CC
300C
3018
FFF8
FFF8
ENDCHAR
STARTCHAR uni1EBF
ENCODING 7871
SWIDTH 600 0
DWIDTH 15 0
BBX 12 21 2 0
BITMAP
00E0
01C0
0380
0700
0000
0380
07C0
0EE0
1C60
0000
0FC0
3FE0
7070
6030
C030
FFF0
FFF0
C000
E060
7FE0
3F80
ENDCHAR
STARTCHAR uni1EC0
ENCODING 7872
SWIDTH 600 0
DWIDTH 15 0
BBX 15 25 0 0
BITMAP
0300
0180
00C0
0060
0000
0070
00F8
01DC
038E
0000
1FFE
1FFE
0606
060C
0C0C
0C60
0C60
0FE0
1FC0
18C0
18CC
300C
3018
FFF8
FFF8
ENDCHAR
STARTCHAR uni1EC1
ENCODING 7873
SWIDTH 600 0
DWIDTH 15 0
BBX 12 21 2 0
BITMAP
0C00
0600
0300
0180
0000
0380
07C0
0EE0
1C60
0000
0FC0
3FE0
7070
6030
C030
FFF0
FFF0
C000
E060
7FE0
3F80
ENDCHAR
STARTCHAR uni1EC4
ENCODING 7876
SWIDTH 600 0
DWIDTH 15 0
BBX 15 24 0 0
BITMAP
01CC
03F8
0670
0000
0070
00F8
01DC
038E
0000
1FFE
1FFE
0606
060C
0C0C
0C60
0C60
0FE0
1FC0
18C0
18CC
300C
3018
FFF8
FFF8
ENDCHAR
STARTCHAR uni1EC5
ENCODING 7877
SWIDTH 600 0
DWIDTH 15 0
BBX 12 20 2 0
BITMAP
0730
0FE0
19C0
0000
0380
07C0
0EE0
1C60
0000
0FC0
3FE0
7070
6030
C030
FFF0
FFF0
C000
E060
7FE0
3F80
ENDCHAR
STARTCHAR uni1EC6
ENCODING 7878
SWIDTH 600 0
DWIDTH 15 0
BBX 15 22 0 -3
BITMAP
01C0
0360
0630
0000
1FFE
1FFE
0606
060C
0C6C
0C60
0FE0
0FC0
18C0
18C0
180C
300C
3018
FFF8
FFF8
0000
0300
0300
ENDCHAR
STARTCHAR uni1EC7
ENCODING 7879
SWIDTH 600 0
DWIDTH 15 0
BBX 11 18 2 -3
BITMAP
0E00
1B00
3180
0000
0F80
3FC0
70E0
6060
C060
FFE0
FFE0
C000
E0C0
7FC0
3F00
0000
0C00
0C00
ENDCHAR
STARTCHAR uni1ECA
ENCODING 7882
SWIDTH 600 0
DWIDTH 15 0
BBX 13 18 2 -3
BITMAP
1FF8
1FF8
0180
0180
0300
0300
0300
0600
0600
0600
0C00
0C00
0C00
FFC0
FFC0
0000
0600
0600
ENDCHAR
STARTCHAR uni1ECB
ENCODING 7883
SWIDTH 600 0
DWIDTH 15 0
BBX 10 19 2 -3
BITMAP
01C0
03C0
0380
0000
0000
1F00
1F00
0300
0300
0600
0600
0600
0C00
0C00
FFC0
FFC0
0000
0C00
0C00
ENDCHAR
STARTCHAR uni1ECC
ENCODING 7884
SWIDTH 600 0
DWIDTH 15 0
BBX 14 18 1 -3
BITMAP
03E0
0FF8
1C38
381C
700C
600C
E00C
C00C
C01C
C018
C038
E070
71E0
7FC0
1F00
0000
0600
0600
ENDCHAR
STARTCHAR uni1ECD
ENCODING 7885
SWIDTH 600 0
DWIDTH 15 0
BBX 12 14 2 -3
BITMAP
0FC0
3FE0
7070
6030
C030
C030
C030
C060
E0E0
7FC0
3F00
0000
0600
0600
ENDCHAR
STARTCHAR uni1ED0
ENCODING 7888
SWIDTH 600 0
DWIDTH 15 0
BBX 14 25 1 0
BITMAP
0070
00E0
01C0
0380
0000
01C0
03E0
0770
0E38
0000
03E0
0FF8
1C38
381C
700C
600C
E00C
C00C
C01C
C018
C038
E070
71E0
7FC0
1F00
ENDCHAR
STARTCHAR uni1ED1
ENCODING 7889
SWIDTH 600 0
DWIDTH 15 0
BBX 12 21 2 0
BITMAP
00E0
01C0
0380
0700
0000
0380
07C0
0EE0
1C60
0000
0FC0
3FE0
7070
6030
C030
C030
C030
C060
E0E0
7FC0
3F00
ENDCHAR
STARTCHAR uni1ED2
ENCODING 7890
SWIDTH 600 0
DWIDTH 15 0
BBX 14 25 1 0
BITMAP
0600
0300
0180
00C0
0000
01C0
03E0
0770
0E38
0000
03E0
0FF8
1C38
381C
700C
600C
E00C
C00C
C01C
C018
C038
E070
71E0
7FC0
1F00
ENDCHAR
STARTCHAR uni1ED3
ENCODING 7891
SWIDTH 600 0
DWIDTH 15 0
BBX 12 21 2 0
BITMAP
0C00
0600
0300
0180
0000
0380
07C0
0EE0
1C60
0000
0FC0
3FE0
7070
6030
C030
C030
C030
C060
E0E0
7FC0
3F00
ENDCHAR
STARTCHAR uni1ED6
ENCODING 7894
SWIDTH 600 0
DWIDTH 15 0
BBX 14 24 1 0
BITMAP
0398
07F0
0CE0
0000
01C0
03E0
0770
0E38
0000
03E0
0FF8
1C38
381C
700C
600C
E00C
C00C
C01C
C018
C038
E070
71E0
7FC0
1F00
ENDCHAR
STARTCHAR uni1ED7
ENCODING 7895
SWIDTH 600 0
DWIDTH 15 0
BBX 12 20 2 0
BITMAP
0730
0FE0
19C0
0000
0380
07C0
0EE0
1C60
0000
0FC0
3FE0
7070
6030
C030
C030
C030
C060
E0E0
7FC0
3F00
ENDCHAR
STARTCHAR uni1ED8
ENCODING 7896
SWIDTH 600 0
DWIDTH 15 0
BBX 14 22 1 -3
BITMAP
0380
06C0
0C60
0000
03E0
0FF8
1C38
381C
700C
600C
E00C
C00C
C01C
C018
C038
E070
71E0
7FC0
1F00
0000
0600
0600
ENDCHAR
STARTCHAR uni1ED9
ENCODING 7897
SWIDTH 600 0
DWIDTH 15 0
BBX 12 18 2 -3
BITMAP
0700
0D80
18C0
0000
0FC0
3FE0
7070
6030
C030
C030
C030
C060
E0E0
7FC0
3F00
0000
0600
0600
ENDCHAR
STARTCHAR uni1EDA
ENCODING 7898
SWIDTH 600 0
DWIDTH 15 0
BBX 18 20 1 0
BITMAP
001C00
003800
007000
00E000
000000
03E1C0
0FF9C0
1C3B80
381F00
700E00
600C00
E00C00
C00C00
C01C00
C01800
C03800
E07000
71E000
7FC000
1F0000
ENDCHAR
STARTCHAR uni1EDB
ENCODING 7899
SWIDTH 600 0
DWIDTH 15 0
BBX 16 16 2 0
BITMAP
0070
00E0
01C0
0380
0000
0FC7
3FE7
707E
603C
C038
C030
C030
C060
E0E0
7FC0
3F00
ENDCHAR
STARTCHAR uni1EDC
ENCODING 7900
SWIDTH 600 0
DWIDTH 15 0
BBX 18 20 1 0
BITMAP
018000
00C000
006000
003000
000000
03E1C0
0FF9C0
1C3B80
381F00
700E00
600C00
E00C00
C00C00
C01C00
C01800
C03800
E07000
71E000
7FC000
1F0000
ENDCHAR
STARTCHAR uni1EDD
ENCODING 7901
SWIDTH 600 0
DWIDTH 15 0
BBX 16 16 2 0
BITMAP
0600
0300
0180
00C0
0000
0FC7
3FE7
707E
603C
C038
C030
C030
C060
E0E0
7FC0
3F00
ENDCHAR
STARTCHAR uni1EE0
ENCODING 7904
SWIDTH 600 0
DWIDTH 15 0
BBX 18 19 1 0
BITMAP
00E600
01FC00
033800
000000
03E1C0
0FF9C0
1C3B80
381F00
700E00
600C00
E00C00
C00C00
C01C00
C01800
C03800
E07000
71E000
7FC000
1F0000
ENDCHAR
STARTCHAR uni1EE1
ENCODING 7905
SWIDTH 600 0
DWIDTH 15 0
BBX 16 15 2 0
BITMAP
01CC
03F8
0670
0000
0FC7
3FE7
707E
603C
C038
C030
C030
C060
E0E0
7FC0
3F00
ENDCHAR
STARTCHAR uni1EE2
ENCODING 7906
SWIDTH 600 0
DWIDTH 15 0
BBX 18 18 1 -3
BITMAP
03E1C0
0FF9C0
1C3B80
381F00
700E00
600C00
E00C00
C00C00
C01C00
C01800
C03800
E07000
71E000
7FC000
1F0000
000000
030000
030000
ENDCHAR
STARTCHAR uni1EE3
ENCODING 7907
SWIDTH 600 0
DWIDTH 15 0
BBX 16 14 2 -3
BITMAP
0FC7
3FE7
707E
603C
C038
C030
C030
C060
E0E0
7FC0
3F00
0000
0600
0600
ENDCHAR
STARTCHAR uni1EE4
ENCODING 7908
SWIDTH 600 0
DWIDTH 15 0
BBX 15 18 2 -3
BITMAP
7C7E
7C7E
3018
3018
6018
6030
6030
6030
C060
C060
C060
C0C0
E1C0
7F80
3F00
0000
0600
0600
ENDCHAR
STARTCHAR uni1EE5
ENCODING 7909
SWIDTH 600 0
DWIDTH 15 0
BBX 12 14 2 -3
BITMAP
F0F0
F0F0
3030
6030
6060
6060
C060
C0C0
E1C0
7FF0
3EF0
0000
0600
0600
ENDCHAR
STARTCHAR uni1EE8
ENCODING 7912
SWIDTH 600 0
DWIDTH 15 0
BBX 19 20 2 0
BITMAP
001C00
003800
007000
00E000
000000
7C7EE0
7C7EE0
3019C0
301980
601B00
603200
603000
603000
C06000
C06000
C06000
C0C000
E1C000
7F8000
3F0000
ENDCHAR
STARTCHAR uni1EE9
ENCODING 7913
SWIDTH 600 0
DWIDTH 15 0
BBX 16 16 2 0
BITMAP
0070
00E0
01C0
0380
0000
F0F7
F0F7
303E
603C
6078
6070
C060
C0C0
E1C0
7FF0
3EF0
ENDCHAR
STARTCHAR uni1EEA
ENCODING 7914
SWIDTH 600 0
DWIDTH 15 0
BBX 19 20 2 0
BITMAP
018000
00C000
006000
003000
000000
7C7EE0
7C7EE0
3019C0
301980
601B00
603200
603000
603000
C06000
C06000
C06000
C0C000
E1C000
7F8000
3F0000
ENDCHAR
STARTCHAR uni1EEB
ENCODING 7915
SWIDTH 600 0
DWIDTH 15 0
BBX 16 16 2 0
BITMAP
0600
0300
0180
00C0
0000
F0F7
F0F7
303E
603C
6078
6070
C060
C0C0
E1C0
7FF0
3EF0
ENDCHAR
STARTCHAR uni1EEE
ENCODING 7918
SWIDTH 600 0
DWIDTH 15 0
BBX 19 19 2 0
BITMAP
00E600
01FC00
033800
000000
7C7EE0
7C7EE0
3019C0
301980
601B00
603200
603000
603000
C06000
C06000
C06000
C0C000
E1C000
7F8000
3F0000
ENDCHAR
STARTCHAR uni1EEF
ENCODING 7919
SWIDTH 600 0
DWIDTH 15 0
BBX 16 15 2 0
BITMAP
0398
07F0
0CE0
0000
F0F7
F0F7
303E
603C
6078
6070
C060
C0C0
E1C0
7FF0
3EF0
ENDCHAR
STARTCHAR uni1EF0
ENCODING 7920
SWIDTH 600 0
DWIDTH 15 0
BBX 19 18 2 -3
BITMAP
7C7EE0
7C7EE0
3019C0
301980
601B00
603200
603000
603000
C06000
C06000
C06000
C0C000
E1C000
7F8000
3F0000
000000
030000
030000
ENDCHAR
STARTCHAR uni1EF1
ENCODING 7921
SWIDTH 600 0
DWIDTH 15 0
BBX 16 14 2 -3
BITMAP
F0F7
F0F7
303E
603C
6078
6070
C060
C0C0
E1C0
7FF0
3EF0
0000
0300
0300
ENDCHAR
STARTCHAR Ygrave
ENCODING 7922
SWIDTH 600 0
DWIDTH 15 0
BBX 14 20 3 0
BITMAP
0C00
0600
0300
0180
0000
FCFC
FCFC
7070
3060
38C0
1980
1B00
0E00
0E00
0C00
0C00
1800
1800
FF00
FF00
ENDCHAR
STARTCHAR ygrave
ENCODING 7923
SWIDTH 600 0
DWIDTH 15 0
BBX 15 21 0 -5
BITMAP
0600
0300
0180
00C0
0000
1F3E
1F3E
0C0C
0C18
0C38
0630
0660
06C0
03C0
0380
0300
0600
0C00
1800
FE00
FE00
ENDCHAR
STARTCHAR uni1EF4
ENCODING 7924
SWIDTH 600 0
DWIDTH 15 0
BBX 14 18 3 -3
BITMAP
FCFC
FCFC
7070
3060
38C0
1980
1B00
0E00
0E00
0C00
0C00
1800
1800
FF00
FF00
0000
0C00
0C00
ENDCHAR
STARTCHAR uni1EF5
ENCODING 7925
SWIDTH 600 0
DWIDTH 15 0
BBX 15 19 0 -8
BITMAP
1F3E
1F3E
0C0C
0C18
0C38
0630
0660
06C0
03C0
0380
0300
0600
0C00
1800
FE00
FE00
0000
0C00
0C00
ENDCHAR
STARTCHAR uni1EF8
ENCODING 7928
SWIDTH 600 0
DWIDTH 15 0
BBX 14 19 3 0
BITMAP
0730
0FE0
19C0
0000
FCFC
FCFC
7070
3060
38C0
1980
1B00
0E00
0E00
0C00
0C00
1800
1800
FF00
FF00
ENDCHAR
STARTCHAR uni1EF9
ENCODING 7929
SWIDTH 600 0
DWIDTH 15 0
BBX 15 20 0 -5
BITMAP
0398
07F0
0CE0
0000
1F3E
1F3E
0C0C
0C18
0C38
0630
0660
06C0
03C0
0380
0300
0600
0C00
1800
FE00
FE00
ENDCHAR
STARTCHAR uni2000
ENCODING 8192
SWIDTH 600 0
DWIDTH 15 0
BBX 1 1 0 0
BITMAP
00
ENDCHAR
STARTCHAR uni2001
ENCODING 8193
SWIDTH 600 0
DWIDTH 15 0
BBX 1 1 0 0
BITMAP
00
ENDCHAR
STARTCHAR uni2002
ENCODING 8194
SWIDTH 600 0
DWIDTH 15 0
BBX 1 1 0 0
BITMAP
00
ENDCHAR
STARTCHAR uni2003
ENCODING 8195
SWIDTH 600 0
DWIDTH 15 0
BBX 1 1 0 0
BITMAP
00
ENDCHAR
STARTCHAR uni2004
ENCODING 8196
SWIDTH 600 0
DWIDTH 15 0
BBX 1 1 0 0
BITMAP
00
ENDCHAR
STARTCHAR uni2005
ENCODING 8197
SWIDTH 600 0
DWIDTH 15 0
BBX 1 1 0 0
BITMAP
00
ENDCHAR
STARTCHAR uni2006
ENCODING 8198
SWIDTH 600 0
DWIDTH 15 0
BBX 1 1 0 0
BITMAP
00
ENDCHAR
STARTCHAR uni2007
ENCODING 8199
SWIDTH 600 0
DWIDTH 15 0
BBX 1 1 0 0
BITMAP
00
ENDCHAR
STARTCHAR uni2008
ENCODING 8200
SWIDTH 600 0
DWIDTH 15 0
BBX 1 1 0 0
BITMAP
00
ENDCHAR
STARTCHAR uni2009
ENCODING 8201
SWIDTH 600 0
DWIDTH 15 0
BBX 1 1 0 0
BITMAP
00
ENDCHAR
STARTCHAR uni200A
ENCODING 8202
SWIDTH 600 0
DWIDTH 15 0
BBX 1 1 0 0
BITMAP
00
ENDCHAR
STARTCHAR uni2010
ENCODING 8208
SWIDTH 600 0
DWIDTH 15 0
BBX 12 2 3 6
BITMAP
7FF0
FFE0
ENDCHAR
STARTCHAR uni2011
ENCODING 8209
SWIDTH 600 0
DWIDTH 15 0
BBX 12 2 3 6
BITMAP
7FF0
FFE0
ENDCHAR
STARTCHAR figuredash
ENCODING 8210
SWIDTH 600 0
DWIDTH 15 0
BBX 12 2 3 6
BITMAP
FFF0
FFF0
ENDCHAR
STARTCHAR endash
ENCODING 8211
SWIDTH 600 0
DWIDTH 15 0
BBX 12 2 3 6
BITMAP
FFF0
FFF0
ENDCHAR
STARTCHAR emdash
ENCODING 8212
SWIDTH 600 0
DWIDTH 15 0
BBX 15 2 0 6
BITMAP
FFFE
FFFE
ENDCHAR
STARTCHAR afii00208
ENCODING 8213
SWIDTH 600 0
DWIDTH 15 0
BBX 15 2 0 6
BITMAP
FFFE
FFFE
ENDCHAR
STARTCHAR quoteleft
ENCODING 8216
SWIDTH 600 0
DWIDTH 15 0
BBX 4 6 8 9
BITMAP
E0
E0
60
30
30
10
ENDCHAR
STARTCHAR quoteright
ENCODING 8217
SWIDTH 600 0
DWIDTH 15 0
BBX 5 6 7 9
BITMAP
38
38
70
60
C0
80
ENDCHAR
STARTCHAR quotesinglbase
ENCODING 8218
SWIDTH 600 0
DWIDTH 15 0
BBX 6 6 3 -3
BITMAP
1C
1C
38
30
60
C0
ENDCHAR
STARTCHAR quotereversed
ENCODING 8219
SWIDTH 600 0
DWIDTH 15 0
BBX 5 6 7 9
BITMAP
E0
E0
70
30
18
08
ENDCHAR
STARTCHAR quotedblleft
ENCODING 8220
SWIDTH 600 0
DWIDTH 15 0
BBX 8 6 6 9
BITMAP
EE
EE
66
33
33
11
ENDCHAR
STARTCHAR quotedblright
ENCODING 8221
SWIDTH 600 0
DWIDTH 15 0
BBX 9 6 5 9
BITMAP
3B80
3B80
7700
6600
CC00
8800
ENDCHAR
STARTCHAR quotedblbase
ENCODING 8222
SWIDTH 600 0
DWIDTH 15 0
BBX 11 6 1 -3
BITMAP
1CE0
1CE0
39C0
3180
6300
C600
ENDCHAR
STARTCHAR uni201F
ENCODING 8223
SWIDTH 600 0
DWIDTH 15 0
BBX 9 6 5 9
BITMAP
EE00
EE00
7700
3300
1980
0880
ENDCHAR
STARTCHAR dagger
ENCODING 8224
SWIDTH 600 0
DWIDTH 15 0
BBX 11 18 4 -2
BITMAP
0300
0300
0300
0600
0600
FFE0
FFE0
0C00
0C00
1800
1800
1800
3000
3000
3000
6000
6000
6000
ENDCHAR
STARTCHAR daggerdbl
ENCODING 8225
SWIDTH 600 0
DWIDTH 15 0
BBX 13 18 2 -2
BITMAP
00C0
00C0
00C0
0180
0180
3FF8
3FF8
0300
0300
0600
0600
FFE0
FFE0
0C00
0C00
1800
1800
1800
ENDCHAR
STARTCHAR bullet
ENCODING 8226
SWIDTH 600 0
DWIDTH 15 0
BBX 9 7 4 4
BITMAP
1E00
3F00
7F80
FF80
FF00
7E00
3C00
ENDCHAR
STARTCHAR ellipsis
ENCODING 8230
SWIDTH 600 0
DWIDTH 15 0
BBX 12 2 1 0
BITMAP
C630
C630
ENDCHAR
STARTCHAR perthousand
ENCODING 8240
SWIDTH 600 0
DWIDTH 15 0
BBX 14 15 1 0
BITMAP
1C00
3600
6600
6600
6C1C
38F0
0780
3C00
E000
1C38
366C
66CC
66CC
6CD8
3870
ENDCHAR
STARTCHAR guilsinglleft
ENCODING 8249
SWIDTH 600 0
DWIDTH 15 0
BBX 9 9 3 1
BITMAP
0180
0700
1C00
7000
E000
7000
3800
1C00
0E00
ENDCHAR
STARTCHAR guilsinglright
ENCODING 8250
SWIDTH 600 0
DWIDTH 15 0
BBX 9 9 3 1
BITMAP
3800
1C00
0E00
0700
0380
0700
1C00
7000
C000
ENDCHAR
STARTCHAR uni203D
ENCODING 8253
SWIDTH 600 0
DWIDTH 15 0
BBX 10 16 4 0
BITMAP
0300
3F00
7F80
6FC0
CEC0
CEC0
0DC0
1F80
1F00
1C00
3800
3800
0000
0000
7000
7000
ENDCHAR
STARTCHAR fraction
ENCODING 8260
SWIDTH 600 0
DWIDTH 15 0
BBX 16 7 0 3
BITMAP
000F
003C
00F0
03C0
0F00
3C00
F000
ENDCHAR
STARTCHAR oneinferior
ENCODING 8321
SWIDTH 600 0
DWIDTH 15 0
BBX 8 9 4 -5
BITMAP
06
3E
0C
0C
0C
18
18
18
FF
ENDCHAR
STARTCHAR twoinferior
ENCODING 8322
SWIDTH 600 0
DWIDTH 15 0
BBX 8 9 5 -5
BITMAP
1E
73
63
06
0C
18
30
62
FE
ENDCHAR
STARTCHAR threeinferior
ENCODING 8323
SWIDTH 600 0
DWIDTH 15 0
BBX 8 9 4 -5
BITMAP
1E
73
63
06
1C
06
C6
CC
78
ENDCHAR
STARTCHAR uni20A5
ENCODING 8357
SWIDTH 600 0
DWIDTH 15 0
BBX 19 19 -2 -4
BITMAP
000060
0000C0
000180
000300
1DEF00
1FFF80
073980
063180
0C6300
0C6300
0CE300
19C600
1BC600
3EF700
3CF700
180000
300000
600000
C00000
ENDCHAR
STARTCHAR uni20A6
ENCODING 8358
SWIDTH 600 0
DWIDTH 15 0
BBX 16 15 0 0
BITMAP
1E1F
1E1F
0E06
0E06
1FFE
1FFE
1B0C
198C
3FFC
3FFC
30D8
60D8
60F0
F870
F870
ENDCHAR
STARTCHAR uni20A9
ENCODING 8361
SWIDTH 600 0
DWIDTH 15 0
BBX 15 15 2 0
BITMAP
7C3E
7C3E
300C
318C
3FFC
7FFC
6798
6798
7FF8
7FF8
D9B0
D9A0
F1E0
F1C0
E1C0
ENDCHAR
STARTCHAR Euro
ENCODING 8364
SWIDTH 600 0
DWIDTH 15 0
BBX 18 15 -2 0
BITMAP
007EC0
01FFC0
03C1C0
070180
7FF980
7FF800
1C0000
180000
FFF000
FFF000
180000
1C0600
0E0E00
0FFC00
03F000
ENDCHAR
STARTCHAR uni20AD
ENCODING 8365
SWIDTH 600 0
DWIDTH 15 0
BBX 16 15 0 0
BITMAP
1F9F
1F9F
0618
0630
0C60
0CC0
FFFF
FFFF
19C0
18C0
30E0
3060
3070
FC3C
FC3C
ENDCHAR
STARTCHAR trademark
ENCODING 8482
SWIDTH 600 0
DWIDTH 15 0
BBX 15 7 2 8
BITMAP
FF0E
FF1C
B3BC
33FC
66D8
66D8
FEDC
ENDCHAR
STARTCHAR uni212A
ENCODING 8490
SWIDTH 600 0
DWIDTH 15 0
BBX 16 15 0 0
BITMAP
1F9F
1F9F
0618
0630
0C60
0CC0
0F80
1F80
19C0
18C0
30E0
3060
3070
FC3C
FC3C
ENDCHAR
STARTCHAR uni212B
ENCODING 8491
SWIDTH 600 0
DWIDTH 15 0
BBX 14 19 0 0
BITMAP
00F0
0198
0198
00F0
07E0
07E0
00E0
01E0
01B0
0330
0630
0630
0C30
1FF8
1FF8
3018
3018
FCFC
FCFC
ENDCHAR
STARTCHAR uni2132
ENCODING 8498
SWIDTH 600 0
DWIDTH 15 0
BBX 16 15 0 0
BITMAP
00FF
00FF
000C
000C
0018
0318
0318
03F0
07F0
0630
6630
6060
C060
FFF8
FFF8
ENDCHAR
STARTCHAR minus
ENCODING 8722
SWIDTH 600 0
DWIDTH 15 0
BBX 13 2 2 6
BITMAP
FFF8
FFF8
ENDCHAR
STARTCHAR fraction
ENCODING 8725
SWIDTH 600 0
DWIDTH 15 0
BBX 16 7 0 3
BITMAP
000F
003C
00F0
03C0
0F00
3C00
F000
ENDCHAR
STARTCHAR periodcentered
ENCODING 8729
SWIDTH 600 0
DWIDTH 15 0
BBX 4 4 6 5
BITMAP
70
F0
F0
E0
ENDCHAR
STARTCHAR uni2236
ENCODING 8758
SWIDTH 600 0
DWIDTH 15 0
BBX 5 11 5 0
BITMAP
38
38
38
00
00
00
00
00
E0
E0
E0
ENDCHAR
STARTCHAR uni2259
ENCODING 8793
SWIDTH 600 0
DWIDTH 15 0
BBX 13 10 2 4
BITMAP
0700
0D80
18C0
0000
7FF8
7FF8
0000
0000
FFF0
FFF0
ENDCHAR
STARTCHAR uni225A
ENCODING 8794
SWIDTH 600 0
DWIDTH 15 0
BBX 13 10 2 4
BITMAP
18C0
0D80
0700
0000
7FF8
7FF8
0000
0000
FFF0
FFF0
ENDCHAR
STARTCHAR notequal
ENCODING 8800
SWIDTH 600 0
DWIDTH 15 0
BBX 19 19 -1 -2
BITMAP
000060
0000C0
000180
000300
000600
000C00
001800
0FFF00
0FFF00
004000
00C000
1FFE00
1FFE00
060000
0C0000
180000
300000
600000
C00000
ENDCHAR
STARTCHAR equivalence
ENCODING 8801
SWIDTH 600 0
DWIDTH 15 0
BBX 13 8 0 3
BITMAP
FFF8
FFF8
0000
FFF8
FFF8
0000
FFF8
FFF8
ENDCHAR
STARTCHAR uni2262
ENCODING 8802
SWIDTH 600 0
DWIDTH 15 0
BBX 19 19 -3 -2
BITMAP
000060
0000C0
000180
000300
000600
000C00
1FFF00
1FFF00
006000
1FFF00
1FFF00
018000
1FFF00
1FFF00
0C0000
180000
300000
600000
C00000
ENDCHAR
STARTCHAR lessequal
ENCODING 8804
SWIDTH 600 0
DWIDTH 15 0
BBX 15 14 2 -1
BITMAP
001E
0078
01E0
0780
1E00
7800
F000
3C00
0F00
03C0
00F0
0000
FFFE
FFFE
ENDCHAR
STARTCHAR greaterequal
ENCODING 8805
SWIDTH 600 0
DWIDTH 15 0
BBX 15 14 1 -1
BITMAP
1E00
0780
01E0
0078
001E
003C
00F0
03C0
0F00
3C00
F000
0000
FFFE
FFFE
ENDCHAR
STARTCHAR uni226E
ENCODING 8814
SWIDTH 600 0
DWIDTH 15 0
BBX 19 19 0 -2
BITMAP
000060
0000C0
000180
000300
000780
001E00
007800
01F000
07E000
1E4000
3CC000
0F8000
03C000
06F000
0C3C00
180000
300000
600000
C00000
ENDCHAR
STARTCHAR uni226F
ENCODING 8815
SWIDTH 600 0
DWIDTH 15 0
BBX 19 19 -1 -2
BITMAP
000060
0000C0
000180
000300
078600
01EC00
007800
003E00
006780
004F00
00FC00
01F000
03C000
0F0000
3C0000
180000
300000
600000
C00000
ENDCHAR
STARTCHAR uni2270
ENCODING 8816
SWIDTH 600 0
DWIDTH 15 0
BBX 19 19 0 -3
BITMAP
000060
0000C0
000180
000780
001E00
007C00
01F800
07B000
1E6000
3C4000
0FC000
03C000
03F000
063C00
0C0000
3FFF80
3FFF80
600000
C00000
ENDCHAR
STARTCHAR uni2271
ENCODING 8817
SWIDTH 600 0
DWIDTH 15 0
BBX 19 19 -1 -3
BITMAP
000060
0000C0
000180
078300
01E600
007C00
001E00
003780
006F00
007C00
00F000
03C000
0F0000
3E0000
0C0000
3FFF80
3FFF80
600000
C00000
ENDCHAR
STARTCHAR fi
ENCODING -1
SWIDTH 600 0
DWIDTH 15 0
BBX 16 16 0 0
BITMAP
0077
01FF
038E
0300
0300
3FBC
3FBC
060C
0618
0C18
0C18
0C30
1830
1830
FEFE
FEFE
ENDCHAR
STARTCHAR fl
ENCODING -1
SWIDTH 600 0
DWIDTH 15 0
BBX 15 16 0 0
BITMAP
0076
01FE
0386
0306
030C
3FCC
3FCC
0618
0618
0C18
0C18
0C30
1830
1830
FEFE
FEFE
ENDCHAR
ENDFONT
